SplineFontDB: 3.0
FontName: MarathiCursive
FullName: MarathiCursive
FamilyName: MarathiCursive
Weight: Medium
Copyright: Copyright (c) 2012, MihailJP
UComments: "2012-5-4: Created." 
Version: 1.1
StrokeWidth: 60
ItalicAngle: 0
UnderlinePosition: -100
UnderlineWidth: 50
Ascent: 800
Descent: 200
LayerCount: 2
Layer: 0 0 "+gMyXYgAA"  1
Layer: 1 0 "+Uk2XYgAA"  0
StrokedFont: 1
XUID: [1021 494 2031268696 4926356]
OS2Version: 0
OS2_WeightWidthSlopeOnly: 0
OS2_UseTypoMetrics: 1
CreationTime: 1336059319
ModificationTime: 1336703195
OS2TypoAscent: 0
OS2TypoAOffset: 1
OS2TypoDescent: 0
OS2TypoDOffset: 1
OS2TypoLinegap: 0
OS2WinAscent: 0
OS2WinAOffset: 1
OS2WinDescent: 0
OS2WinDOffset: 1
HheadAscent: 0
HheadAOffset: 1
HheadDescent: 0
HheadDOffset: 1
OS2Vendor: 'PfEd'
Lookup: 2 0 0 "oT/auT Decomposition"  {"oT/auT Decomposition-1"  } [' RQD' ('dev2' <'dflt' > ) 'psts' ('dev2' <'dflt' > ) ]
Lookup: 4 0 0 "Akhand ligatures"  {"Akhand ligatures-1"  } ['akhn' ('dev2' <'dflt' > ) ]
Lookup: 4 0 0 "Repha"  {"Repha-1"  } ['rphf' ('dev2' <'dflt' > ) ]
Lookup: 4 0 0 "Rakaar ligatures"  {"Rakaar ligatures-1"  } ['rkrf' ('dev2' <'dflt' > ) ]
Lookup: 4 0 0 "Rakaar"  {"Rakaar-1"  } ['blwf' ('dev2' <'dflt' > ) ]
Lookup: 4 0 0 "Half forms"  {"Half forms-1"  } ['half' ('dev2' <'dflt' > ) ]
Lookup: 4 0 0 "Vattu forms"  {"Vattu forms-1"  } ['vatu' ('dev2' <'dflt' > ) ]
Lookup: 5 0 0 "iT forms"  {"iT forms-1"  } ['pres' ('dev2' <'dflt' > ) ]
Lookup: 4 0 0 "above-base matra conjunction"  {"above-base matra conjunction-1"  } ['abvs' ('dev2' <'dflt' > ) ]
Lookup: 4 0 0 "uT ligatures"  {"uT ligatures-1"  } ['blws' ('dev2' <'dflt' > ) ]
Lookup: 4 0 0 "AT ligatures"  {"AT ligatures-1"  } ['psts' ('dev2' <'dflt' > ) ]
Lookup: 4 0 0 "IT ligatures"  {"IT ligatures-1"  } ['psts' ('dev2' <'dflt' > ) ]
Lookup: 5 0 0 "Contextual forms"  {"Contextual forms-1"  } [' RQD' ('dev2' <'dflt' > ) 'calt' ('dev2' <'dflt' > ) 'psts' ('dev2' <'dflt' > ) ]

StartChar: akAra
Encoding: 0 2309 0
Width: 899
VWidth: 0
Flags: W
AnchorPoint: "anusvara" 740 800 basechar 0
LayerCount: 2
Fore
SplineSet
410 147 m 0
 488.39 89.6699 422 0 611 0 c 0
 713 0 767 120 710 420 c 0
 687.903 536.296 734 585 779 600 c 0
209 600 m 0
 233 648 266.354 690 323 690 c 0
 383.389 690 443.863 660.17 449 600 c 0
 455.238 526.928 431 468 344 444 c 1
 446 459 516.256 422.998 527 342 c 0
 539.309 249.213 475.6 136.349 383 150 c 0
 242.464 170.718 170 219 120 402 c 0
0 600 m 1
 899 600 l 1
EndSplineSet
EndChar

StartChar: AkAra
Encoding: 1 2310 1
Width: 843
VWidth: 0
Flags: W
AnchorPoint: "anusvara" 660 800 basechar 0
LayerCount: 2
Fore
SplineSet
324.195 522 m 0
 294.195 486 231.208 465.701 189.195 483 c 0
 138.195 504 117.746 548.565 120.195 600 c 0
 123.195 663 162.195 705 222.195 705 c 0
 290.357 705 333.195 638.162 333.195 570 c 0
 333.195 402.837 204.195 237 222.195 156 c 0
 246.412 47.0234 328.989 0 462.195 0 c 0
 612.195 0 648.195 24 723.195 93 c 0
663.848 600 m 0
 618.848 585 619.348 537 613.348 396 c 0
 608.08 272.201 602.367 166.335 595.348 19.5 c 0
0 600 m 1
 843 600 l 1
EndSplineSet
EndChar

StartChar: it
Encoding: 2 2311 2
Width: 772
VWidth: 0
Flags: W
AnchorPoint: "anusvara" 700 800 basechar 0
LayerCount: 2
Fore
SplineSet
232.334 600 m 0
 154.334 588 105.889 538.372 127.334 480 c 0
 164.167 379.743 265.334 360 340.334 384 c 1
 241.334 363 140.167 310.743 164.167 160.743 c 0
 181.658 51.4216 243.75 0 361.334 0 c 0
 487.334 0 562.334 57 562.334 282 c 0
 562.334 429.3 428.935 562.287 517.334 657 c 0
 559.334 702 640.334 639 652.334 600 c 0
0 600 m 1
 772 600 l 1
EndSplineSet
EndChar

StartChar: ut
Encoding: 4 2313 4
Width: 924
VWidth: 0
Flags: W
AnchorPoint: "anusvara" 800 800 basechar 0
LayerCount: 2
Fore
SplineSet
288 309 m 0
 372 360 474 284.308 474 186 c 0
 474 75 398.926 0 321 0 c 0
 192 0 120 130.647 120 294 c 0
 120 525 273 675 465 681 c 0
 651.057 686.814 798 513 804 345 c 0
 809.253 197.906 765 84 651 0 c 0
0 600 m 1
 924 600 l 1
EndSplineSet
EndChar

StartChar: Rt
Encoding: 6 2315 6
Width: 925
VWidth: 0
Flags: W
AnchorPoint: "anusvara" 480 800 basechar 0
AnchorPoint: "eT" 465 600 basechar 0
LayerCount: 2
Fore
SplineSet
540 330 m 0
 636 303 729.558 343.474 771 453 c 0
 791.132 506.206 745.881 522.642 723 516 c 0
 698.146 508.785 684 474 690 447 c 0
 720.053 311.764 912 174 723 36 c 0
120 372 m 0
 176 420 249.933 463.479 338 446 c 0
 389.055 435.867 382 390 382 320 c 0
129.881 98 m 0
 246 150 324 218 408 342 c 0
 470.594 434.4 483.251 537.271 464.692 600 c 1
 537.251 531.271 426.251 0 554.692 0 c 0
0 600 m 1
 925 600 l 1
EndSplineSet
EndChar

StartChar: ka
Encoding: 11 2325 11
Width: 781
VWidth: 0
Flags: W
AnchorPoint: "anusvara" 500 800 basechar 0
AnchorPoint: "eT" 617 600 basechar 0
LayerCount: 2
Fore
SplineSet
331 600 m 0
 231.999 564 145.513 492.476 121.419 375 c 0
 105.029 295.09 235.757 291.075 251.212 210.979 c 0
 265.15 138.741 252.553 33.4893 187.315 33.4893 c 0
 147.212 33.4893 109.26 89.5254 130.315 126.489 c 0
 175.315 205.489 621.315 219.489 653.315 111.489 c 0
 673.038 44.9238 660.292 0 593.315 0 c 0
 491.315 0 507.315 467.489 615.315 600 c 0
0 600 m 1
 781 600 l 1
EndSplineSet
Substitution2: "kara ligated forms-1" void
Substitution2: "IT forms-1" ki
EndChar

StartChar: kha
Encoding: 12 2326 12
Width: 760
VWidth: 0
Flags: W
AnchorPoint: "anusvara" 500 800 basechar 0
AnchorPoint: "eT" 620 601.927 basechar 0
LayerCount: 2
Fore
SplineSet
120 600 m 0
 181.806 648.704 201.611 661.408 265.806 660.704 c 0
 351.019 659.77 332.879 594.665 313.806 552.704 c 0
 283.806 486.704 121.806 417.704 172.806 345.704 c 0
 222.823 275.091 383.994 277.05 385.806 318.704 c 0
 388.806 387.704 208.806 318.704 223.806 189.704 c 0
 241.203 40.083 338.971 0 514.806 0 c 0
 712.806 0 631.806 237.704 577.806 417.704 c 0
 548.455 515.54 544.806 567.704 619.806 600 c 0
0 600 m 1
 760 600 l 1
EndSplineSet
Substitution2: "IT forms-1" khi
EndChar

StartChar: ga
Encoding: 13 2327 13
Width: 657
VWidth: 0
Flags: W
AnchorPoint: "anusvara" 350 800 basechar 0
AnchorPoint: "eT" 476 600 basechar 0
LayerCount: 2
Fore
SplineSet
475.486 600 m 0
 469.486 351.704 448.486 0 491.681 0 c 0
 550.486 0 562.486 33.7041 577.486 69.7041 c 0
197.681 600 m 0
 247.486 414.704 265.486 327.704 253.486 243.704 c 0
 246.59 195.43 196.522 160.44 149.681 174 c 0
 111.017 185.192 112.862 246.516 139.486 276.704 c 0
 169.147 310.337 229.486 324.704 253.486 291.704 c 0
0 600 m 1
 657 600 l 1
EndSplineSet
Substitution2: "IT forms-1" gi
EndChar

StartChar: gha
Encoding: 14 2328 14
Width: 654
VWidth: 0
Flags: W
AnchorPoint: "anusvara" 350 800 basechar 0
AnchorPoint: "eT" 472 600 basechar 0
LayerCount: 2
Fore
SplineSet
472 600 m 0
 468.701 343.547 450.701 0 502 0 c 0
 540.701 0 550.701 17.5469 574.702 45.5469 c 0
208.298 600 m 0
 148 571.547 120 535.547 120 483.547 c 0
 120.001 407.892 228 407.547 304.298 423 c 1
 228 407.547 136.517 347.769 142 257.547 c 0
 146.399 185.161 240.636 180.153 318 197.547 c 0
 382.701 212.094 422.701 263.547 466 321 c 0
0 600 m 1
 654 600 l 1
EndSplineSet
Substitution2: "IT forms-1" ghi
EndChar

StartChar: Ga
Encoding: 15 2329 15
Width: 780
VWidth: 0
Flags: W
AnchorPoint: "eT" 468 600 basechar 0
AnchorPoint: "anusvara" 400 800 basechar 0
LayerCount: 2
Fore
SplineSet
468 600 m 4
 366 570 293 470 309 390 c 4
 317.385 348.075 367.029 300.499 439 324 c 4
 537 356 573 314 573 198 c 4
 573 67.2139 505.115 0 352.885 0 c 4
 161.115 0 130 210 120 420 c 4
0 600 m 1
 780 600 l 1
EndSplineSet
Refer: 58 2306 S 1 0 0 1 762 -381 2
Substitution2: "IT forms-1" Gi
EndChar

StartChar: ca
Encoding: 16 2330 16
Width: 598
VWidth: 0
Flags: W
AnchorPoint: "anusvara" 400 800 basechar 0
AnchorPoint: "eT" 427 600 basechar 0
LayerCount: 2
Fore
SplineSet
427.321 600 m 0
 447.321 578 478.038 515.662 450.038 477.662 c 0
 405.946 417.822 342.081 403.324 284.038 405.662 c 1
 408.038 397.662 495.032 318 476.038 251.662 c 0
 426.771 79.5908 116.037 139.662 120.038 53.6621 c 0
 120.879 35.5713 146.037 0 178.038 0 c 0
 286.037 0 317.321 110 193.321 210 c 0
0 600 m 1
 598 600 l 1
EndSplineSet
Substitution2: "IT forms-1" ci
EndChar

StartChar: cha
Encoding: 17 2331 17
Width: 672
VWidth: 0
Flags: W
AnchorPoint: "anusvara" 400 800 basechar 0
AnchorPoint: "eT" 471 600 basechar 0
LayerCount: 2
Fore
SplineSet
253.117 600 m 0
 167.118 565.983 106.521 514.087 122.588 447 c 0
 139.117 377.983 199.117 331.983 321.117 389.983 c 1
 181.118 333.982 139.117 281.983 157.117 139.983 c 0
 172.84 15.9473 277.117 0 339.117 0 c 0
 441.118 0 520.071 89.0166 545.117 207.983 c 0
 585.118 397.982 459.118 467.982 444.588 401 c 0
 429.496 331.424 531.256 344.294 543.117 453.983 c 0
 551.118 527.966 507.118 585.982 471.117 600 c 0
0 600 m 1
 672 600 l 1
EndSplineSet
Substitution2: "IT forms-1" chi
EndChar

StartChar: ja
Encoding: 18 2332 18
Width: 663
VWidth: 0
Flags: W
AnchorPoint: "anusvara" 440 800 basechar 0
AnchorPoint: "eT" 543 600 basechar 0
LayerCount: 2
Fore
SplineSet
261.655 576.437 m 0
 373.827 502 261.827 350 159.827 386 c 0
 44.9216 426.555 95.8272 600 190.08 600 c 0
 325.654 600 451.662 357.01 461.655 220.437 c 0
 467.654 138.437 443.654 0 355.655 0 c 0
 315.654 0 278.282 40.3291 287.655 108.437 c 0
 317.654 326.437 451.654 536.437 543.654 600 c 0
0 600 m 1
 663 600 l 1
EndSplineSet
Substitution2: "IT forms-1" ji
EndChar

StartChar: jha
Encoding: 19 2333 19
Width: 833
VWidth: 0
Flags: W
AnchorPoint: "anusvara" 550 800 basechar 0
AnchorPoint: "eT" 649 600 basechar 0
LayerCount: 2
Fore
SplineSet
442.116 303 m 0
 472.927 333.865 502.578 355.832 559.927 354 c 0
 626.737 351.865 790.229 133.585 671.737 102.865 c 0
 590.737 81.8652 599.737 444.865 649.927 600 c 0
340.927 600 m 0
 280.927 513.865 112.927 540.865 130.927 408.865 c 0
 151.476 258.175 375.024 451.367 442.116 303 c 0
 472.927 234.865 403.062 119.813 289.927 108.865 c 0
 196.927 99.8652 70.6602 133.306 139.927 174.865 c 0
 289.927 264.865 239.737 0 361.927 0 c 0
 422.327 0 464.737 21.8652 491.737 81.8652 c 0
0 600 m 1
 833 600 l 1
EndSplineSet
Substitution2: "IT forms-1" jhi
EndChar

StartChar: Ja
Encoding: 20 2334 20
Width: 808
VWidth: 0
Flags: W
AnchorPoint: "anusvara" 550 800 basechar 0
AnchorPoint: "eT" 651 600 basechar 0
LayerCount: 2
Fore
SplineSet
460 293.28 m 0
 534 291.281 671.252 229.28 687.252 119.28 c 0
 694.831 67.1729 665.252 0 624 0 c 0
 532.22 0 648.22 452 651 600 c 0
226 409.28 m 0
 270 463.281 414.956 471.341 447.748 391 c 0
 486.112 297.008 428.927 168.317 327.748 160 c 0
 246 153.281 161.253 212.562 120 277.28 c 0
0 600 m 1
 808 600 l 1
EndSplineSet
Substitution2: "IT forms-1" Ji
EndChar

StartChar: Ta
Encoding: 21 2335 21
Width: 639
VWidth: 0
Flags: W
AnchorPoint: "anusvara" 480 800 basechar 0
AnchorPoint: "eT" 510 600 basechar 0
LayerCount: 2
Fore
SplineSet
510.662 600 m 0
 470.663 548.996 456.906 514.081 456.615 453 c 0
 456.071 338.865 551.945 270.576 508.589 164.996 c 0
 465.686 60.5186 394.59 0 270.59 0 c 0
 134.76 0 36.5898 180.996 222.59 312.996 c 0
0 600 m 1
 639 600 l 1
EndSplineSet
Substitution2: "IT forms-1" Ti
EndChar

StartChar: Da
Encoding: 23 2337 23
Width: 693
VWidth: 0
Flags: W
AnchorPoint: "anusvara" 400 800 basechar 0
AnchorPoint: "eT" 468 600 basechar 0
LayerCount: 2
Fore
SplineSet
468 600 m 0
 366 570 293 470 309 390 c 0
 317.385 348.075 367.029 300.499 439 324 c 0
 537 356 573 314 573 198 c 0
 573 67.2139 505.115 0 352.885 0 c 0
 161.115 0 130 210 120 420 c 0
0 600 m 1
 693 600 l 1
EndSplineSet
Substitution2: "IT forms-1" Di
EndChar

StartChar: Dha
Encoding: 24 2338 24
Width: 790
VWidth: 0
Flags: W
AnchorPoint: "anusvara" 450 800 basechar 0
AnchorPoint: "eT" 459 600 basechar 0
LayerCount: 2
Fore
SplineSet
459 600 m 0
 485.821 585.602 516 540.602 465 501.602 c 0
 287.16 365.609 120 381.602 120 204.602 c 0
 120 95.1797 184.657 59.7812 267 51.6016 c 0
 392.935 39.0918 429.835 155.512 573 159.602 c 0
 678.001 162.602 714.001 0 603 0 c 0
 519.001 0 474 63.6016 438 108.602 c 0
0 600 m 1
 790 600 l 1
EndSplineSet
Substitution2: "IT forms-1" Dhi
EndChar

StartChar: Na
Encoding: 25 2339 25
Width: 707
VWidth: 0
Flags: W
AnchorPoint: "anusvara" 500 800 basechar 0
AnchorPoint: "eT" 536.148 600 basechar 0
LayerCount: 2
Fore
SplineSet
535.931 600 m 0
 517.931 440.825 492.931 0 567.931 0 c 0
 605.931 0 617.931 34.8252 627.931 72.8252 c 0
132.712 600 m 0
 159.657 476 31.6572 190 253.539 190 c 0
 308.755 190 387.154 278.08 391.539 338 c 0
 397.539 420 293.31 428.167 293.539 408 c 0
 295.539 232 383.539 482 380.713 600 c 0
0 600 m 1
 707 600 l 1
EndSplineSet
Substitution2: "IT forms-1" Ni
EndChar

StartChar: ta
Encoding: 26 2340 26
Width: 730
VWidth: 0
Flags: W
AnchorPoint: "anusvara" 500 800 basechar 0
AnchorPoint: "eT" 485 600 basechar 0
LayerCount: 2
Fore
SplineSet
325.692 0 m 0
 170.251 0 99.2715 110.579 125.252 225.272 c 0
 156.151 361.68 294.849 332.844 422.252 426.272 c 0
 512.251 492.272 503.251 537.272 484.692 600 c 5
 557.251 531.272 446.251 0 574.692 0 c 0
 602.251 0 635.251 33.2725 650.252 66.2725 c 0
0 600 m 1
 730 600 l 1
EndSplineSet
Substitution2: "IT forms-1" ti
EndChar

StartChar: tha
Encoding: 27 2341 27
Width: 861
VWidth: 0
Flags: W
AnchorPoint: "anusvara" 550 800 basechar 0
AnchorPoint: "eT" 660 600 basechar 0
LayerCount: 2
Fore
SplineSet
336.212 370.218 m 0
 213.001 332.435 120 377.435 120 449.436 c 0
 120 507.03 177.001 600 246.212 600 c 0
 351.001 600 182.943 354.181 217.606 202.782 c 0
 233.211 134.63 289.395 96 361.606 96 c 0
 430.104 96 475.606 132 462.212 223.218 c 1
 486.213 136.217 510.212 0 612.424 0 c 0
 705.212 0 741.212 85.0469 741.212 190.218 c 0
 741.212 289.217 650.336 355.088 627.424 471 c 0
 617.358 521.924 633.213 559.218 660.212 600 c 0
0 600 m 1
 861 600 l 1
EndSplineSet
Substitution2: "Devanagari-like forms-1" tha.alt
Substitution2: "IT forms-1" thi
EndChar

StartChar: da
Encoding: 28 2342 28
Width: 722
VWidth: 0
Flags: W
AnchorPoint: "anusvara" 400 800 basechar 0
AnchorPoint: "eT" 581.966 601.927 basechar 0
LayerCount: 2
Fore
SplineSet
284.429 600 m 0
 172.429 533.927 83.7725 417.704 134.772 345.704 c 0
 184.789 275.091 345.96 277.05 347.772 318.704 c 0
 350.772 387.704 170.772 318.704 185.772 189.704 c 0
 203.169 40.083 300.938 0 476.772 0 c 0
 674.772 0 593.772 237.704 539.772 417.704 c 0
 510.421 515.54 506.772 567.704 581.772 600 c 0
0 600 m 1
 722 600 l 1
EndSplineSet
Substitution2: "Devanagari-like forms-1" da.alt
Substitution2: "IT forms-1" di
EndChar

StartChar: dha
Encoding: 29 2343 29
Width: 715
VWidth: 0
Flags: W
AnchorPoint: "anusvara" 460 800 basechar 0
AnchorPoint: "eT" 500 600 basechar 0
LayerCount: 2
Fore
SplineSet
80 488.129 m 0
 111.413 456.33 228.346 422.414 300 470.129 c 0
 345.412 500.368 318.771 600 248 600 c 0
 176 600 160.8 450.491 198 364.129 c 0
 226.02 299.081 300 290.128 372 312.129 c 1
 276 286.128 193.538 203.923 214 104.129 c 0
 233.209 10.4473 327.413 0 436 0 c 0
 556.521 0 584.869 68.5312 594 154.129 c 0
 612.849 330.839 472 390.129 500 600 c 0
0 600 m 5
 715 600 l 1
EndSplineSet
Substitution2: "Devanagari-like forms-1" dha.alt
Substitution2: "IT forms-1" dhi
EndChar

StartChar: na
Encoding: 30 2344 30
Width: 585
VWidth: 0
Flags: W
AnchorPoint: "anusvara" 350 800 basechar 0
AnchorPoint: "eT" 465 600 basechar 0
LayerCount: 2
Fore
SplineSet
233.787 576.437 m 0
 239.189 522 185.189 488 149.959 504 c 0
 109.037 522.585 107.189 600 162.212 600 c 0
 297.786 600 335.189 388 369.189 234 c 0
 386.915 153.714 365.188 0 277.189 0 c 0
 237.188 0 199.816 40.3291 209.189 108.437 c 0
 239.188 326.437 373.188 536.437 465.188 600 c 0
0 600 m 5
 585 600 l 5
EndSplineSet
Substitution2: "IT forms-1" ni
EndChar

StartChar: pa
Encoding: 31 2346 31
Width: 738
VWidth: 0
Flags: W
AnchorPoint: "anusvara" 400 800 basechar 0
AnchorPoint: "eT" 554 600 basechar 0
LayerCount: 2
Fore
SplineSet
156 600 m 0
 170 580.936 176.737 558.968 176 530.936 c 0
 174 454.936 120 420.937 120 302.936 c 0
 120 229.599 166.377 166.936 238 166.936 c 0
 307.463 166.936 385.259 219.456 339.463 258.936 c 0
 281.463 308.936 276 0 484 0 c 0
 778 0 489.463 392.936 554 600 c 0
0 600 m 1
 738 600 l 1
EndSplineSet
Substitution2: "Devanagari-like forms-1" pa.alt
Substitution2: "IT forms-1" pi
EndChar

StartChar: pha
Encoding: 32 2347 32
Width: 879
VWidth: 0
Flags: W
AnchorPoint: "anusvara" 500 800 basechar 0
AnchorPoint: "eT" 759 600 basechar 0
LayerCount: 2
Fore
SplineSet
129.724 600 m 0
 101.724 508.936 129.988 256.35 269.977 252.936 c 0
 433.977 248.936 429.977 600 411.977 600 c 0
 375.977 600 442.977 0 399.977 0 c 0
 372.977 0 375.977 183 474.724 183 c 0
 799.729 183 733.724 0 711.724 0 c 0
 659.724 0 660.173 495 759.173 600 c 0
0 600 m 1
 879 600 l 1
EndSplineSet
Substitution2: "IT forms-1" phi
EndChar

StartChar: ba
Encoding: 33 2348 33
Width: 756
VWidth: 0
Flags: W
AnchorPoint: "anusvara" 400 800 basechar 0
AnchorPoint: "eT" 577 600 basechar 0
LayerCount: 2
Fore
SplineSet
636.847 93 m 0
 561.847 24 525.847 0 375.847 0 c 0
 313.847 0 172.84 15.9473 157.117 139.983 c 0
 139.117 281.983 181.118 333.982 321.117 389.983 c 1
 199.117 331.983 139.117 377.983 122.588 447 c 0
 106.521 514.087 167.118 565.983 253.117 600 c 0
577.5 600 m 0
 532.5 585 533 537 527 396 c 0
 521.731 272.201 516.019 166.335 509 19.5 c 0
0 600 m 1
 756 600 l 1
EndSplineSet
Substitution2: "IT forms-1" bi
EndChar

StartChar: bha
Encoding: 34 2349 34
Width: 750
VWidth: 0
Flags: W
AnchorPoint: "anusvara" 420 800 basechar 0
AnchorPoint: "eT" 589 600 basechar 0
LayerCount: 2
Fore
SplineSet
390.263 528 m 0
 336.263 488 242.629 416.018 150.263 450 c 0
 93.0166 471.062 122.126 600 194.562 600 c 0
 289.837 600 300.604 332.584 244.562 152 c 0
 226.562 94 163.222 97.0596 142.562 130 c 0
 121.771 163.148 165.208 203.354 226.562 222 c 0
 430.562 284 714.562 600 588.562 600 c 0
 534.562 600 553.837 0 604.837 0 c 0
 644.562 0 662.562 32 670.562 56 c 0
0 600 m 1
 750 600 l 1
EndSplineSet
Substitution2: "IT forms-1" bhi
EndChar

StartChar: ma
Encoding: 35 2350 35
Width: 752
VWidth: 0
Flags: W
AnchorPoint: "anusvara" 400 800 basechar 0
AnchorPoint: "eT" 589 600 basechar 0
LayerCount: 2
Fore
SplineSet
142.585 600 m 0
 195.657 510.141 256.585 0 172.585 0 c 0
 38.9277 0 169.585 186.141 456.657 186.141 c 0
 672.657 186.141 660.657 0 574.585 0 c 0
 438.657 0 535.585 525.141 588.657 600 c 4
0 600 m 1
 752 600 l 1
EndSplineSet
Substitution2: "Devanagari-like forms-1" ma.alt
Substitution2: "IT forms-1" mi
EndChar

StartChar: ya
Encoding: 36 2351 36
Width: 703
VWidth: 0
Flags: W
AnchorPoint: "anusvara" 400 800 basechar 0
AnchorPoint: "eT" 583 600 basechar 0
LayerCount: 2
Fore
SplineSet
139.422 424.897 m 0
 193.421 338.897 338.445 350.13 361.422 426 c 0
 390.16 520.897 358.68 600 279.422 600 c 0
 141.421 600 107.609 367.269 123.683 201 c 0
 134.692 87.1035 221.421 0 337.422 0 c 0
 621.421 0 567.421 222.898 553.421 340.897 c 0
 541.158 444.26 553.42 570.897 583.421 600 c 4
0 600 m 1
 703 600 l 1
EndSplineSet
Substitution2: "Devanagari-like forms-1" ya.alt
Substitution2: "IT forms-1" yi
EndChar

StartChar: ra
Encoding: 37 2352 37
Width: 689
VWidth: 0
Flags: W
AnchorPoint: "anusvara" 500 800 basechar 0
AnchorPoint: "eT" 507 600 basechar 0
LayerCount: 2
Fore
SplineSet
507 600 m 4
 525.72 420.99 600.813 278.941 555 141 c 0
 520.465 37.0166 444.813 0 312 0 c 0
 210.945 0 164.813 100.941 120 174 c 0
0 600 m 1
 689 600 l 1
EndSplineSet
Substitution2: "ura5-1" ra.postu5
Substitution2: "ura4-1" ra.postu4
Substitution2: "ura3-1" ra.postu3
Substitution2: "ura2-1" ra.postu2
Substitution2: "ura1-1" ra.postu1
Substitution2: "kaara ligated forms-1" kAra
Substitution2: "kara ligated forms-1" kara
Substitution2: "Rounded ra-1" ra.round
Substitution2: "post-aa forms-1" ra.postaa
Substitution2: "post-sa forms-1" ra.postsa
Substitution2: "Devanagari-like forms-1" ra.alt
Substitution2: "IT forms-1" ri
EndChar

StartChar: la
Encoding: 38 2354 38
Width: 685
VWidth: 0
Flags: W
AnchorPoint: "anusvara" 400 800 basechar 0
AnchorPoint: "eT" 537 600 basechar 0
LayerCount: 2
Fore
SplineSet
163.3 600 m 0
 124.798 557.812 102.212 486.27 137.802 429 c 0
 224.36 289.715 372.102 289.804 446.798 143.812 c 0
 476.888 85.002 450.798 0 357.3 0 c 0
 270.428 0 247.04 80.2686 272.798 137.812 c 0
 336.588 280.321 471.357 292.236 548.798 427.812 c 0
 582.186 486.265 556.798 545.812 536.798 600 c 0
0 600 m 1
 685 600 l 1
EndSplineSet
Substitution2: "IT forms-1" li
EndChar

StartChar: va
Encoding: 39 2357 39
Width: 746
VWidth: 0
Flags: W
AnchorPoint: "anusvara" 400 800 basechar 0
AnchorPoint: "eT" 567 600 basechar 0
LayerCount: 2
Fore
SplineSet
174.936 600 m 0
 135.936 457.5 107.533 237 125.533 156 c 0
 149.75 47.0234 232.327 0 365.533 0 c 0
 515.533 0 551.533 24 626.533 93 c 0
567.186 600 m 0
 522.186 585 522.686 537 516.686 396 c 0
 511.418 272.201 505.705 166.335 498.686 19.5 c 0
0 600 m 1
 746 600 l 1
EndSplineSet
Substitution2: "IT forms-1" vi
EndChar

StartChar: za
Encoding: 40 2358 40
Width: 797
VWidth: 0
Flags: W
AnchorPoint: "anusvara" 400 800 basechar 0
AnchorPoint: "eT" 625 600 basechar 0
LayerCount: 2
Fore
SplineSet
625.216 600 m 0
 607.216 440.825 582.216 0 657.216 0 c 0
 695.216 0 707.216 34.8252 717.216 72.8252 c 0
194.423 600 m 0
 304.423 564 304.423 380 199.216 328 c 0
 154.964 306.128 91.2158 380 133.216 436 c 0
 192.368 514.869 389.086 504.467 384.216 406 c 0
 374.423 208 193.426 251.496 175.216 112 c 0
 165.521 37.7334 235.216 0 331.216 0 c 0
 423.601 0 457.216 88 498.216 168 c 0
0 600 m 1
 797 600 l 1
EndSplineSet
Substitution2: "IT forms-1" zi
EndChar

StartChar: Sa
Encoding: 41 2359 41
Width: 575
VWidth: 0
Flags: W
AnchorPoint: "anusvara" 350 800 basechar 0
AnchorPoint: "eT" 444 600 basechar 0
LayerCount: 2
Fore
SplineSet
159.091 558 m 1
 407.437 346.713 l 1
444.091 600 m 0
 445.396 366 399.438 0 447.437 0 c 0
 479.438 0 483.438 30.7129 495.437 62.7129 c 0
126.091 600 m 0
 132.075 497.318 100.346 431.004 141.437 336.713 c 0
 171.679 267.316 217.914 210.827 293.437 216 c 0
 370.669 221.29 409.438 300.713 433.437 356.713 c 0
0 600 m 1
 575 600 l 1
EndSplineSet
Substitution2: "IT forms-1" Si
EndChar

StartChar: sa
Encoding: 42 2360 42
Width: 817
VWidth: 0
Flags: W
AnchorPoint: "anusvara" 450 800 basechar 0
AnchorPoint: "eT" 491 600 basechar 0
LayerCount: 2
Fore
SplineSet
151.704 600 m 0
 220.704 440.356 94.7041 341.356 124.704 182.356 c 0
 143.08 84.9629 160.704 0 301.704 0 c 0
 473.69 0 532.704 104.356 586.704 366 c 0
 606.643 462.605 586.704 600 490.704 600 c 0
 412.704 600 372.779 476.487 409.704 431.356 c 0
 463.704 365.356 481.704 377.356 697.704 438 c 0
0 600 m 1
 817 600 l 1
EndSplineSet
Substitution2: "IT forms-1" si
EndChar

StartChar: ha
Encoding: 43 2361 43
Width: 644
VWidth: 0
Flags: W
AnchorPoint: "anusvara" 350 800 basechar 0
AnchorPoint: "eT" 428.38 600 basechar 0
LayerCount: 2
Fore
SplineSet
212.212 600 m 0
 163.487 550 127.118 498.255 146.808 430 c 0
 161.887 377.728 204.251 355.999 276.251 378 c 1
 180.251 351.999 100.426 258.189 124.251 156 c 0
 149.608 47.2393 226.251 0 364.38 0 c 0
 484.901 0 513.249 68.5312 522.38 154.129 c 0
 541.229 330.839 400.38 390.129 428.38 600 c 0
0 600 m 1
 644 600 l 1
EndSplineSet
Substitution2: "IT forms-1" hi
EndChar

StartChar: La
Encoding: 44 2355 44
Width: 808
VWidth: 0
Flags: W
AnchorPoint: "anusvara" 420 800 basechar 0
AnchorPoint: "eT" 446 600 basechar 0
LayerCount: 2
Fore
SplineSet
363.383 323.999 m 0
 330.384 377.999 323.385 398.999 268.737 398.999 c 0
 58.5811 398.999 106.581 0 197.176 0 c 0
 516.845 0 288.384 399 612.383 399 c 0
 721.581 399 730.581 0 520.737 0 c 0
 361.738 0 409.43 170.997 406.581 282 c 0
 403.425 405 421.581 507 445.581 600 c 0
0 600 m 1
 808 600 l 1
EndSplineSet
Substitution2: "IT forms-1" Li
EndChar

StartChar: kSa
Encoding: 45 -1 45
Width: 779
VWidth: 0
Flags: W
AnchorPoint: "anusvara" 500 800 basechar 0
AnchorPoint: "eT" 620 600 basechar 0
LayerCount: 2
Fore
SplineSet
391.926 491.363 m 0
 595.926 170.363 645.852 600 621.852 600 c 0
 579.852 600 585.852 0 648.852 0 c 0
 673.197 0 687.852 0 699.852 36 c 0
286.926 431.363 m 0
 145.926 533.363 187.926 689.363 280.926 695.363 c 0
 412.788 703.871 442.926 560.363 391.926 491.363 c 0
 314.24 386.26 186.852 456 126.852 264 c 0
 99.1406 175.326 158.551 77.1758 249.852 60 c 0
 338.925 43.2441 388.282 126.46 429.852 207 c 0
 446.417 239.096 344.515 282.094 345.852 246 c 0
 348.852 165 390.852 84 504.852 0 c 0
0 600 m 1
 779 600 l 1
EndSplineSet
LCarets2: 2 0 0 
Substitution2: "IT forms-1" kSi
Ligature2: "Akhand ligatures-1" ka virAma Sa
EndChar

StartChar: AT
Encoding: 47 2366 47
Width: 260
VWidth: 0
Flags: W
AnchorPoint: "eT" 88.709 600 basechar 0
AnchorPoint: "anusvara" 103.709 800 basechar 0
LayerCount: 2
Fore
SplineSet
88.9248 600 m 0
 70.9248 440.825 45.9248 0 120.925 0 c 0
 158.925 0 170.925 34.8252 180.925 72.8252 c 0
0 600 m 1
 260 600 l 1
EndSplineSet
EndChar

StartChar: IT
Encoding: 49 2368 49
Width: 344
VWidth: 0
Flags: W
AnchorPoint: "anusvara" 200 800 basechar 0
LayerCount: 2
Fore
SplineSet
-198 600 m 0
 -171 681 -128.872 759 -42 759 c 0
 129 759 339 0 117 0 c 0
 -12 0 123 456 264 600 c 0
0 600 m 5
 344 600 l 5
EndSplineSet
EndChar

StartChar: uT
Encoding: 50 2369 50
Width: 0
VWidth: 0
Flags: W
LayerCount: 2
Fore
SplineSet
-519 -114 m 17
 -453 -192 -414.742 -281.621 -306 -300 c 24
 -213.098 -315.702 -96 -276 -93 -186 c 0
 -91.5866 -143.597 -139.989 -81 -217.989 -81 c 0
 -260.79 -81 -273.989 -108.176 -285.989 -126.176 c 9
EndSplineSet
EndChar

StartChar: RT
Encoding: 52 2371 52
Width: 0
VWidth: 0
Flags: W
LayerCount: 2
Fore
SplineSet
-29.9854 -290.176 m 21
 -197.985 -336.176 -303 -276 -306 -186 c 0
 -307.413 -143.597 -259.011 -81 -181.011 -81 c 0
EndSplineSet
EndChar

StartChar: eT
Encoding: 53 2375 53
Width: 0
VWidth: 0
Flags: W
AnchorPoint: "eT" -100 600 mark 0
LayerCount: 2
Fore
SplineSet
-450 900 m 17
 -404 814 -261 645 -100 600 c 9
EndSplineSet
EndChar

StartChar: aiT
Encoding: 54 2376 54
Width: 0
VWidth: 0
Flags: W
AnchorPoint: "eT" -100 600 mark 0
LayerCount: 2
Fore
SplineSet
-450 900.8 m 17
 -464 830.6 -433.745 763.951 -368 747.8 c 0
 -270.304 723.8 -201.305 795.8 -204.305 837.8 c 0
 -206.224 864.667 -216.305 879.8 -255.305 879.8 c 0
 -358.774 879.8 -287 657.8 -100 600 c 9
EndSplineSet
EndChar

StartChar: virAma
Encoding: 57 2381 57
Width: 0
VWidth: 0
Flags: W
LayerCount: 2
Fore
SplineSet
-414.492 -114 m 17
 -288.493 -149 -191.985 -228.176 -117.985 -300 c 0
EndSplineSet
EndChar

StartChar: anusvAra
Encoding: 58 2306 58
Width: 0
VWidth: 0
Flags: W
AnchorPoint: "anusvara" -100 800 mark 0
LayerCount: 2
Fore
SplineSet
-81 813.5 m 25
 -123 783.5 l 25
EndSplineSet
EndChar

StartChar: visarga
Encoding: 59 2307 59
Width: 242
VWidth: 0
Flags: W
LayerCount: 2
Fore
SplineSet
0 600 m 1
 242 600 l 1
EndSplineSet
Refer: 58 2306 N 1 0 0 1 203 -630 2
Refer: 58 2306 N 1 0 0 1 203 -408 2
EndChar

StartChar: kA
Encoding: 60 -1 60
Width: 881
VWidth: 0
Flags: W
AnchorPoint: "anusvara" 600 800 basechar 0
AnchorPoint: "eT" 717 600 basechar 0
LayerCount: 2
Fore
SplineSet
331 600 m 0
 231.999 564 145.513 492.475 121.419 375 c 0
 105.029 295.09 235.757 291.075 251.212 210.979 c 0
 265.15 138.741 252.553 33.4893 187.315 33.4893 c 0
 147.212 33.4893 109.26 89.5254 130.315 126.489 c 0
 149.375 159.949 254.171 206 376 206 c 0
 532 206 463.349 15.6622 442 46 c 4
 252 316 726 196 753.315 111.489 c 4
 774.667 45.4285 760.292 0 693.315 0 c 4
 591.315 0 607.315 467.489 715.315 600 c 4
0 600 m 1
 881 600 l 1
EndSplineSet
Substitution2: "kaara ligated forms-1" void
LCarets2: 1 0 
Ligature2: "AT ligatures-1" ka AT
EndChar

StartChar: khA
Encoding: 61 -1 61
Width: 960
VWidth: 0
Flags: W
AnchorPoint: "anusvara" 700 800 basechar 0
AnchorPoint: "eT" 820 601.927 basechar 0
LayerCount: 2
Fore
SplineSet
120 600 m 0
 181.806 648.704 201.611 661.408 265.806 660.704 c 0
 351.019 659.77 332.879 594.665 313.806 552.704 c 0
 283.806 486.704 121.806 417.704 172.806 345.704 c 0
 222.823 275.091 383.994 277.05 385.806 318.704 c 0
 388.806 387.704 208.806 318.704 223.806 189.704 c 0
 241.203 40.083 302.462 0 431.463 0 c 0
 502.39 0 490.639 174.575 542.463 222 c 0
 577.984 254.507 809.462 249 830.463 144 c 0
 841.185 90.3892 862 0 760 0 c 0
 651.973 0 716.756 363.192 722.463 402 c 0
 737.462 504 744.806 567.704 819.806 600 c 0
0 600 m 1
 960 600 l 1
EndSplineSet
LCarets2: 1 0 
Ligature2: "AT ligatures-1" kha AT
EndChar

StartChar: cA
Encoding: 65 -1 65
Width: 803
VWidth: 0
Flags: W
AnchorPoint: "anusvara" 400 800 basechar 0
AnchorPoint: "eT" 491 600 basechar 0
LayerCount: 2
Fore
SplineSet
193.321 210 m 0
 317.321 110 286.037 0 178.038 0 c 0
 146.037 0 120.879 35.5713 120.038 53.6621 c 0
 116.037 139.662 426.771 79.5908 476.038 251.662 c 0
 495.032 318 408.038 397.662 284.038 405.662 c 1
 342.081 403.324 405.946 417.822 450.038 477.662 c 0
 478.038 515.662 416 600 492 600 c 4
 752 600 704 188 598 0 c 4
0 600 m 1
 803 600 l 1
EndSplineSet
LCarets2: 1 0 
Ligature2: "AT ligatures-1" ca AT
EndChar

StartChar: jA
Encoding: 67 -1 67
Width: 823
VWidth: 0
Flags: W
AnchorPoint: "anusvara" 470.945 800 basechar 0
AnchorPoint: "eT" 659.945 600 basechar 0
LayerCount: 2
Fore
SplineSet
317.015 444 m 0
 291.241 398.925 235.927 367.418 183.277 386 c 0
 68.3711 426.555 129.241 600 213.53 600 c 0
 417.191 600 327.53 0 243.53 0 c 0
 181.191 0 240.53 186.141 527.603 186.141 c 0
 743.603 186.141 731.603 0 645.53 0 c 0
 509.603 0 606.53 525.141 659.603 600 c 0
0 600 m 1
 823 600 l 1
EndSplineSet
LCarets2: 1 0 
Ligature2: "AT ligatures-1" ja AT
EndChar

StartChar: jhA
Encoding: 68 -1 68
Width: 1033
VWidth: 0
Flags: W
AnchorPoint: "anusvara" 750 800 basechar 0
AnchorPoint: "eT" 849 600 basechar 0
LayerCount: 2
Fore
SplineSet
442.116 303 m 0
 450.762 311.661 474.636 322.03 506.828 326.553 c 0
 680.828 351 701.987 131.469 662.828 144 c 0
 512.828 192 665.828 354 759.927 354 c 0
 826.771 354 990.229 133.585 871.737 102.865 c 0
 790.737 81.8652 799.737 444.865 849.927 600 c 0
340.927 600 m 0
 280.927 513.865 112.927 540.865 130.927 408.865 c 0
 151.476 258.175 375.024 451.367 442.116 303 c 0
 472.927 234.865 403.062 119.813 289.927 108.865 c 0
 196.927 99.8652 70.6602 133.306 139.927 174.865 c 0
 289.927 264.865 239.737 0 361.927 0 c 0
 422.327 0 464.737 21.8652 491.737 81.8652 c 0
0 600 m 1
 1033 600 l 1
EndSplineSet
LCarets2: 1 0 
Ligature2: "AT ligatures-1" jha AT
EndChar

StartChar: JA
Encoding: 69 -1 69
Width: 1008
VWidth: 0
Flags: W
AnchorPoint: "anusvara" 750 800 basechar 0
AnchorPoint: "eT" 851 600 basechar 0
LayerCount: 2
Fore
SplineSet
460 293.28 m 0
 475.844 292.852 503.902 290.474 538 283.862 c 0
 692 254 655.488 49.5381 584 60 c 0
 502 72 606 274 758 224.814 c 0
 828.357 202.047 881.054 161.894 887.252 119.28 c 0
 894.831 67.1729 865.252 0 824 0 c 0
 732.22 0 848.22 452 851 600 c 0
226 409.28 m 0
 270 463.281 414.956 471.341 447.748 391 c 0
 486.112 297.008 428.927 168.317 327.748 160 c 0
 246 153.281 161.253 212.562 120 277.28 c 0
0 600 m 1
 1008 600 l 1
EndSplineSet
LCarets2: 1 0 
Ligature2: "AT ligatures-1" Ja AT
EndChar

StartChar: TA
Encoding: 70 -1 70
Width: 839
VWidth: 0
Flags: W
AnchorPoint: "anusvara" 680 800 basechar 0
AnchorPoint: "eT" 710 600 basechar 0
LayerCount: 2
Fore
SplineSet
710.662 600 m 0
 670.663 548.996 665.248 535.148 650 476 c 0
 621.385 365 518 0 654 0 c 0
 696.173 0 728 192 622 192 c 0
 511.982 192 491.239 173.662 466 134 c 0
 410 46 330.583 -1.90735e-06 270.59 0 c 0
 134.76 0 36.5898 180.996 222.59 312.996 c 0
0 600 m 1
 839 600 l 1
EndSplineSet
LCarets2: 1 0 
Ligature2: "AT ligatures-1" Ta AT
EndChar

StartChar: nA
Encoding: 79 -1 79
Width: 772
VWidth: 0
Flags: W
AnchorPoint: "anusvara" 419.627 800 basechar 0
AnchorPoint: "eT" 608.627 600 basechar 0
LayerCount: 2
Fore
SplineSet
222.4 564 m 0
 227.802 509.562 185.188 488 149.959 504 c 0
 109.037 522.585 107.188 600 162.212 600 c 0
 365.873 600 276.212 0 192.212 0 c 0
 129.873 0 276.4 186.141 476.284 186.141 c 0
 692.284 186.141 680.284 0 594.212 0 c 0
 458.284 0 555.212 525.141 608.284 600 c 0
0 600 m 1
 772 600 l 1
EndSplineSet
LCarets2: 1 0 
Ligature2: "AT ligatures-1" na AT
EndChar

StartChar: phA
Encoding: 81 -1 81
Width: 1079
VWidth: 0
Flags: W
AnchorPoint: "anusvara" 700 800 basechar 0
AnchorPoint: "eT" 959 600 basechar 0
LayerCount: 2
Fore
SplineSet
129.724 600 m 0
 101.724 508.936 129.988 256.35 269.977 252.936 c 0
 433.977 248.936 429.977 600 411.977 600 c 0
 375.977 600 442.977 0 399.977 0 c 0
 372.977 0 375.977 183 474.724 183 c 0
 649.587 183 760.587 0 685.587 0 c 0
 574.587 0 595.587 204 799.587 150 c 0
 894.012 125.005 923.594 9.53674e-07 911.724 0 c 0
 859.724 0 860.173 495 959.173 600 c 0
0 600 m 1
 1079 600 l 1
EndSplineSet
LCarets2: 1 0 
Ligature2: "AT ligatures-1" pha AT
EndChar

StartChar: bA
Encoding: 82 -1 82
Width: 797
VWidth: 0
Flags: W
AnchorPoint: "anusvara" 450 800 basechar 0
AnchorPoint: "eT" 627 600 basechar 0
LayerCount: 2
Fore
SplineSet
253.117 600 m 0
 167.118 565.983 106.521 514.087 122.588 447 c 0
 139.117 377.983 199.117 331.983 321.117 389.983 c 1
 181.118 333.982 139.117 281.983 157.117 139.983 c 0
 172.84 15.9473 313.847 0 375.847 0 c 0
 438.595 0 370.512 166 472.424 166 c 4
 559.49 166 594.912 172.935 630 144 c 4
 689.044 95.3105 700.796 0 618 0 c 4
 582 0 571.731 272.201 577 396 c 4
 583 537 582.5 585 627.5 600 c 4
0 600 m 1
 797 600 l 1
EndSplineSet
LCarets2: 1 0 
Ligature2: "AT ligatures-1" ba AT
EndChar

StartChar: bhA
Encoding: 83 -1 83
Width: 881
VWidth: 0
Flags: W
AnchorPoint: "anusvara" 600 800 basechar 0
AnchorPoint: "eT" 717 600 basechar 0
LayerCount: 2
Fore
SplineSet
390.263 528 m 0
 336.263 488 242.629 416.018 150.263 450 c 0
 93.0166 471.062 122.126 600 194.562 600 c 0
 289.837 600 261.239 402 251.213 210.979 c 0
 247.357 137.51 252.553 33.4893 187.315 33.4893 c 0
 147.212 33.4893 109.26 89.5254 130.315 126.489 c 0
 149.375 159.949 254.171 206 376 206 c 0
 532 206 463.349 15.6622 442 46 c 0
 252 316 726 196 753.315 111.489 c 0
 774.667 45.4285 760.292 0 693.315 0 c 0
 591.315 0 607.315 467.489 715.315 600 c 0
0 600 m 1
 881 600 l 1
EndSplineSet
LCarets2: 1 0 
Ligature2: "AT ligatures-1" bha AT
EndChar

StartChar: mA
Encoding: 84 -1 84
Width: 753
VWidth: 0
Flags: W
AnchorPoint: "anusvara" 434.631 800 basechar 0
AnchorPoint: "eT" 623.631 600 basechar 0
LayerCount: 2
Fore
SplineSet
220 600 m 0
 249.66 584 302 582 312 488 c 0
 322.376 390.469 196 348 120 330 c 1
 206 348 338 318 349.661 234 c 0
 368.79 96.209 337.969 0 296 0 c 0
 162.343 0 344.877 186.141 491.288 186.141 c 0
 658 186.141 648 0 609.216 0 c 0
 473.288 0 570.216 525.141 623.288 600 c 0
0 600 m 1
 753 600 l 1
EndSplineSet
Substitution2: "Devanagari-like forms-1" mA.alt
LCarets2: 1 0 
Ligature2: "AT ligatures-1" ma AT
EndChar

StartChar: yA
Encoding: 85 -1 85
Width: 882
VWidth: 0
Flags: W
AnchorPoint: "anusvara" 465.189 800 basechar 0
AnchorPoint: "eT" 724.189 600 basechar 0
LayerCount: 2
Fore
SplineSet
177.167 600 m 0
 141.167 600 208.167 0 165.167 0 c 0
 69.3145 0 141.167 252 239.914 252 c 0
 414.776 252 525.776 0 450.776 0 c 0
 339.776 0 372.695 273.089 579.481 231 c 0
 805.481 185 801.481 0 676.913 0 c 0
 624.913 0 625.362 495 724.362 600 c 0
0 600 m 1
 882 600 l 1
EndSplineSet
Substitution2: "Devanagari-like forms-1" yA.alt
LCarets2: 1 0 
Ligature2: "AT ligatures-1" ya AT
EndChar

StartChar: lA
Encoding: 87 -1 87
Width: 824
VWidth: 0
Flags: W
AnchorPoint: "anusvara" 472.027 800 basechar 0
AnchorPoint: "eT" 661.027 600 basechar 0
LayerCount: 2
Fore
SplineSet
158.273 600 m 0
 119.771 557.812 108.524 491.915 132.775 429 c 0
 181.741 301.963 299.766 275.556 334.11 143.812 c 0
 350.774 79.8877 338.11 0 244.612 0 c 0
 110.955 0 241.612 186.141 528.685 186.141 c 0
 744.684 186.141 732.684 0 646.612 0 c 0
 510.685 0 607.612 525.141 660.684 600 c 0
0 600 m 1
 824 600 l 1
EndSplineSet
LCarets2: 1 0 
Ligature2: "AT ligatures-1" la AT
EndChar

StartChar: vA
Encoding: 88 -1 88
Width: 797
VWidth: 0
Flags: W
AnchorPoint: "eT" 627 600 basechar 0
AnchorPoint: "anusvara" 450 800 basechar 0
LayerCount: 2
Fore
SplineSet
627.5 600 m 0
 582.5 585 583 537 577 396 c 0
 571.731 272.201 582 0 618 0 c 0
 700.796 0 689.044 95.3105 630 144 c 0
 594.912 172.935 559.49 166 472.424 166 c 0
 370.512 166 404 0 365.533 0 c 0
 232.326 0 149.75 47.0234 125.532 156 c 0
 107.532 237 135.936 457.5 174.936 600 c 0
0 600 m 1
 797 600 l 1
EndSplineSet
LCarets2: 1 0 
Ligature2: "AT ligatures-1" va AT
EndChar

StartChar: sA
Encoding: 91 -1 91
Width: 916
VWidth: 0
Flags: W
AnchorPoint: "eT" 655 600 basechar 0
AnchorPoint: "anusvara" 450 800 basechar 0
LayerCount: 2
Fore
SplineSet
372 392 m 1
 684 226 l 1
151.704 600 m 0
 220.704 440.356 94.7041 341.356 124.704 182.356 c 0
 143.08 84.9629 160.704 0 301.704 0 c 0
 473.69 0 482.704 104.356 536.704 366 c 0
 556.644 462.605 580 600 656 600 c 0
 874 600 800 188 694 0 c 0
0 600 m 1
 916 600 l 1
EndSplineSet
LCarets2: 1 0 
Ligature2: "AT ligatures-1" sa AT
EndChar

StartChar: hA
Encoding: 92 -1 92
Width: 838
VWidth: 0
Flags: W
AnchorPoint: "anusvara" 445 800 basechar 0
AnchorPoint: "eT" 624.258 600 basechar 0
LayerCount: 2
Fore
SplineSet
208.09 600 m 0
 159.365 550 122.997 498.255 142.687 430 c 0
 157.765 377.728 200.129 355.999 272.129 378 c 1
 176.129 351.999 116.853 260.878 120.129 156 c 0
 122.884 67.8223 145.811 0 283.939 0 c 0
 403.939 0 439.939 56 431.939 150 c 1
 447.939 60 459.939 0 545.939 0 c 0
 661.939 0 685.939 64 705.939 126 c 0
 763.528 304.526 596.258 390.129 624.258 600 c 0
0 600 m 1
 838 600 l 1
EndSplineSet
LCarets2: 1 0 
Ligature2: "AT ligatures-1" ha AT
EndChar

StartChar: Gi
Encoding: 100 -1 100
Width: 1124
Flags: W
AnchorPoint: "anusvara" 980 800 basechar 0
LayerCount: 2
Fore
SplineSet
470.5 600 m 0
 497.5 681 539.628 759 626.5 759 c 0
 911.5 759 1119 0 897 0 c 0
 768 0 903 456 1044 600 c 0
0 600 m 5
 1124 600 l 1
468 600 m 0
 366 570 293 470 309 390 c 0
 317.385 348.075 367.029 300.499 439 324 c 0
 537 356 573 314 573 198 c 0
 573 67.2139 505.115 0 352.885 0 c 0
 161.115 0 130 210 120 420 c 0
EndSplineSet
Refer: 58 2306 N 1 0 0 1 762 -381 2
LCarets2: 1 0 
Ligature2: "IT ligatures-1" Ga IT
EndChar

StartChar: ji
Encoding: 103 -1 103
Width: 1007
Flags: W
AnchorPoint: "anusvara" 863 800 basechar 0
LayerCount: 2
Fore
SplineSet
261.655 576.438 m 0
 373.827 502 261.827 350 159.827 386 c 0
 44.9219 426.555 95.8271 600 190.08 600 c 0
 325.654 600 451.662 357.01 461.655 220.437 c 0
 467.654 138.437 443.654 0 355.655 0 c 0
 315.654 0 278.282 40.3291 287.655 108.437 c 0
 317.654 326.438 451.654 536.438 543.654 600 c 0
527.5 600 m 0
 550.848 681 587.276 759 662.396 759 c 0
 810.263 759 991.854 0 799.887 0 c 0
 688.338 0 805.074 456 927 600 c 0
0 600 m 1
 1007 600 l 1
EndSplineSet
LCarets2: 1 0 
Ligature2: "IT ligatures-1" ja IT
EndChar

StartChar: jhi
Encoding: 104 -1 104
Width: 1177
Flags: W
AnchorPoint: "anusvara" 1033 800 basechar 0
LayerCount: 2
Fore
SplineSet
442.116 303 m 0
 472.927 333.865 502.578 355.832 559.927 354 c 0
 626.737 351.865 790.229 133.585 671.737 102.865 c 0
 590.737 81.8652 599.737 444.865 649.927 600 c 0
340.927 600 m 0
 280.927 513.865 112.927 540.865 130.927 408.865 c 0
 151.476 258.175 375.024 451.367 442.116 303 c 0
 472.927 234.865 403.062 119.813 289.927 108.865 c 0
 196.927 99.8652 70.6602 133.306 139.927 174.865 c 0
 289.927 264.865 239.737 0 361.927 0 c 0
 422.327 0 464.737 21.8652 491.737 81.8652 c 0
650.5 600 m 0
 676.594 681 717.309 759 801.267 759 c 0
 966.529 759 1169.48 0 954.932 0 c 0
 830.26 0 960.73 456 1097 600 c 0
0 600 m 1
 1177 600 l 1
EndSplineSet
LCarets2: 1 0 
Ligature2: "IT ligatures-1" jha IT
EndChar

StartChar: Ji
Encoding: 105 -1 105
Width: 1152
Flags: W
AnchorPoint: "anusvara" 1008 800 basechar 0
LayerCount: 2
Fore
SplineSet
460 293.28 m 0
 534 291.281 671.252 229.28 687.252 119.28 c 0
 694.831 67.1729 665.252 0 624 0 c 0
 532.22 0 648.22 452 651 600 c 0
226 409.28 m 0
 270 463.281 414.956 471.341 447.748 391 c 0
 486.112 297.008 428.927 168.317 327.748 160 c 0
 246 153.281 161.253 212.562 120 277.28 c 0
647.5 600 m 0
 672.309 681 711.017 759 790.838 759 c 0
 947.958 759 1140.91 0 936.932 0 c 0
 818.402 0 942.445 456 1072 600 c 0
0 600 m 1
 1152 600 l 1
EndSplineSet
LCarets2: 1 0 
Ligature2: "IT ligatures-1" Ja IT
EndChar

StartChar: Ti
Encoding: 106 -1 106
Width: 983
Flags: W
AnchorPoint: "anusvara" 839 800 basechar 0
LayerCount: 2
Fore
SplineSet
510.662 600 m 0
 470.663 548.996 456.906 514.081 456.615 453 c 0
 456.071 338.865 551.945 270.576 508.589 164.996 c 0
 465.686 60.5186 394.59 0 270.59 0 c 0
 134.76 0 36.5898 180.996 222.59 312.996 c 0
509.5 600 m 0
 532.497 681 568.379 759 642.37 759 c 0
 788.017 759 966.88 0 777.796 0 c 0
 667.922 0 782.906 456 903 600 c 0
0 600 m 1
 983 600 l 1
EndSplineSet
LCarets2: 1 0 
Ligature2: "IT ligatures-1" Ta IT
EndChar

StartChar: Di
Encoding: 108 -1 108
Width: 1037
Flags: W
AnchorPoint: "anusvara" 893 800 basechar 0
LayerCount: 2
Fore
SplineSet
468 600 m 0
 366 570 293 470 309 390 c 0
 317.385 348.075 367.029 300.499 439 324 c 0
 537 356 573 314 573 198 c 0
 573 67.2139 505.115 0 352.885 0 c 0
 161.115 0 130 210 120 420 c 0
473.5 600 m 0
 501.757 681 545.845 759 636.76 759 c 0
 815.718 759 1035.49 0 803.159 0 c 0
 668.156 0 809.438 456 957 600 c 0
0 600 m 1
 1037 600 l 1
EndSplineSet
LCarets2: 1 0 
Ligature2: "IT ligatures-1" Da IT
EndChar

StartChar: Dhi
Encoding: 109 -1 109
Width: 1134
Flags: W
AnchorPoint: "anusvara" 990 800 basechar 0
LayerCount: 2
Fore
SplineSet
459 600 m 0
 485.821 585.602 516 540.602 465 501.602 c 0
 287.16 365.609 120 381.602 120 204.602 c 0
 120 95.1797 184.657 59.7812 267 51.6016 c 0
 392.935 39.0918 429.835 155.512 573 159.602 c 0
 678.001 162.602 714.001 0 603 0 c 0
 519.001 0 474 63.6016 438 108.602 c 0
479.5 600 m 0
 513.075 681 565.461 759 673.487 759 c 0
 886.127 759 1147.26 0 871.204 0 c 0
 710.792 0 878.666 456 1054 600 c 0
0 600 m 1
 1134 600 l 1
EndSplineSet
LCarets2: 1 0 
Ligature2: "IT ligatures-1" Dha IT
EndChar

StartChar: Ni
Encoding: 110 -1 110
Width: 1051
Flags: W
AnchorPoint: "anusvara" 907 800 basechar 0
LayerCount: 2
Fore
SplineSet
535.931 600 m 0
 517.931 440.825 492.931 0 567.931 0 c 0
 605.931 0 617.931 34.8252 627.931 72.8252 c 0
132.712 600 m 0
 159.657 476 31.6572 190 253.539 190 c 0
 308.755 190 387.154 278.08 391.539 338 c 0
 397.539 420 293.31 428.167 293.539 408 c 0
 295.539 232 383.539 482 380.713 600 c 0
533.5 600 m 0
 559.068 681 598.962 759 681.228 759 c 0
 843.159 759 1042.02 0 831.796 0 c 0
 709.637 0 837.478 456 971 600 c 0
0 600 m 1
 1051 600 l 1
EndSplineSet
LCarets2: 1 0 
Ligature2: "IT ligatures-1" Na IT
EndChar

StartChar: di
Encoding: 113 -1 113
Width: 1066
Flags: W
AnchorPoint: "anusvara" 922 800 basechar 0
LayerCount: 2
Fore
SplineSet
284.429 600 m 0
 172.429 533.927 83.7725 417.704 134.772 345.704 c 0
 184.789 275.091 345.96 277.05 347.772 318.704 c 0
 350.772 387.704 170.772 318.704 185.772 189.704 c 0
 203.169 40.083 300.938 0 476.772 0 c 0
 674.771 0 593.771 237.704 539.771 417.704 c 0
 510.421 515.54 506.772 567.704 581.771 600 c 0
563.5 600 m 0
 588.191 681 626.718 759 706.162 759 c 0
 862.542 759 1054.59 0 851.568 0 c 0
 733.598 0 857.056 456 986 600 c 0
0 600 m 1
 1066 600 l 1
EndSplineSet
LCarets2: 1 0 
Ligature2: "IT ligatures-1" da IT
EndChar

StartChar: ni
Encoding: 115 -1 115
Width: 929
Flags: W
AnchorPoint: "anusvara" 785 800 basechar 0
LayerCount: 2
Fore
SplineSet
233.787 576.438 m 0
 239.189 522 185.189 488 149.959 504 c 0
 109.037 522.585 107.189 600 162.212 600 c 0
 297.786 600 335.189 388 369.189 234 c 0
 386.915 153.714 365.188 0 277.189 0 c 0
 237.188 0 199.816 40.3291 209.189 108.437 c 0
 239.188 326.438 373.188 536.438 465.188 600 c 0
455.5 600 m 0
 478.497 681 514.379 759 588.37 759 c 0
 734.017 759 912.88 0 723.796 0 c 0
 613.922 0 728.906 456 849 600 c 0
0 600 m 1
 929 600 l 1
EndSplineSet
LCarets2: 1 0 
Ligature2: "IT ligatures-1" na IT
EndChar

StartChar: phi
Encoding: 117 -1 117
Width: 1223
Flags: W
AnchorPoint: "anusvara" 1079 800 basechar 0
LayerCount: 2
Fore
SplineSet
129.724 600 m 0
 101.724 508.936 129.988 256.35 269.977 252.936 c 0
 433.977 248.936 429.977 600 411.977 600 c 0
 375.977 600 442.977 0 399.977 0 c 0
 372.977 0 375.977 183 474.724 183 c 0
 799.729 183 733.724 0 711.724 0 c 0
 659.724 0 660.173 495 759.173 600 c 0
749.5 600 m 0
 772.497 681 808.379 759 882.37 759 c 0
 1028.02 759 1206.88 0 1017.8 0 c 0
 907.922 0 1022.91 456 1143 600 c 0
0 600 m 1
 1223 600 l 1
EndSplineSet
LCarets2: 1 0 
Ligature2: "IT ligatures-1" pha IT
EndChar

StartChar: mi
Encoding: 120 -1 120
Width: 1096
Flags: W
AnchorPoint: "anusvara" 952 800 basechar 0
LayerCount: 2
Fore
SplineSet
142.585 600 m 0
 195.657 510.141 256.585 0 172.585 0 c 0
 38.9277 0 169.585 186.141 456.657 186.141 c 0
 672.657 186.141 660.657 0 574.585 0 c 0
 438.657 0 535.585 525.141 588.657 600 c 0
581.5 600 m 0
 606.893 681 646.514 759 728.214 759 c 0
 889.036 759 1086.54 0 877.75 0 c 0
 756.429 0 883.393 456 1016 600 c 0
0 600 m 1
 1096 600 l 1
EndSplineSet
LCarets2: 1 0 
Ligature2: "IT ligatures-1" ma IT
EndChar

StartChar: yi
Encoding: 121 -1 121
Width: 1047
Flags: W
AnchorPoint: "anusvara" 903 800 basechar 0
LayerCount: 2
Fore
SplineSet
139.422 424.897 m 0
 193.421 338.897 338.445 350.13 361.422 426 c 0
 390.16 520.896 358.68 600 279.422 600 c 0
 141.421 600 107.609 367.269 123.683 201 c 0
 134.692 87.1035 221.421 0 337.422 0 c 0
 621.421 0 567.421 222.898 553.421 340.897 c 0
 541.158 444.26 553.42 570.896 583.421 600 c 0
569.5 600 m 0
 592.73 681 628.977 759 703.721 759 c 0
 850.848 759 1031.53 0 840.522 0 c 0
 729.532 0 845.686 456 967 600 c 0
0 600 m 1
 1047 600 l 1
EndSplineSet
Substitution2: "Devanagari-like forms-1" yi.alt
LCarets2: 1 0 
Ligature2: "IT ligatures-1" ya IT
EndChar

StartChar: li
Encoding: 123 -1 123
Width: 637
VWidth: 0
Flags: W
AnchorPoint: "anusvara" 369.617 800 basechar 0
LayerCount: 2
Fore
SplineSet
398.623 600 m 0
 322 574 221.908 477.945 282.939 422 c 0
 330.94 378 382.525 449.292 446.939 412 c 0
 522.94 368 470.94 266 354.939 244 c 1
 456.94 260 506.114 202.969 516.415 143.812 c 0
 534.808 38.1855 375.618 0 282.12 0 c 0
 195.249 0 152 80 120 224 c 0
0 600 m 1
 637 600 l 1
EndSplineSet
LCarets2: 1 0 
Ligature2: "IT ligatures-1" la IT
EndChar

StartChar: zi
Encoding: 125 -1 125
Width: 1141
Flags: W
AnchorPoint: "anusvara" 997 800 basechar 0
LayerCount: 2
Fore
SplineSet
625.216 600 m 0
 607.216 440.825 582.216 0 657.216 0 c 0
 695.216 0 707.216 34.8252 717.216 72.8252 c 0
194.423 600 m 0
 304.423 564 304.423 380 199.216 328 c 0
 154.964 306.128 91.2158 380 133.216 436 c 0
 192.368 514.869 389.086 504.467 384.216 406 c 0
 374.423 208 193.426 251.496 175.216 112 c 0
 165.521 37.7334 235.216 0 331.216 0 c 0
 423.601 0 457.216 88 498.216 168 c 0
623.5 600 m 0
 649.068 681 688.962 759 771.228 759 c 0
 933.159 759 1132.02 0 921.796 0 c 0
 799.637 0 927.478 456 1061 600 c 0
0 600 m 1
 1141 600 l 1
EndSplineSet
LCarets2: 1 0 
Ligature2: "IT ligatures-1" za IT
EndChar

StartChar: Si
Encoding: 126 -1 126
Width: 919
Flags: W
AnchorPoint: "anusvara" 775 800 basechar 0
LayerCount: 2
Fore
SplineSet
159.091 558 m 1
 407.438 346.713 l 1
444.091 600 m 0
 445.396 366 399.438 0 447.438 0 c 0
 479.438 0 483.438 30.7129 495.438 62.7129 c 0
126.091 600 m 0
 132.075 497.318 100.346 431.004 141.437 336.713 c 0
 171.679 267.316 217.914 210.827 293.438 216 c 0
 370.669 221.29 409.438 300.713 433.438 356.713 c 0
440.5 600 m 0
 463.789 681 500.127 759 575.059 759 c 0
 722.556 759 903.691 0 712.204 0 c 0
 600.936 0 717.38 456 839 600 c 0
0 600 m 1
 919 600 l 1
EndSplineSet
LCarets2: 1 0 
Ligature2: "IT ligatures-1" Sa IT
EndChar

StartChar: si
Encoding: 127 -1 127
Width: 1161
Flags: W
AnchorPoint: "anusvara" 1017 800 basechar 0
LayerCount: 2
Fore
SplineSet
151.704 600 m 0
 220.704 440.356 94.7041 341.356 124.704 182.356 c 0
 143.08 84.9629 160.704 0 301.704 0 c 0
 473.69 0 532.704 104.356 586.704 366 c 0
 606.643 462.605 586.704 600 490.704 600 c 0
 412.704 600 372.779 476.487 409.704 431.356 c 0
 463.704 365.356 481.704 377.356 697.704 438 c 0
566.5 600 m 0
 596.568 681 643.483 759 740.228 759 c 0
 930.659 759 1111.73 0 864.5 0 c 0
 651.704 0 923.978 456 1081 600 c 0
0 600 m 1
 1161 600 l 1
EndSplineSet
LCarets2: 1 0 
Ligature2: "IT ligatures-1" sa IT
EndChar

StartChar: hi
Encoding: 128 -1 128
Width: 988
Flags: W
AnchorPoint: "anusvara" 844 800 basechar 0
LayerCount: 2
Fore
SplineSet
212.212 600 m 0
 163.487 550 127.118 498.255 146.808 430 c 0
 161.887 377.728 204.251 355.999 276.251 378 c 1
 180.251 351.999 100.426 258.189 124.251 156 c 0
 149.608 47.2393 226.251 0 364.38 0 c 0
 484.901 0 513.249 68.5312 522.38 154.129 c 0
 541.229 330.839 400.38 390.129 428.38 600 c 0
428.5 600 m 0
 456.522 681 500.246 759 590.409 759 c 0
 767.887 759 985.841 0 755.432 0 c 0
 621.546 0 761.659 456 908 600 c 0
0 600 m 1
 988 600 l 1
EndSplineSet
LCarets2: 1 0 
Ligature2: "IT ligatures-1" ha IT
EndChar

StartChar: Li
Encoding: 129 -1 129
Width: 1152
Flags: W
AnchorPoint: "anusvara" 1008 800 basechar 0
LayerCount: 2
Fore
SplineSet
363.383 323.999 m 0
 330.384 377.999 323.385 398.999 268.737 398.999 c 0
 58.5811 398.999 106.581 0 197.176 0 c 0
 516.845 0 288.384 399 612.383 399 c 0
 721.581 399 730.581 0 520.737 0 c 0
 361.738 0 409.43 170.997 406.581 282 c 0
 403.425 405 421.581 507 445.581 600 c 0
449.5 600 m 0
 476.5 681 518.628 759 605.5 759 c 0
 944.5 759 1147 0 925 0 c 0
 743.5 0 931 456 1072 600 c 0
0 600 m 1
 1152 600 l 1
EndSplineSet
LCarets2: 1 0 
Ligature2: "IT ligatures-1" La IT
EndChar

StartChar: kSi
Encoding: 130 -1 130
Width: 1123
VWidth: 0
Flags: W
AnchorPoint: "anusvara" 979 800 basechar 0
LayerCount: 2
Fore
SplineSet
391.926 491.363 m 0
 595.926 170.363 645.852 600 621.852 600 c 0
 579.852 600 585.852 0 648.852 0 c 0
 673.197 0 687.852 0 699.852 36 c 0
286.926 431.363 m 0
 145.926 533.363 187.926 689.363 280.926 695.363 c 0
 412.788 703.871 442.926 560.363 391.926 491.363 c 0
 314.24 386.26 186.852 456 126.852 264 c 0
 99.1406 175.326 158.551 77.1758 249.852 60 c 0
 338.925 43.2441 388.282 126.46 429.852 207 c 0
 446.417 239.096 344.515 282.094 345.852 246 c 0
 348.852 165 390.852 84 504.852 0 c 0
620.5 600 m 0
 645.191 681 683.718 759 763.162 759 c 0
 919.542 759 1111.59 0 908.568 0 c 0
 790.598 0 914.056 456 1043 600 c 0
0 600 m 1
 1123 600 l 1
EndSplineSet
LCarets2: 1 0 
Ligature2: "IT ligatures-1" kSa IT
EndChar

StartChar: ku
Encoding: 132 -1 132
Width: 1179
VWidth: 0
Flags: W
AnchorPoint: "anusvara" 840 800 basechar 0
LayerCount: 2
Fore
SplineSet
1016.07 600 m 0
 963 525.141 866.072 0 1002 0 c 0
 1088.07 0 1100.07 186.141 884.072 186.141 c 0
 597 186.141 524.343 0 658 0 c 0
 714 0 732 56 744 176 c 0
 758.223 318.231 727 740 499 740 c 0
 216 740 120 514.338 120 310.338 c 0
 120 151 168 0 288 0 c 0
 423 0 468 106 475.038 190 c 0
 480.8 258.763 423 335 299 343 c 1
 357.043 340.662 410.558 352.406 449.038 416 c 0
 492 487 441 577 359 600 c 0
0 600 m 1
 1179 600 l 1
EndSplineSet
LCarets2: 1 0 
Ligature2: "uT ligatures-1" ka uT
Ligature2: "uT ligatures-1" ka UT
EndChar

StartChar: khu
Encoding: 133 -1 133
Width: 1064
VWidth: 0
Flags: W
AnchorPoint: "anusvara" 880 800 basechar 0
LayerCount: 2
Fore
SplineSet
359 600 m 0
 441 577 492 487 449.038 416 c 0
 410.558 352.406 357.043 340.662 299 343 c 1
 423 335 480.8 258.763 475.038 190 c 0
 468 106 423 0 288 0 c 0
 168 0 120 151 120 310.338 c 0
 120 514.338 216 740 499 740 c 0
 827 740 858.223 318.231 844 176 c 0
 832 56 814 0 758 0 c 0
 656 0 661 496 944 600 c 0
0 600 m 1
 1064 600 l 1
EndSplineSet
Refer: 58 2306 N 1 0 0 1 687 -381 2
LCarets2: 1 0 
Ligature2: "uT ligatures-1" kha uT
Ligature2: "uT ligatures-1" kha UT
EndChar

StartChar: gu
Encoding: 134 -1 134
Width: 657
Flags: W
AnchorPoint: "anusvara" 350 800 basechar 0
LayerCount: 2
Fore
SplineSet
475.486 600 m 0
 469.486 351.704 448.486 0 491.681 0 c 0
197.681 600 m 0
 247.486 414.704 265.486 327.704 253.486 243.704 c 0
 246.59 195.43 196.522 160.44 149.681 174 c 0
 111.017 185.192 112.862 246.516 139.486 276.704 c 0
 169.147 310.337 229.486 324.704 253.486 291.704 c 0
384 0 m 0
 498 -9 565.413 -62.5967 564 -105 c 0
 561 -195 443.902 -234.702 351 -219 c 0
 242.258 -200.621 204 -111 138 -33 c 0
0 600 m 1
 657 600 l 1
EndSplineSet
Substitution2: "pre-ra forms of uT-1" gu.prera
LCarets2: 1 0 
Ligature2: "uT ligatures-1" ga uT
Ligature2: "uT ligatures-1" ga UT
EndChar

StartChar: ghu
Encoding: 135 -1 135
Width: 654
VWidth: 0
Flags: W
AnchorPoint: "anusvara" 350 800 basechar 0
LayerCount: 2
Fore
SplineSet
472 600 m 0
 468.701 343.547 450.701 0 502 0 c 0
208.298 600 m 0
 148 571.547 120 535.547 120 483.547 c 0
 120.001 407.892 228 407.547 304.298 423 c 1
 228 407.547 136.517 347.769 142 257.547 c 0
 146.399 185.161 240.636 180.153 318 197.547 c 0
 382.701 212.094 422.701 263.547 466 321 c 0
381 0 m 0
 495 -9 562.413 -62.5967 561 -105 c 0
 558 -195 440.902 -234.702 348 -219 c 0
 239.258 -200.621 201 -111 135 -33 c 0
0 600 m 1
 654 600 l 1
EndSplineSet
Substitution2: "pre-ra forms of uT-1" ghu.prera
LCarets2: 1 0 
Ligature2: "uT ligatures-1" gha uT
Ligature2: "uT ligatures-1" gha UT
EndChar

StartChar: ju
Encoding: 139 -1 139
Width: 893
VWidth: 0
Flags: W
AnchorPoint: "anusvara" 600 800 basechar 0
LayerCount: 2
Fore
SplineSet
748 600 m 0
 700 470 600.072 66 736 66 c 0
 822.072 66 768 258 480 258 c 0
318 600 m 0
 453.574 600 493 548.312 493 471.749 c 0
 493 389.53 324.999 317.312 237 317.312 c 1
 402 332.312 486 278.29 486 164.312 c 0
 486 74.3125 447 0 327 0 c 0
 233.614 0 153 125.312 120 191.312 c 0
0 600 m 1
 893 600 l 1
EndSplineSet
LCarets2: 1 0 
Ligature2: "uT ligatures-1" ja uT
Ligature2: "uT ligatures-1" ja UT
EndChar

StartChar: Nu
Encoding: 146 -1 146
Width: 707
VWidth: 0
Flags: W
AnchorPoint: "anusvara" 500 800 basechar 0
LayerCount: 2
Fore
SplineSet
535.931 600 m 0
 517.931 440.825 492.931 0 567.931 0 c 0
132.712 600 m 0
 159.657 476 31.6572 190 253.539 190 c 0
 308.755 190 387.154 278.08 391.539 338 c 0
 397.539 420 293.31 428.167 293.539 408 c 0
 295.539 232 383.539 482 380.713 600 c 0
434 0 m 0
 548 -9 615.413 -62.5967 614 -105 c 0
 611 -195 493.902 -234.702 401 -219 c 0
 292.258 -200.621 254 -111 188 -33 c 0
0 600 m 1
 707 600 l 1
EndSplineSet
Substitution2: "pre-ra forms of uT-1" Nu.prera
LCarets2: 1 0 
Ligature2: "uT ligatures-1" Na uT
Ligature2: "uT ligatures-1" Na UT
EndChar

StartChar: tu
Encoding: 147 -1 147
Width: 924
VWidth: 0
Flags: W
AnchorPoint: "anusvara" 780 800 basechar 0
LayerCount: 2
Fore
SplineSet
359 600 m 0
 441 577 492 487 449.038 416 c 0
 410.558 352.406 357.043 340.662 299 343 c 1
 423 335 480.8 258.763 475.038 190 c 0
 468 106 423 0 288 0 c 0
 168 0 120 151 120 310.338 c 0
 120 514.338 216 740 499 740 c 0
 727 740 758.223 318.231 744 176 c 0
 732 56 714 0 658 0 c 0
 556 0 561 496 844 600 c 0
0 600 m 1
 924 600 l 1
EndSplineSet
LCarets2: 1 0 
Ligature2: "uT ligatures-1" ta uT
Ligature2: "uT ligatures-1" ta UT
EndChar

StartChar: thu
Encoding: 148 -1 148
Width: 752
Flags: W
AnchorPoint: "anusvara" 415 800 basechar 0
LayerCount: 2
Fore
SplineSet
499.511 0 m 0
 613.511 -9 680.924 -62.5967 679.511 -105 c 0
 676.511 -195 559.413 -234.702 466.511 -219 c 0
 357.769 -200.621 319.511 -111 253.511 -33 c 0
580.925 600 m 0
 562.925 440.825 537.925 0 612.925 0 c 0
263 384 m 0
 131 399 122 600 245 600 c 0
 341 600 355.644 524.815 335 465 c 0
 298.021 357.856 221 306 128 261 c 1
 197 216 257.19 145.825 356 150 c 0
 448.081 153.891 503 201 554 279 c 0
0 600 m 1
 752 600 l 1
EndSplineSet
Substitution2: "pre-ra forms of uT-1" thu.prera
LCarets2: 1 0 
Ligature2: "uT ligatures-1" tha uT
Ligature2: "uT ligatures-1" tha UT
EndChar

StartChar: du
Encoding: 149 -1 149
Width: 1023
VWidth: 0
Flags: W
AnchorPoint: "anusvara" 790 800 basechar 0
LayerCount: 2
Fore
SplineSet
417.218 600 m 0
 312.595 572 253.563 423.944 314.595 368 c 0
 362.595 324 394.181 395.293 458.595 358 c 0
 534.595 314 489.535 266 373.534 244 c 1
 475.535 260 524.709 202.969 535.01 143.812 c 0
 549.423 61.0352 468.093 0 374.595 0 c 0
 287.724 0 164.728 78.8203 138.595 224 c 0
 66.5947 624 208.595 760 479.535 760 c 0
 711 760 822 482 822 215 c 0
 822 85.1348 795.297 0 717 0 c 0
 630.297 0 615 419 903 600 c 0
0 600 m 1
 1023 600 l 1
EndSplineSet
LCarets2: 1 0 
Ligature2: "uT ligatures-1" da uT
Ligature2: "uT ligatures-1" da UT
EndChar

StartChar: nu
Encoding: 151 -1 151
Width: 893
VWidth: 0
Flags: W
AnchorPoint: "anusvara" 600 800 basechar 0
LayerCount: 2
Fore
SplineSet
748 600 m 0
 700 470 600.072 66 736 66 c 0
 822.072 66 768 258 480 258 c 0
416.64 555 m 0
 299.64 435 223.747 600 318 600 c 0
 453.574 600 493 548.312 493 471.749 c 0
 493 389.53 324.999 317.312 237 317.312 c 1
 402 332.312 486 278.29 486 164.312 c 0
 486 74.3125 447 0 327 0 c 0
 233.614 0 153 125.312 120 191.312 c 0
0 600 m 1
 893 600 l 1
EndSplineSet
LCarets2: 1 0 
Ligature2: "uT ligatures-1" na uT
Ligature2: "uT ligatures-1" na UT
EndChar

StartChar: pu
Encoding: 152 -1 152
Width: 575
Flags: W
AnchorPoint: "anusvara" 300 800 basechar 0
LayerCount: 2
Fore
SplineSet
343.511 0 m 0
 457.511 -9 524.924 -62.5967 523.511 -105 c 0
 520.511 -195 403.413 -234.702 310.511 -219 c 0
 201.769 -200.621 163.511 -111 97.5107 -33 c 0
444.091 600 m 0
 445.396 366 399.438 0 447.437 0 c 0
126.091 600 m 0
 132.075 497.318 100.346 431.004 141.437 336.713 c 0
 171.679 267.316 217.914 210.827 293.437 216 c 0
 370.669 221.29 409.438 300.713 433.437 356.713 c 0
0 600 m 1
 575 600 l 1
EndSplineSet
Substitution2: "pre-ra forms of uT-1" pu.prera
LCarets2: 1 0 
Ligature2: "uT ligatures-1" pa uT
Ligature2: "uT ligatures-1" pa UT
EndChar

StartChar: phu
Encoding: 153 -1 153
Width: 879
Flags: W
AnchorPoint: "anusvara" 500 800 basechar 0
LayerCount: 2
Fore
SplineSet
129.724 600 m 0
 101.724 508.936 129.988 256.35 269.977 252.936 c 0
 433.977 248.936 429.977 600 411.977 600 c 0
 375.977 600 442.977 0 399.977 0 c 0
0 600 m 1
 879 600 l 1
334.5 -40.6758 m 17
 346.5 -22.6758 357.176 0 399.977 0 c 0
 477.977 0 526.902 -43.2725 525.489 -85.6758 c 0
 522.489 -175.676 439.5 -202.676 312.489 -200 c 0
 202.229 -197.677 156.006 -115.841 154.5 -13.6758 c 0
 152.511 121.324 417.67 183 474.724 183 c 0
 799.729 183 733.724 0 711.724 0 c 0
 659.724 0 660.173 495 759.173 600 c 0
EndSplineSet
LCarets2: 1 0 
Ligature2: "uT ligatures-1" pha uT
Ligature2: "uT ligatures-1" pha UT
EndChar

StartChar: bhu
Encoding: 155 -1 155
Width: 750
VWidth: 0
Flags: W
AnchorPoint: "anusvara" 420 800 basechar 0
LayerCount: 2
Fore
SplineSet
390.263 528 m 0
 336.263 488 242.629 416.018 150.263 450 c 0
 93.0166 471.062 122.126 600 194.562 600 c 0
 289.837 600 300.604 332.584 244.562 152 c 0
 226.562 94 163.222 97.0596 142.562 130 c 0
 121.771 163.148 165.208 203.354 226.562 222 c 0
 430.562 284 714.562 600 588.562 600 c 0
 534.562 600 553.837 0 604.837 0 c 0
477 0 m 0
 591 -9 658.413 -62.5967 657 -105 c 0
 654 -195 536.902 -234.702 444 -219 c 0
 335.258 -200.621 297 -111 231 -33 c 0
0 600 m 1
 750 600 l 1
EndSplineSet
Substitution2: "pre-ra forms of uT-1" bhu.prera
LCarets2: 1 0 
Ligature2: "uT ligatures-1" bha uT
Ligature2: "uT ligatures-1" bha UT
EndChar

StartChar: mu
Encoding: 156 -1 156
Width: 750
VWidth: 0
Flags: W
AnchorPoint: "anusvara" 420 800 basechar 0
LayerCount: 2
Fore
SplineSet
205.511 600 m 0
 244.511 532.412 300.604 332.584 244.562 152 c 0
 226.562 94 163.222 97.0596 142.562 130 c 0
 121.771 163.148 165.208 203.354 226.562 222 c 0
 430.562 284 714.562 600 588.562 600 c 0
 534.562 600 553.837 0 604.837 0 c 0
477 0 m 0
 591 -9 658.413 -62.5967 657 -105 c 0
 654 -195 536.902 -234.702 444 -219 c 0
 335.258 -200.621 297 -111 231 -33 c 0
0 600 m 1
 750 600 l 1
EndSplineSet
Substitution2: "pre-ra forms of uT-1" mu.prera
LCarets2: 1 0 
Ligature2: "uT ligatures-1" ma uT
Ligature2: "uT ligatures-1" ma UT
EndChar

StartChar: yu
Encoding: 157 -1 157
Width: 752
Flags: W
AnchorPoint: "anusvara" 415 800 basechar 0
LayerCount: 2
Fore
SplineSet
499.511 0 m 0
 613.511 -9 680.924 -62.5967 679.511 -105 c 0
 676.511 -195 559.413 -234.702 466.511 -219 c 0
 357.769 -200.621 319.511 -111 253.511 -33 c 0
580.925 600 m 0
 562.925 440.825 537.925 0 612.925 0 c 0
190.511 600 m 0
 295.511 570 290.143 512.507 277.511 444 c 0
 260.798 353.367 221 306 128 261 c 1
 197 216 257.19 145.825 356 150 c 0
 448.081 153.891 503 201 554 279 c 0
0 600 m 1
 752 600 l 1
EndSplineSet
Substitution2: "pre-ra forms of uT-1" yu.prera
LCarets2: 1 0 
Ligature2: "uT ligatures-1" ya uT
Ligature2: "uT ligatures-1" ya UT
EndChar

StartChar: ru
Encoding: 158 -1 158
Width: 757
VWidth: 0
Flags: W
AnchorPoint: "anusvara" 444.441 800 basechar 0
LayerCount: 2
Fore
SplineSet
612.174 600 m 0
 564.174 470 464.246 66 600.174 66 c 0
 686.246 66 632.174 258 344.174 258 c 0
270.955 320 m 0
 176.955 292 120.456 274 120.456 203.312 c 0
 120.456 138 176.727 58 334.727 0 c 0
252.457 600 m 0
 291.457 548.312 324.174 442 324.174 342 c 0
 324.174 251.104 292.955 158 190.955 250 c 0
0 600 m 1
 757 600 l 1
EndSplineSet
Substitution2: "kaara ligated forms-1" kAru
Substitution2: "kara ligated forms-1" karu
LCarets2: 1 0 
Ligature2: "uT ligatures-1" ra uT
Ligature2: "uT ligatures-1" ra UT
EndChar

StartChar: zu
Encoding: 161 -1 161
Width: 797
VWidth: 0
Flags: W
AnchorPoint: "anusvara" 400 800 basechar 0
LayerCount: 2
Fore
SplineSet
625.216 600 m 0
 607.216 440.825 582.216 0 657.216 0 c 0
194.423 600 m 0
 304.423 564 304.423 380 199.216 328 c 0
 154.964 306.128 91.2158 380 133.216 436 c 0
 192.368 514.869 389.086 504.467 384.216 406 c 0
 374.423 208 193.426 251.496 175.216 112 c 0
 165.521 37.7334 235.216 0 331.216 0 c 0
 423.601 0 457.216 88 498.216 168 c 0
524 0 m 0
 638 -9 705.413 -62.5967 704 -105 c 0
 701 -195 585.215 -218.037 491 -219 c 0
 419.125 -219.735 370.355 -147.688 343.355 -108.688 c 0
0 600 m 1
 797 600 l 1
EndSplineSet
Substitution2: "pre-ra forms of uT-1" zu.prera
LCarets2: 1 0 
Ligature2: "uT ligatures-1" za uT
Ligature2: "uT ligatures-1" za UT
EndChar

StartChar: Su
Encoding: 162 -1 162
Width: 575
VWidth: 0
Flags: W
AnchorPoint: "anusvara" 350 800 basechar 0
LayerCount: 2
Fore
SplineSet
159.091 558 m 1
 407.438 346.713 l 1
444.091 600 m 0
 445.396 366 399.438 0 447.438 0 c 0
126.091 600 m 0
 132.075 497.318 100.346 431.004 141.437 336.713 c 0
 171.679 267.316 217.914 210.827 293.438 216 c 0
 370.669 221.29 409.438 300.713 433.438 356.713 c 0
302 0 m 0
 416 -9 483.413 -62.5967 482 -105 c 0
 479 -195 361.902 -234.702 269 -219 c 0
 160.258 -200.621 122 -111 56 -33 c 0
0 600 m 1
 575 600 l 1
EndSplineSet
Substitution2: "pre-ra forms of uT-1" Su.prera
LCarets2: 1 0 
Ligature2: "uT ligatures-1" Sa uT
Ligature2: "uT ligatures-1" Sa UT
EndChar

StartChar: su
Encoding: 163 -1 163
Width: 1244
Flags: W
AnchorPoint: "anusvara" 445.5 800 basechar 0
LayerCount: 2
Fore
SplineSet
652 600 m 0
 804 600 852 524 824 456 c 0
 796 388 726.043 361.662 668 364 c 1
 792 356 864 260 832 76 c 0
 808.611 -58.4863 555.962 -4.9873 555.962 196.338 c 0
 555.962 400.338 568 740 862.5 740 c 0
 1090.5 740 1078.72 318.231 1064.5 176 c 0
 1052.5 56 1034.5 0 978.5 0 c 0
 876.5 0 960.5 520 1164.5 600 c 0
232 600 m 0
 308 536 318.256 468.708 316 392 c 0
 312 256 200 164 120 220 c 1
 148 148 221.552 0 344 0 c 0
 476 0 548 176 556 376 c 0
0 600 m 1
 1244 600 l 1
EndSplineSet
LCarets2: 1 0 
Ligature2: "uT ligatures-1" sa uT
Ligature2: "uT ligatures-1" sa UT
EndChar

StartChar: hu
Encoding: 164 -1 164
Width: 924
VWidth: 0
Flags: W
AnchorPoint: "anusvara" 780 800 basechar 0
LayerCount: 2
Fore
SplineSet
146 900 m 0
 371 900 512 600 449.038 416 c 0
 424.973 345.674 357.043 340.662 299 343 c 1
 423 335 480.8 258.763 475.038 190 c 0
 468 106 423 0 288 0 c 0
 168 0 120 151 120 310.338 c 0
 120 514.338 216 740 499 740 c 0
 727 740 758.223 318.231 744 176 c 0
 732 56 714 0 658 0 c 0
 556 0 561 496 844 600 c 0
0 600 m 1
 924 600 l 1
EndSplineSet
LCarets2: 1 0 
Ligature2: "uT ligatures-1" ha uT
Ligature2: "uT ligatures-1" ha UT
EndChar

StartChar: kSu
Encoding: 166 -1 166
Width: 779
VWidth: 0
Flags: W
AnchorPoint: "anusvara" 500 800 basechar 0
LayerCount: 2
Fore
SplineSet
391.926 491.363 m 0
 595.926 170.363 645.852 600 621.852 600 c 0
 579.852 600 585.852 0 648.852 0 c 0
286.926 431.363 m 0
 145.926 533.363 187.926 689.363 280.926 695.363 c 0
 412.788 703.871 442.926 560.363 391.926 491.363 c 0
 314.24 386.26 186.852 456 126.852 264 c 0
 99.1406 175.326 158.551 77.1758 249.852 60 c 0
 338.925 43.2441 388.282 126.46 429.852 207 c 0
 446.417 239.096 344.515 282.094 345.852 246 c 0
 348.852 165 390.852 84 504.852 0 c 0
598.926 0 m 0
 697.926 0 726.339 -62.5967 724.926 -105 c 0
 721.926 -195 604.828 -234.702 511.926 -219 c 0
 403.184 -200.621 364.926 -111 298.926 -33 c 0
0 600 m 1
 779 600 l 1
EndSplineSet
Substitution2: "pre-ra forms of uT-1" kSu.prera
LCarets2: 1 0 
Ligature2: "uT ligatures-1" kSa uT
Ligature2: "uT ligatures-1" kSa UT
EndChar

StartChar: uT.full
Encoding: 168 -1 168
Width: 582
VWidth: 0
Flags: W
LayerCount: 2
Fore
SplineSet
60 600 m 0
 106 590 178.038 515.662 150.038 477.662 c 0
 105.946 417.822 72.043 431.662 14 434 c 1
 138 426 194.256 318.218 176.038 251.662 c 0
 140 120 -80 170.675 -80 372 c 0
 -80 576 19.6602 740 200 740 c 0
 428 740 416.223 318.231 402 176 c 0
 390 56 372 0 316 0 c 0
 214 0 298 520 502 600 c 0
0 600 m 1
 582 600 l 1
EndSplineSet
EndChar

StartChar: repha
Encoding: 170 -1 170
Width: 0
VWidth: 0
Flags: W
AnchorPoint: "eT" -100 600 mark 0
LayerCount: 2
Fore
SplineSet
-100 600 m 17
 -287 657.8 -95.5807 900 20 900 c 0
 117.419 900 159.419 845.02 174.419 803.02 c 0
EndSplineSet
LCarets2: 1 0 
Ligature2: "Repha-1" ra virAma
EndChar

StartChar: raphala
Encoding: 171 -1 171
Width: 0
VWidth: 0
Flags: W
LayerCount: 2
Fore
SplineSet
-117.985 -300 m 0
 -191.985 -228.176 -208.239 -205 -282.238 -114 c 9
 -478.238 -259 l 29
EndSplineSet
LCarets2: 1 0 
Ligature2: "Rakaar-1" virAma ra 
EndChar

StartChar: ardhaka
Encoding: 172 -1 172
Width: 669
VWidth: 0
Flags: W
LayerCount: 2
Fore
SplineSet
331 600 m 0
 231.999 564 145.513 492.476 121.419 375 c 0
 105.029 295.09 235.757 291.075 251.212 210.979 c 0
 265.15 138.741 252.553 33.4893 187.315 33.4893 c 0
 147.212 33.4893 109.26 89.5254 130.315 126.489 c 0
 175.315 205.489 574.5 219.489 606.5 111.489 c 0
 626.223 44.9238 613.477 0 546.5 0 c 0
 444.5 0 483.5 378 759.5 444 c 0
0 600 m 1
 669 600 l 1
EndSplineSet
LCarets2: 1 0 
Ligature2: "Half forms-1" ka virAma
EndChar

StartChar: ardhakha
Encoding: 173 -1 173
Width: 611
VWidth: 0
Flags: W
LayerCount: 2
Fore
SplineSet
120 600 m 0
 181.806 648.704 201.611 661.408 265.806 660.704 c 0
 351.019 659.77 332.879 594.665 313.806 552.704 c 0
 283.806 486.704 121.806 417.704 172.806 345.704 c 0
 222.823 275.091 383.994 277.05 385.806 318.704 c 0
 388.806 387.704 208.806 318.704 223.806 189.704 c 0
 241.203 40.083 329 0 434 0 c 0
 632 0 605 90 701 339 c 0
0 600 m 1
 611 600 l 1
EndSplineSet
LCarets2: 1 0 
Ligature2: "Half forms-1" kha virAma
EndChar

StartChar: ardhaga
Encoding: 174 -1 174
Width: 317
VWidth: 0
Flags: W
LayerCount: 2
Fore
SplineSet
197.681 600 m 0
 247.486 414.704 265.486 327.704 253.486 243.704 c 0
 246.59 195.43 196.522 160.44 149.681 174 c 0
 111.017 185.192 112.862 246.516 139.486 276.704 c 0
 169.147 310.337 229.486 324.704 253.486 291.704 c 0
0 600 m 1
 317 600 l 1
EndSplineSet
LCarets2: 1 0 
Ligature2: "Half forms-1" ga virAma
EndChar

StartChar: ardhagha
Encoding: 175 -1 175
Width: 420
VWidth: 0
Flags: W
LayerCount: 2
Fore
SplineSet
208.298 600 m 0
 148 571.547 120 535.547 120 483.547 c 0
 120.001 407.892 228 407.547 304.298 423 c 1
 228 407.547 136.517 347.769 142 257.547 c 0
 146.399 185.161 240.636 180.153 318 197.547 c 0
 382.701 212.094 466.701 284.547 510 342 c 0
0 600 m 1
 420 600 l 1
0 600 m 1
 420 600 l 1
EndSplineSet
LCarets2: 1 0 
Ligature2: "Half forms-1" gha virAma
EndChar

StartChar: ardhaca
Encoding: 177 -1 177
Width: 524
VWidth: 0
Flags: W
LayerCount: 2
Fore
SplineSet
614 465 m 0
 512 417 342.081 403.324 284.038 405.662 c 1
 408.038 397.662 495.032 318 476.038 251.662 c 0
 426.771 79.5908 116.037 139.662 120.038 53.6621 c 0
 120.879 35.5713 146.037 0 178.038 0 c 0
 286.037 0 317.321 110 193.321 210 c 0
0 600 m 1
 524 600 l 1
EndSplineSet
LCarets2: 1 0 
Ligature2: "Half forms-1" ca virAma
EndChar

StartChar: ardhaja
Encoding: 179 -1 179
Width: 487
VWidth: 0
Flags: W
LayerCount: 2
Fore
SplineSet
261.655 576.437 m 0
 373.827 502 261.827 350 159.827 386 c 0
 44.9216 426.555 95.8272 600 190.08 600 c 0
 325.654 600 451.662 357.01 461.655 220.437 c 0
 467.654 138.437 443.654 0 355.655 0 c 0
 315.654 0 278.282 40.3291 287.655 108.437 c 0
 317.654 326.437 485.5 392.438 577.5 456 c 0
0 600 m 1
 487 600 l 1
EndSplineSet
LCarets2: 1 0 
Ligature2: "Half forms-1" ja virAma
EndChar

StartChar: ardhajha
Encoding: 180 -1 180
Width: 515
VWidth: 0
Flags: W
LayerCount: 2
Fore
SplineSet
442.116 303 m 0
 472.927 333.865 548.151 382.832 605.5 381 c 0
340.927 600 m 0
 280.927 513.865 112.927 540.865 130.927 408.865 c 0
 151.476 258.175 375.024 451.367 442.116 303 c 0
 472.927 234.865 403.062 119.813 289.927 108.865 c 0
 196.927 99.8652 70.6602 133.306 139.927 174.865 c 0
 289.927 264.865 239.737 0 361.927 0 c 0
 422.327 0 464.737 21.8652 491.737 81.8652 c 0
0 600 m 1
 515 600 l 1
EndSplineSet
LCarets2: 1 0 
Ligature2: "Half forms-1" jha virAma
EndChar

StartChar: ardhaJa
Encoding: 181 -1 181
Width: 554
VWidth: 0
Flags: W
LayerCount: 2
Fore
SplineSet
460 293.28 m 0
 534 291.281 599 321 644 348 c 0
226 409.28 m 0
 270 463.281 414.956 471.341 447.748 391 c 0
 486.112 297.008 428.927 168.317 327.748 160 c 0
 246 153.281 161.253 212.562 120 277.28 c 0
0 600 m 1
 554 600 l 1
EndSplineSet
LCarets2: 1 0 
Ligature2: "Half forms-1" Ja virAma
EndChar

StartChar: ardhaNa
Encoding: 186 -1 186
Width: 451
VWidth: 0
Flags: W
LayerCount: 2
Fore
SplineSet
132.712 600 m 0
 159.657 476 31.6572 190 253.539 190 c 0
 308.755 190 387.154 278.08 391.539 338 c 0
 397.539 420 293.31 428.167 293.539 408 c 0
 295.539 232 383.539 482 380.713 600 c 0
0 600 m 1
 451 600 l 1
EndSplineSet
LCarets2: 1 0 
Ligature2: "Half forms-1" Na virAma
EndChar

StartChar: ardhata
Encoding: 187 -1 187
Width: 332
VWidth: 0
Flags: W
LayerCount: 2
Fore
SplineSet
248 0 m 0
 173 48 106.179 109.23 125.252 225.272 c 0
 140 315 265.386 397.603 422 423 c 0
0 600 m 1
 332 600 l 1
EndSplineSet
LCarets2: 1 0 
Ligature2: "Half forms-1" ta virAma
EndChar

StartChar: ardhatha
Encoding: 188 -1 188
Width: 490
Flags: W
LayerCount: 2
Fore
SplineSet
263 384 m 0
 131 399 122 600 245 600 c 0
 341 600 355.644 524.815 335 465 c 0
 298.021 357.856 221 306 128 261 c 1
 197 216 257.19 145.825 356 150 c 0
 448.081 153.891 529 201 580 279 c 0
0 600 m 1
 490 600 l 1
EndSplineSet
LCarets2: 1 0 
Ligature2: "Half forms-1" tha virAma
EndChar

StartChar: ardhada
Encoding: 189 -1 189
Width: 327
VWidth: 0
Flags: W
LayerCount: 2
Fore
SplineSet
284.429 600 m 0
 172.429 533.927 83.7725 417.704 134.772 345.704 c 0
 184.789 275.091 345.96 277.05 347.772 318.704 c 0
 350.772 387.704 170.772 318.704 185.772 189.704 c 0
 203.169 40.083 315.463 0 417.463 0 c 0
0 600 m 1
 327 600 l 1
EndSplineSet
LCarets2: 1 0 
Ligature2: "Half forms-1" da virAma
EndChar

StartChar: ardhadha
Encoding: 190 -1 190
Width: 481
VWidth: 0
Flags: W
LayerCount: 2
Fore
SplineSet
80 488.129 m 0
 111.413 456.33 228.346 422.415 300 470.129 c 0
 345.412 500.369 318.771 600 248 600 c 0
 176 600 149.972 478.039 185.871 408 c 0
 219.093 343.184 295.871 344.128 367.871 366.129 c 1
 271.871 340.128 209.872 292 219.871 244 c 0
 242.514 135.307 301.872 140 375.871 140 c 0
 457.872 140 519 212 571 294.129 c 0
-40 600 m 1
 481 600 l 1
EndSplineSet
LCarets2: 1 0 
Ligature2: "Half forms-1" dha virAma
EndChar

StartChar: ardhana
Encoding: 191 -1 191
Width: 451
VWidth: 0
Flags: W
LayerCount: 2
Fore
SplineSet
233.787 576.437 m 0
 239.189 522 185.189 488 149.959 504 c 0
 109.037 522.585 107.189 600 162.212 600 c 0
 297.786 600 335.189 388 369.189 234 c 0
 386.915 153.714 365.188 0 277.189 0 c 0
 237.188 0 199.816 40.3291 209.189 108.437 c 0
 239.188 326.437 433.5 408 541.5 444 c 0
0 600 m 1
 451 600 l 1
EndSplineSet
LCarets2: 1 0 
Ligature2: "Half forms-1" na virAma
EndChar

StartChar: ardhapa
Encoding: 192 -1 192
Width: 391
VWidth: 0
Flags: W
LayerCount: 2
Fore
SplineSet
126.091 600 m 0
 132.075 497.318 100.346 431.004 141.437 336.713 c 0
 171.679 267.316 217.914 210.827 293.437 216 c 0
 370.669 221.29 425.5 322 481.5 404 c 0
0 600 m 1
 391 600 l 1
EndSplineSet
LCarets2: 1 0 
Ligature2: "Half forms-1" pa virAma
EndChar

StartChar: ardhapha
Encoding: 193 -1 193
Width: 562
VWidth: 0
Flags: W
LayerCount: 2
Fore
SplineSet
129.724 600 m 0
 101.724 508.936 129.988 256.35 269.977 252.936 c 0
 433.977 248.936 429.977 600 411.977 600 c 0
 375.977 600 442.977 0 399.977 0 c 0
 372.977 0 370.5 237 652.5 324 c 0
0 600 m 1
 562 600 l 1
EndSplineSet
LCarets2: 1 0 
Ligature2: "Half forms-1" pha virAma
EndChar

StartChar: ardhaba
Encoding: 194 -1 194
Width: 474
VWidth: 0
Flags: W
LayerCount: 2
Fore
SplineSet
564 93 m 0
 489 24 441 0 375.847 0 c 0
 313.847 0 172.84 15.9473 157.117 139.983 c 0
 139.117 281.983 181.118 333.982 321.117 389.983 c 1
 199.117 331.983 139.117 377.983 122.588 447 c 0
 106.521 514.087 167.118 565.983 253.117 600 c 0
0 600 m 1
 474 600 l 1
EndSplineSet
LCarets2: 1 0 
Ligature2: "Half forms-1" ba virAma
EndChar

StartChar: ardhabha
Encoding: 195 -1 195
Width: 498
VWidth: 0
Flags: W
LayerCount: 2
Fore
SplineSet
390.263 528 m 0
 336.263 488 242.629 416.018 150.263 450 c 0
 93.0166 471.062 122.126 600 194.562 600 c 0
 289.837 600 300.604 332.584 244.562 152 c 0
 226.562 94 163.222 97.0596 142.562 130 c 0
 121.771 163.148 165.208 203.354 226.562 222 c 0
 430.562 284 560.438 312 588 399 c 0
0 600 m 1
 498 600 l 1
EndSplineSet
LCarets2: 1 0 
Ligature2: "Half forms-1" bha virAma
EndChar

StartChar: ardhama
Encoding: 196 -1 196
Width: 397
VWidth: 0
Flags: W
LayerCount: 2
Fore
SplineSet
142.585 600 m 0
 195.657 510.141 256.585 74.8594 172.585 74.8594 c 0
 38.9277 74.8594 199.928 309 487 309 c 0
0 600 m 1
 397 600 l 1
EndSplineSet
LCarets2: 1 0 
Ligature2: "Half forms-1" ma virAma
EndChar

StartChar: ardhaya
Encoding: 197 -1 197
Width: 490
Flags: W
LayerCount: 2
Fore
SplineSet
188 600 m 0
 284 600 344.644 489.815 324 430 c 0
 287.021 322.856 221 306 128 261 c 1
 197 216 257.19 145.825 356 150 c 0
 448.081 153.891 529 201 580 279 c 0
0 600 m 1
 490 600 l 1
EndSplineSet
LCarets2: 1 0 
Ligature2: "Half forms-1" ya virAma
EndChar

StartChar: ardhara
Encoding: 198 -1 198
Width: 393
VWidth: 0
Flags: W
LayerCount: 2
Fore
SplineSet
120 375 m 0
 303.5 234 432.5 327 483.5 405 c 0
0 600 m 1
 393 600 l 1
EndSplineSet
LCarets2: 1 0 
Ligature2: "Half forms-1" ra virAma
EndChar

StartChar: ardhala
Encoding: 199 -1 199
Width: 441
VWidth: 0
Flags: W
LayerCount: 2
Fore
SplineSet
163.3 600 m 0
 124.798 557.812 102.212 486.27 137.802 429 c 0
 224.36 289.715 372.102 289.804 446.798 143.812 c 0
 476.888 85.002 450.798 0 357.3 0 c 0
 270.428 0 247.04 80.2686 272.798 137.812 c 0
 336.588 280.321 429.5 474 531.5 600 c 0
0 600 m 1
 441 600 l 1
EndSplineSet
LCarets2: 1 0 
Ligature2: "Half forms-1" la virAma
EndChar

StartChar: ardhava
Encoding: 200 -1 200
Width: 439
VWidth: 0
Flags: W
LayerCount: 2
Fore
SplineSet
174.936 600 m 0
 135.936 457.5 107.533 237 125.533 156 c 0
 149.75 47.0234 232.327 0 365.533 0 c 0
 463 0 478 24 529 96 c 0
0 600 m 1
 439 600 l 1
EndSplineSet
LCarets2: 1 0 
Ligature2: "Half forms-1" va virAma
EndChar

StartChar: ardhaza
Encoding: 201 -1 201
Width: 408
VWidth: 0
Flags: W
LayerCount: 2
Fore
SplineSet
120 226 m 0
 228 234 321.709 307.964 381.459 420 c 0
 416.398 485.514 413.458 600 319.459 600 c 0
 167.76 600 154 364 498 292 c 0
0 600 m 1
 408 600 l 1
EndSplineSet
LCarets2: 1 0 
Ligature2: "Half forms-1" za virAma
EndChar

StartChar: ardhaSa
Encoding: 202 -1 202
Width: 391
VWidth: 0
Flags: W
LayerCount: 2
Fore
SplineSet
159.091 558 m 1
 411.5 336 l 1
126.091 600 m 0
 132.075 497.318 100.346 431.004 141.437 336.713 c 0
 171.679 267.316 217.914 210.827 293.437 216 c 0
 370.669 221.29 425.5 322 481.5 404 c 0
0 600 m 1
 391 600 l 1
EndSplineSet
LCarets2: 1 0 
Ligature2: "Half forms-1" Sa virAma
EndChar

StartChar: ardhasa
Encoding: 203 -1 203
Width: 423
VWidth: 0
Flags: W
LayerCount: 2
Fore
SplineSet
162.5 279 m 0
 249.5 318 387.5 336 513.5 336 c 0
301.704 0 m 0
 160.704 0 143.08 84.9629 124.704 182.356 c 0
 98.0839 323.443 319.794 600 179.794 600 c 0
 157.934 600 101.795 576 123.794 522 c 0
0 600 m 1
 423 600 l 1
EndSplineSet
LCarets2: 1 0 
Ligature2: "Half forms-1" sa virAma
EndChar

StartChar: ardhakSa
Encoding: 206 -1 206
Width: 539
VWidth: 0
Flags: W
LayerCount: 2
Fore
SplineSet
391.926 491.363 m 0
 530.5 302.863 650.5 428.862 626.5 428.862 c 0
286.926 431.363 m 0
 145.926 533.363 187.926 689.363 280.926 695.363 c 0
 412.788 703.871 442.926 560.363 391.926 491.363 c 0
 314.24 386.26 186.852 456 126.852 264 c 0
 99.1406 175.326 158.551 77.1758 249.852 60 c 0
 338.925 43.2441 388.282 126.46 429.852 207 c 0
 446.417 239.096 344.515 282.094 345.852 246 c 0
 348.852 165 390.852 84 504.852 0 c 0
0 600 m 1
 539 600 l 1
EndSplineSet
LCarets2: 1 0 
Ligature2: "Half forms-1" kSa virAma
EndChar

StartChar: tha.alt
Encoding: 208 -1 208
Width: 752
VWidth: 0
Flags: W
AnchorPoint: "anusvara" 450 800 basechar 0
AnchorPoint: "eT" 581 600 basechar 0
LayerCount: 2
Fore
SplineSet
580.925 600 m 0
 562.925 440.825 537.925 0 612.925 0 c 0
 650.925 0 662.925 34.8252 672.925 72.8252 c 0
263 384 m 0
 131 399 122 600 245 600 c 0
 341 600 355.644 524.815 335 465 c 0
 298.021 357.856 221 306 128 261 c 1
 197 216 257.19 145.825 356 150 c 0
 448.081 153.891 503 201 554 279 c 0
0 600 m 1
 752 600 l 1
EndSplineSet
EndChar

StartChar: da.alt
Encoding: 209 -1 209
Width: 458
VWidth: 0
Flags: W
AnchorPoint: "anusvara" 300 800 basechar 0
AnchorPoint: "eT" 284 600 basechar 0
LayerCount: 2
Fore
SplineSet
284.429 600 m 4
 172.429 533.927 83.7725 417.704 134.772 345.704 c 0
 184.789 275.091 345.96 277.05 347.772 318.704 c 0
 350.772 387.704 170.772 318.704 185.772 189.704 c 0
 203.169 40.083 315.463 0 417.463 0 c 0
0 600 m 1
 458 600 l 1
0 600 m 1
 458 600 l 1
EndSplineSet
EndChar

StartChar: dha.alt
Encoding: 210 -1 210
Width: 726
VWidth: 0
Flags: W
AnchorPoint: "anusvara" 410 800 basechar 0
AnchorPoint: "eT" 555 600 basechar 0
LayerCount: 2
Fore
SplineSet
554.462 600 m 0
 536.462 440.825 511.462 0 586.462 0 c 0
 624.462 0 636.462 34.8252 646.462 72.8252 c 0
80 488.129 m 0
 111.413 456.33 228.346 422.415 300 470.129 c 0
 345.412 500.369 318.771 600 248 600 c 0
 176 600 149.972 478.039 185.871 408 c 0
 219.093 343.184 295.871 344.128 367.871 366.129 c 1
 271.871 340.128 209.872 292 219.871 244 c 0
 242.514 135.307 301.872 140 375.871 140 c 0
 457.872 140 499.872 218 533.871 294.129 c 0
-0 600 m 1
 726 600 l 1
EndSplineSet
EndChar

StartChar: pa.alt
Encoding: 211 -1 211
Width: 575
Flags: W
AnchorPoint: "anusvara" 300 800 basechar 0
AnchorPoint: "eT" 444 600 basechar 0
LayerCount: 2
Fore
SplineSet
444.091 600 m 0
 445.396 366 399.438 0 447.437 0 c 0
 479.438 0 483.438 30.7129 495.437 62.7129 c 0
126.091 600 m 0
 132.075 497.318 100.346 431.004 141.437 336.713 c 0
 171.679 267.316 217.914 210.827 293.437 216 c 0
 370.669 221.29 409.438 300.713 433.437 356.713 c 0
0 600 m 1
 575 600 l 1
EndSplineSet
EndChar

StartChar: ma.alt
Encoding: 212 -1 212
Width: 750
VWidth: 0
Flags: W
AnchorPoint: "eT" 589 600 basechar 0
AnchorPoint: "anusvara" 420 800 basechar 0
LayerCount: 2
Fore
SplineSet
664.837 72.8252 m 0
 654.837 34.8252 642.837 0 604.837 0 c 0
 553.837 0 534.562 600 588.562 600 c 4
 714.562 600 430.562 284 226.562 222 c 0
 165.208 203.354 121.771 163.148 142.562 130 c 0
 163.222 97.0596 226.562 94 244.562 152 c 0
 300.604 332.584 244.511 532.412 205.511 600 c 0
0 600 m 1
 750 600 l 1
EndSplineSet
EndChar

StartChar: ya.alt
Encoding: 213 -1 213
Width: 752
VWidth: 0
Flags: W
AnchorPoint: "eT" 581 600 basechar 0
AnchorPoint: "anusvara" 415 800 basechar 0
LayerCount: 2
Fore
SplineSet
672.925 72.8252 m 0
 662.925 34.8252 650.925 0 612.925 0 c 0
 537.925 0 562.925 440.825 580.925 600 c 4
190.511 600 m 0
 295.511 570 290.143 512.507 277.511 444 c 0
 260.798 353.367 221 306 128 261 c 1
 197 216 257.19 145.825 356 150 c 0
 448.081 153.891 503 201 554 279 c 0
0 600 m 1
 752 600 l 1
EndSplineSet
EndChar

StartChar: ra.alt
Encoding: 214 -1 214
Width: 607
VWidth: 0
Flags: W
AnchorPoint: "anusvara" 400 800 basechar 0
AnchorPoint: "eT" 436 600 basechar 0
LayerCount: 2
Fore
SplineSet
435.462 600 m 4
 417.462 440.825 392.462 0 467.462 0 c 0
 505.462 0 517.462 34.8252 527.462 72.8252 c 0
120 294 m 0
 288 285 357.537 342 408.537 420 c 0
0 600 m 1
 607 600 l 1
EndSplineSet
EndChar

StartChar: kra
Encoding: 215 -1 215
Width: 781
VWidth: 0
Flags: W
AnchorPoint: "anusvara" 500 800 basechar 0
AnchorPoint: "eT" 617 600 basechar 0
LayerCount: 2
Fore
SplineSet
249 0 m 21
 212.5 -87 144 -156 -21 -201 c 13
331 600 m 0
 231.999 564 145.513 492.476 121.419 375 c 0
 105.029 295.09 235.757 291.075 251.212 210.979 c 0
 265.15 138.741 252.553 33.4893 187.315 33.4893 c 0
 147.212 33.4893 109.26 89.5254 130.315 126.489 c 0
 175.315 205.489 621.315 219.489 653.315 111.489 c 0
 673.038 44.9238 660.292 0 593.315 0 c 0
 491.315 0 507.315 467.489 615.315 600 c 0
0 600 m 1
 781 600 l 1
EndSplineSet
LCarets2: 1 0 
Ligature2: "Vattu forms-1" ka raphala
Ligature2: "Rakaar ligatures-1" ka virAma ra
Substitution2: "IT forms-1" kri
EndChar

StartChar: khra
Encoding: 216 -1 216
Width: 760
VWidth: 0
Flags: W
AnchorPoint: "anusvara" 500 800 basechar 0
AnchorPoint: "eT" 620 601.927 basechar 0
LayerCount: 2
Fore
SplineSet
120 600 m 0
 181.806 648.704 201.611 661.408 265.806 660.704 c 0
 351.019 659.77 332.879 594.665 313.806 552.704 c 0
 283.806 486.704 121.806 417.704 172.806 345.704 c 0
 222.823 275.091 383.994 277.05 385.806 318.704 c 0
 388.806 387.704 208.806 318.704 223.806 189.704 c 0
 241.203 40.083 338.971 0 514.806 0 c 0
 712.806 0 631.806 237.704 577.806 417.704 c 0
 548.455 515.54 544.806 567.704 619.806 600 c 0
0 600 m 1
 760 600 l 1
311 0 m 21
 274.5 -87 144 -156 -21 -201 c 13
EndSplineSet
LCarets2: 1 0 
Ligature2: "Vattu forms-1" kha raphala
Ligature2: "Rakaar ligatures-1" kha virAma ra
Substitution2: "IT forms-1" khri
EndChar

StartChar: gra
Encoding: 217 -1 217
Width: 657
VWidth: 0
Flags: W
AnchorPoint: "anusvara" 350 800 basechar 0
AnchorPoint: "eT" 476 600 basechar 0
LayerCount: 2
Fore
SplineSet
129.381 0 m 21
 255 21 390 114 453.381 238 c 13
475.486 600 m 0
 469.486 351.704 448.486 0 491.681 0 c 0
 550.486 0 562.486 33.7041 577.486 69.7041 c 0
197.681 600 m 0
 247.486 414.704 261.805 367.704 249.805 283.704 c 0
 242.909 235.43 192.841 200.44 146 214 c 0
 107.336 225.192 109.181 286.516 135.805 316.704 c 0
 165.466 350.337 225.805 364.704 249.805 331.704 c 0
0 600 m 1
 657 600 l 1
EndSplineSet
LCarets2: 1 0 
Ligature2: "Vattu forms-1" ga raphala
Ligature2: "Rakaar ligatures-1" ga virAma ra
Substitution2: "IT forms-1" gri
EndChar

StartChar: ghra
Encoding: 218 -1 218
Width: 654
VWidth: 0
Flags: W
AnchorPoint: "anusvara" 350 800 basechar 0
AnchorPoint: "eT" 472 600 basechar 0
LayerCount: 2
Fore
SplineSet
111 0 m 21
 241.737 32.6875 393 90 453.381 238 c 13
472 600 m 0
 468.701 343.547 450.701 0 502 0 c 0
 540.701 0 550.701 17.5469 574.702 45.5469 c 0
208.298 600 m 0
 148 571.547 120 535.547 120 483.547 c 0
 120.001 407.892 228 407.547 304.298 423 c 1
 228 407.547 136.517 347.769 142 257.547 c 0
 146.399 185.161 240.636 180.153 318 197.547 c 0
 382.701 212.094 422.701 263.547 466 321 c 0
0 600 m 1
 654 600 l 1
EndSplineSet
LCarets2: 1 0 
Ligature2: "Vattu forms-1" gha raphala
Ligature2: "Rakaar ligatures-1" gha virAma ra
Substitution2: "IT forms-1" ghri
EndChar

StartChar: Gra
Encoding: 219 -1 219
Width: 780
VWidth: 0
Flags: W
AnchorPoint: "eT" 468 600 basechar 0
AnchorPoint: "anusvara" 400 800 basechar 0
LayerCount: 2
Fore
SplineSet
0 600 m 1
 780 600 l 1
468 600 m 0
 366 570 293 470 309 390 c 0
 317.385 348.075 367.029 300.499 439 324 c 0
 537 356 573 314 573 198 c 0
 573 67.2139 505.115 0 352.885 0 c 0
 161.115 0 130 210 120 420 c 0
EndSplineSet
Refer: 171 -1 N 1 0 0 1 688 0 2
Refer: 58 2306 N 1 0 0 1 762 -381 2
LCarets2: 1 0 
Ligature2: "Vattu forms-1" Ga raphala
Ligature2: "Rakaar ligatures-1" Ga virAma ra
Substitution2: "IT forms-1" Gri
EndChar

StartChar: chra
Encoding: 221 -1 221
Width: 672
VWidth: 0
Flags: W
AnchorPoint: "anusvara" 400 800 basechar 0
AnchorPoint: "eT" 471 600 basechar 0
LayerCount: 2
Fore
SplineSet
253.117 600 m 0
 167.118 565.983 106.521 514.087 122.588 447 c 0
 139.117 377.983 199.117 331.983 321.117 389.983 c 1
 181.118 333.982 139.117 281.983 157.117 139.983 c 0
 172.84 15.9473 277.117 0 339.117 0 c 0
 441.118 0 520.071 89.0166 545.117 207.983 c 0
 585.118 397.982 459.118 467.982 444.588 401 c 0
 429.496 331.424 531.256 344.294 543.117 453.983 c 0
 551.118 527.966 507.118 585.982 471.117 600 c 0
0 600 m 1
 672 600 l 1
249 0 m 21
 212.5 -87 144 -156 -21 -201 c 13
EndSplineSet
LCarets2: 1 0 
Ligature2: "Vattu forms-1" cha raphala
Ligature2: "Rakaar ligatures-1" cha virAma ra
Substitution2: "IT forms-1" chri
EndChar

StartChar: jra
Encoding: 222 -1 222
Width: 663
VWidth: 0
Flags: W
AnchorPoint: "anusvara" 440 800 basechar 0
AnchorPoint: "eT" 543 600 basechar 0
LayerCount: 2
Fore
SplineSet
340.5 -36 m 21
 280.5 -112.8 175.5 -178.8 43.5 -198 c 13
261.655 576.437 m 0
 373.827 502 261.827 350 159.827 386 c 0
 44.9216 426.555 95.8272 600 190.08 600 c 0
 325.654 600 451.662 357.01 461.655 220.437 c 0
 467.654 138.437 443.654 0 355.655 0 c 0
 315.654 0 278.282 40.3291 287.655 108.437 c 0
 317.654 326.437 451.654 536.437 543.654 600 c 0
0 600 m 1
 663 600 l 1
EndSplineSet
LCarets2: 1 0 
Ligature2: "Vattu forms-1" ja raphala
Ligature2: "Rakaar ligatures-1" ja virAma ra
Substitution2: "IT forms-1" jri
EndChar

StartChar: jhra
Encoding: 223 -1 223
Width: 833
VWidth: 0
Flags: W
AnchorPoint: "anusvara" 550 800 basechar 0
AnchorPoint: "eT" 649 600 basechar 0
LayerCount: 2
Fore
SplineSet
442.116 303 m 0
 472.927 333.865 502.578 355.832 559.927 354 c 0
 626.737 351.865 790.229 133.585 671.737 102.865 c 0
 590.737 81.8652 599.737 444.865 649.927 600 c 0
340.927 600 m 0
 280.927 513.865 112.927 540.865 130.927 408.865 c 0
 151.476 258.175 375.024 451.367 442.116 303 c 0
 472.927 234.865 403.062 119.813 289.927 108.865 c 0
 196.927 99.8652 70.6602 133.306 139.927 174.865 c 0
 289.927 264.865 239.737 0 361.927 0 c 0
 422.327 0 464.737 21.8652 491.737 81.8652 c 0
0 600 m 1
 833 600 l 1
692.5 90 m 21
 686.5 9 648.577 -80.6537 560.5 -123 c 28
 389.574 -205.179 278.5 -192 81 -204 c 13
EndSplineSet
LCarets2: 1 0 
Ligature2: "Vattu forms-1" jha raphala
Ligature2: "Rakaar ligatures-1" jha virAma ra
Substitution2: "IT forms-1" jhri
EndChar

StartChar: Jra
Encoding: 224 -1 224
Width: 808
VWidth: 0
Flags: W
AnchorPoint: "anusvara" 550 800 basechar 0
AnchorPoint: "eT" 651 600 basechar 0
LayerCount: 2
Fore
SplineSet
460 293.28 m 0
 534 291.281 671.252 229.28 687.252 119.28 c 0
 694.831 67.1729 665.252 0 624 0 c 0
 532.22 0 648.22 452 651 600 c 0
226 409.28 m 0
 270 463.281 414.956 471.341 447.748 391 c 0
 486.112 297.008 428.927 168.317 327.748 160 c 0
 246 153.281 161.253 212.562 120 277.28 c 0
0 600 m 1
 808 600 l 1
677 0 m 21
 671 -81 640.298 -109.083 581 -133.5 c 4
 479 -175.5 332 -196.5 209 -199.5 c 13
EndSplineSet
LCarets2: 1 0 
Ligature2: "Vattu forms-1" Ja raphala
Ligature2: "Rakaar ligatures-1" Ja virAma ra
Substitution2: "IT forms-1" Jri
EndChar

StartChar: Nra
Encoding: 229 -1 229
Width: 707
VWidth: 0
Flags: W
AnchorPoint: "anusvara" 500 800 basechar 0
AnchorPoint: "eT" 536.148 600 basechar 0
LayerCount: 2
Fore
SplineSet
95.5 -99 m 29
 494.5 150 l 29
535.931 600 m 0
 517.931 440.825 492.931 0 567.931 0 c 0
 605.931 0 617.931 34.8252 627.931 72.8252 c 0
132.712 600 m 0
 159.657 476 31.6572 190 253.539 190 c 0
 308.755 190 387.154 278.08 391.539 338 c 0
 397.539 420 293.31 428.167 293.539 408 c 0
 295.539 232 383.539 482 380.713 600 c 0
0 600 m 1
 707 600 l 1
EndSplineSet
LCarets2: 1 0 
Ligature2: "Vattu forms-1" Na raphala
Ligature2: "Rakaar ligatures-1" Na virAma ra
Substitution2: "IT forms-1" Nri
EndChar

StartChar: tra
Encoding: 230 -1 230
Width: 710
VWidth: 0
Flags: W
AnchorPoint: "anusvara" 480 800 basechar 0
AnchorPoint: "eT" 465 600 basechar 0
LayerCount: 2
Fore
SplineSet
120 372 m 0
 176 420 249.933 463.479 338 446 c 0
 389.055 435.867 382 390 382 320 c 0
129.881 98 m 0
 246 150 324 218 408 342 c 0
 470.594 434.4 483.251 537.271 464.692 600 c 1
 537.251 531.271 426.251 0 554.692 0 c 0
 582.251 0 615.251 33.2725 630.252 66.2725 c 0
0 600 m 1
 710 600 l 1
EndSplineSet
LCarets2: 1 0 
Ligature2: "Vattu forms-1" ta raphala
Ligature2: "Rakaar ligatures-1" ta virAma ra
Substitution2: "IT forms-1" tri
EndChar

StartChar: thra
Encoding: 231 -1 231
Width: 752
VWidth: 0
Flags: W
AnchorPoint: "anusvara" 450 800 basechar 0
AnchorPoint: "eT" 581 600 basechar 0
LayerCount: 2
Fore
SplineSet
580.925 600 m 0
 562.925 440.825 537.925 0 612.925 0 c 0
 650.925 0 662.925 34.8252 672.925 72.8252 c 0
263 384 m 0
 131 399 122 600 245 600 c 0
 341 600 355.644 524.815 335 465 c 0
 298.021 357.856 221 306 128 261 c 1
 197 216 257.19 145.825 356 150 c 0
 448.081 153.891 503 201 554 279 c 0
138.463 -60 m 4
 368.462 -24 490.462 86 550.463 238 c 4
0 600 m 1
 752 600 l 1
EndSplineSet
LCarets2: 1 0 
Ligature2: "Vattu forms-1" tha raphala
Ligature2: "Rakaar ligatures-1" tha virAma ra
Substitution2: "IT forms-1" thri
EndChar

StartChar: dra
Encoding: 232 -1 232
Width: 754
VWidth: 0
Flags: W
AnchorPoint: "anusvara" 400 800 basechar 0
AnchorPoint: "eT" 581.966 601.927 basechar 0
LayerCount: 2
Fore
SplineSet
284.429 600 m 0
 172.429 533.927 83.7725 417.704 134.772 345.704 c 0
 184.789 275.091 345.96 277.05 347.772 318.704 c 0
 350.772 387.704 170.772 318.704 185.772 189.704 c 0
 203.169 40.083 300.938 0 476.772 0 c 0
 674.772 0 652 417.704 539.772 417.704 c 0
 505.855 417.704 475.834 283.906 493 198 c 0
 526.384 30.9277 722 78 664 -204 c 0
0 600 m 1
 754 600 l 1
EndSplineSet
LCarets2: 1 0 
Ligature2: "Vattu forms-1" da raphala
Ligature2: "Rakaar ligatures-1" da virAma ra
Substitution2: "IT forms-1" dri
EndChar

StartChar: dhra
Encoding: 233 -1 233
Width: 726
VWidth: 0
Flags: W
AnchorPoint: "anusvara" 410 800 basechar 0
AnchorPoint: "eT" 555 600 basechar 0
LayerCount: 2
Fore
SplineSet
554.462 600 m 0
 536.462 440.825 511.462 0 586.462 0 c 0
 624.462 0 636.462 34.8252 646.462 72.8252 c 0
80 488.129 m 0
 111.413 456.33 228.346 422.415 300 470.129 c 0
 345.412 500.369 318.771 600 248 600 c 0
 176 600 149.972 478.039 185.871 408 c 0
 219.093 343.184 295.871 344.128 367.871 366.129 c 1
 271.871 340.128 209.872 292 219.871 244 c 0
 242.514 135.307 301.872 140 375.871 140 c 0
 457.872 140 499.872 218 533.871 294.129 c 0
165.231 -60 m 1
 524.463 208 l 1
-0 600 m 5
 726 600 l 1
EndSplineSet
LCarets2: 1 0 
Ligature2: "Vattu forms-1" dha raphala
Ligature2: "Rakaar ligatures-1" dha virAma ra
Substitution2: "IT forms-1" dhri
EndChar

StartChar: nra
Encoding: 234 -1 234
Width: 585
VWidth: 0
Flags: W
AnchorPoint: "anusvara" 350 800 basechar 0
AnchorPoint: "eT" 465 600 basechar 0
LayerCount: 2
Fore
SplineSet
233.787 576.437 m 0
 239.189 522 185.189 488 149.959 504 c 0
 109.037 522.585 107.189 600 162.212 600 c 0
 297.786 600 335.189 388 369.189 234 c 0
 386.915 153.714 365.188 0 277.189 0 c 0
 237.188 0 199.816 40.3291 209.189 108.437 c 0
 239.188 326.437 373.188 536.437 465.188 600 c 0
0 600 m 1
 585 600 l 1
349.5 -10.7998 m 21
 292.5 -136.8 160.5 -187.8 43.5 -198 c 13
EndSplineSet
LCarets2: 1 0 
Ligature2: "Vattu forms-1" na raphala
Ligature2: "Rakaar ligatures-1" na virAma ra
Substitution2: "IT forms-1" nri
EndChar

StartChar: pra
Encoding: 235 -1 235
Width: 575
Flags: W
AnchorPoint: "anusvara" 300 800 basechar 0
AnchorPoint: "eT" 444 600 basechar 0
LayerCount: 2
Fore
SplineSet
444.091 600 m 0
 445.396 366 399.438 0 447.437 0 c 0
 479.438 0 483.438 30.7129 495.437 62.7129 c 0
126.091 600 m 0
 132.075 497.318 100.346 431.004 141.437 336.713 c 0
 171.679 267.316 217.914 210.827 293.437 216 c 0
 370.669 221.29 409.438 300.713 433.437 356.713 c 0
65.7188 0 m 4
 211.719 30 345.719 134 422.463 246 c 4
0 600 m 1
 575 600 l 1
EndSplineSet
LCarets2: 1 0 
Ligature2: "Vattu forms-1" pa raphala
Ligature2: "Rakaar ligatures-1" pa virAma ra
Substitution2: "IT forms-1" pri
EndChar

StartChar: phra
Encoding: 236 -1 236
Width: 879
VWidth: 0
Flags: W
AnchorPoint: "anusvara" 500 800 basechar 0
AnchorPoint: "eT" 759 600 basechar 0
LayerCount: 2
Fore
SplineSet
129.724 600 m 0
 101.724 508.936 129.988 256.35 269.977 252.936 c 0
 433.977 248.936 429.977 600 411.977 600 c 0
 375.977 600 442.977 0 399.977 0 c 0
 372.977 0 375.977 183 474.724 183 c 0
 799.729 183 733.724 0 711.724 0 c 0
 659.724 0 660.173 495 759.173 600 c 0
0 600 m 1
 879 600 l 1
505.5 79.5 m 21
 562.5 -6 469.5 -193.5 289.5 -208.5 c 13
EndSplineSet
LCarets2: 1 0 
Ligature2: "Vattu forms-1" pha raphala
Ligature2: "Rakaar ligatures-1" pha virAma ra
Substitution2: "IT forms-1" phri
EndChar

StartChar: bra
Encoding: 237 -1 237
Width: 756
VWidth: 0
Flags: W
AnchorPoint: "anusvara" 400 800 basechar 0
AnchorPoint: "eT" 577 600 basechar 0
LayerCount: 2
Fore
SplineSet
636.847 93 m 0
 561.847 24 525.847 0 375.847 0 c 0
 313.847 0 172.84 15.9473 157.117 139.983 c 0
 139.117 281.983 181.118 333.982 321.117 389.983 c 1
 199.117 331.983 139.117 377.983 122.588 447 c 0
 106.521 514.087 167.118 565.983 253.117 600 c 0
577.5 600 m 0
 532.5 585 533 537 527 396 c 0
 521.731 272.201 516.019 166.335 509 19.5 c 0
0 600 m 1
 756 600 l 1
249 0 m 21
 212.5 -87 144 -156 -21 -201 c 13
EndSplineSet
LCarets2: 1 0 
Ligature2: "Vattu forms-1" ba raphala
Ligature2: "Rakaar ligatures-1" ba virAma ra
Substitution2: "IT forms-1" bri
EndChar

StartChar: bhra
Encoding: 238 -1 238
Width: 750
VWidth: 0
Flags: W
AnchorPoint: "anusvara" 420 800 basechar 0
AnchorPoint: "eT" 589 600 basechar 0
LayerCount: 2
Fore
SplineSet
543 162 m 21
 497 37.5 314 -73.5 198 -96 c 13
390.263 528 m 0
 336.263 488 242.629 416.018 150.263 450 c 0
 93.0166 471.062 122.126 600 194.562 600 c 0
 289.837 600 300.604 332.584 244.562 152 c 0
 226.562 94 163.222 97.0596 142.562 130 c 0
 121.771 163.148 165.208 203.354 226.562 222 c 0
 430.562 284 714.562 600 588.562 600 c 0
 534.562 600 553.837 0 604.837 0 c 0
 644.562 0 662.562 32 670.562 56 c 0
0 600 m 1
 750 600 l 1
EndSplineSet
LCarets2: 1 0 
Ligature2: "Vattu forms-1" bha raphala
Ligature2: "Rakaar ligatures-1" bha virAma ra
Substitution2: "IT forms-1" bhri
EndChar

StartChar: mra
Encoding: 239 -1 239
Width: 752
VWidth: 0
Flags: W
AnchorPoint: "anusvara" 400 800 basechar 0
AnchorPoint: "eT" 589 600 basechar 0
LayerCount: 2
Fore
SplineSet
142.585 600 m 0
 195.657 510.141 256.585 0 172.585 0 c 0
 38.9277 0 169.585 186.141 456.657 186.141 c 0
 672.657 186.141 660.657 0 574.585 0 c 0
 438.657 0 535.585 525.141 588.657 600 c 0
0 600 m 1
 752 600 l 1
260.5 97.4619 m 21
 368.5 -91.5381 131.5 -204 -21 -201 c 13
EndSplineSet
LCarets2: 1 0 
Ligature2: "Vattu forms-1" ma raphala
Ligature2: "Rakaar ligatures-1" ma virAma ra
Substitution2: "IT forms-1" mri
EndChar

StartChar: yra
Encoding: 240 -1 240
Width: 752
VWidth: 0
Flags: W
AnchorPoint: "eT" 581 600 basechar 0
AnchorPoint: "anusvara" 415 800 basechar 0
LayerCount: 2
Fore
SplineSet
672.925 72.8252 m 0
 662.925 34.8252 650.925 0 612.925 0 c 0
 537.925 0 562.925 440.825 580.925 600 c 0
190.511 600 m 0
 295.511 570 290.143 512.507 277.511 444 c 0
 260.798 353.367 221 306 128 261 c 1
 197 216 257.19 145.825 356 150 c 0
 448.081 153.891 503 201 554 279 c 0
0 600 m 1
 752 600 l 1
138.463 -60 m 21
 368.462 -24 490.462 86 550.463 238 c 13
EndSplineSet
LCarets2: 1 0 
Ligature2: "Vattu forms-1" ya raphala
Ligature2: "Rakaar ligatures-1" ya virAma ra
Substitution2: "IT forms-1" yri
EndChar

StartChar: lra
Encoding: 242 -1 242
Width: 685
VWidth: 0
Flags: W
AnchorPoint: "anusvara" 400 800 basechar 0
AnchorPoint: "eT" 537 600 basechar 0
LayerCount: 2
Fore
SplineSet
163.3 600 m 0
 124.798 557.812 102.212 486.27 137.802 429 c 0
 224.36 289.715 372.102 289.804 446.798 143.812 c 0
 476.888 85.002 450.798 0 357.3 0 c 0
 270.428 0 247.04 80.2686 272.798 137.812 c 0
 336.588 280.321 471.357 292.236 548.798 427.812 c 0
 582.186 486.265 556.798 545.812 536.798 600 c 0
0 600 m 1
 685 600 l 1
249 0 m 21
 212.5 -87 144 -156 -21 -201 c 13
EndSplineSet
LCarets2: 1 0 
Ligature2: "Vattu forms-1" la raphala
Ligature2: "Rakaar ligatures-1" la virAma ra
Substitution2: "IT forms-1" lri
EndChar

StartChar: vra
Encoding: 243 -1 243
Width: 746
VWidth: 0
Flags: W
AnchorPoint: "anusvara" 400 800 basechar 0
AnchorPoint: "eT" 567 600 basechar 0
LayerCount: 2
Fore
SplineSet
174.936 600 m 0
 135.936 457.5 107.533 237 125.533 156 c 0
 149.75 47.0234 232.327 0 365.533 0 c 0
 515.533 0 551.533 24 626.533 93 c 0
567.186 600 m 0
 522.186 585 522.686 537 516.686 396 c 0
 511.418 272.201 505.705 166.335 498.686 19.5 c 0
0 600 m 1
 746 600 l 1
249 0 m 21
 212.5 -87 144 -156 -21 -201 c 13
EndSplineSet
LCarets2: 1 0 
Ligature2: "Vattu forms-1" va raphala
Ligature2: "Rakaar ligatures-1" va virAma ra
Substitution2: "IT forms-1" vri
EndChar

StartChar: zra
Encoding: 244 -1 244
Width: 716
VWidth: 0
Flags: W
AnchorPoint: "anusvara" 369.16 800 basechar 0
AnchorPoint: "eT" 544.16 600 basechar 0
LayerCount: 2
Fore
SplineSet
120 226 m 0
 228 234 321.709 307.964 381.459 420 c 0
 416.398 485.514 413.458 600 319.459 600 c 0
 167.76 600 154 364 498 292 c 0
175.459 0 m 4
 288.188 28 442.917 124 508.188 220 c 4
544.376 600 m 0
 526.376 440.825 501.376 0 576.376 0 c 0
 614.376 0 626.376 34.8252 636.376 72.8252 c 0
0 600 m 1
 716 600 l 1
EndSplineSet
LCarets2: 1 0 
Ligature2: "Vattu forms-1" za raphala
Ligature2: "Rakaar ligatures-1" za virAma ra
Substitution2: "IT forms-1" zri
EndChar

StartChar: Sra
Encoding: 245 -1 245
Width: 575
VWidth: 0
Flags: W
AnchorPoint: "anusvara" 350 800 basechar 0
AnchorPoint: "eT" 444 600 basechar 0
LayerCount: 2
Fore
SplineSet
159.091 558 m 1
 407.437 346.713 l 1
444.091 600 m 0
 445.396 366 399.438 0 447.437 0 c 0
 479.438 0 483.438 30.7129 495.437 62.7129 c 0
126.091 600 m 0
 132.075 497.318 100.346 431.004 141.437 336.713 c 0
 171.679 267.316 217.914 210.827 293.437 216 c 0
 370.669 221.29 409.438 300.713 433.437 356.713 c 0
0 600 m 1
 575 600 l 1
65.7188 0 m 21
 211.719 30 345.719 134 422.463 246 c 13
EndSplineSet
LCarets2: 1 0 
Ligature2: "Vattu forms-1" Sa raphala
Ligature2: "Rakaar ligatures-1" Sa virAma ra
Substitution2: "IT forms-1" Sri
EndChar

StartChar: sra
Encoding: 246 -1 246
Width: 828
VWidth: 0
Flags: W
AnchorPoint: "eT" 656 600 basechar 0
AnchorPoint: "anusvara" 444.441 800 basechar 0
LayerCount: 2
Fore
SplineSet
602.75 232 m 0
 578.75 96 444 -38 320 -82 c 0
628.75 266 m 0
 450.75 206 378.75 262 344.75 290 c 0
270.955 320 m 0
 176.955 292 120.456 274 120.456 203.312 c 0
 120.456 138 180 62 266 0 c 0
252.457 600 m 0
 291.457 548.312 324.174 442 324.174 342 c 0
 324.174 251.104 292.955 158 190.955 250 c 0
656.75 600 m 0
 638.75 440.825 613.75 0 688.75 0 c 0
 726.75 0 738.75 34.8252 748.75 72.8252 c 0
0 600 m 1
 828 600 l 1
EndSplineSet
LCarets2: 1 0 
Ligature2: "Vattu forms-1" sa raphala
Ligature2: "Rakaar ligatures-1" sa virAma ra
Substitution2: "IT forms-1" sri
EndChar

StartChar: hra
Encoding: 247 -1 247
Width: 644
VWidth: 0
Flags: W
AnchorPoint: "anusvara" 350 800 basechar 0
AnchorPoint: "eT" 428.38 600 basechar 0
LayerCount: 2
Fore
SplineSet
212.212 600 m 0
 163.487 550 127.118 498.255 146.808 430 c 0
 161.887 377.728 204.251 355.999 276.251 378 c 1
 180.251 351.999 100.426 258.189 124.251 156 c 0
 149.608 47.2393 226.251 0 364.38 0 c 0
 484.901 0 513.249 68.5312 522.38 154.129 c 0
 541.229 330.839 400.38 390.129 428.38 600 c 0
0 600 m 1
 644 600 l 1
249 0 m 21
 212.5 -87 144 -156 -21 -201 c 13
EndSplineSet
LCarets2: 1 0 
Ligature2: "Vattu forms-1" ha raphala
Ligature2: "Rakaar ligatures-1" ha virAma ra
Substitution2: "IT forms-1" hri
EndChar

StartChar: kSra
Encoding: 249 -1 249
Width: 779
VWidth: 0
Flags: W
AnchorPoint: "anusvara" 500 800 basechar 0
AnchorPoint: "eT" 620 600 basechar 0
LayerCount: 2
Fore
SplineSet
582.381 189.863 m 21
 554.976 53.1417 380.5 -64.2061 275.5 -97.2061 c 13
391.926 491.363 m 0
 595.926 170.363 645.852 600 621.852 600 c 0
 579.852 600 585.852 0 648.852 0 c 0
 673.197 0 687.852 0 699.852 36 c 0
286.926 431.363 m 0
 145.926 533.363 187.926 689.363 280.926 695.363 c 0
 412.788 703.871 442.926 560.363 391.926 491.363 c 0
 314.24 386.26 186.852 481.862 126.852 289.862 c 0
 99.1406 201.188 158.551 143.038 249.852 125.862 c 0
 338.925 109.106 388.282 192.322 429.852 272.862 c 0
 446.417 304.959 344.515 347.957 345.852 311.862 c 0
 348.852 230.862 348.381 203.725 462.381 119.725 c 0
0 600 m 1
 779 600 l 1
EndSplineSet
LCarets2: 1 0 
Ligature2: "Vattu forms-1" kSa raphala
Ligature2: "Rakaar ligatures-1" kSa virAma ra
Substitution2: "IT forms-1" kSri
EndChar

StartChar: krA
Encoding: 251 -1 251
Width: 881
VWidth: 0
Flags: W
AnchorPoint: "anusvara" 600 800 basechar 0
AnchorPoint: "eT" 717 600 basechar 0
LayerCount: 2
Fore
SplineSet
249 0 m 21
 212.5 -87 144 -156 -21 -201 c 13
EndSplineSet
Refer: 60 -1 S 1 0 0 1 0 0 2
LCarets2: 1 0 
Ligature2: "AT ligatures-1" kra AT
EndChar

StartChar: khrA
Encoding: 252 -1 252
Width: 960
VWidth: 0
Flags: W
AnchorPoint: "anusvara" 700 800 basechar 0
AnchorPoint: "eT" 820 601.927 basechar 0
LayerCount: 2
Fore
SplineSet
311 0 m 21
 274.5 -87 144 -156 -21 -201 c 13
EndSplineSet
Refer: 61 -1 S 1 0 0 1 0 0 2
LCarets2: 1 0 
Ligature2: "AT ligatures-1" khra AT
EndChar

StartChar: jrA
Encoding: 258 -1 258
Width: 823
VWidth: 0
Flags: W
AnchorPoint: "anusvara" 470.945 800 basechar 0
AnchorPoint: "eT" 659.945 600 basechar 0
LayerCount: 2
Fore
SplineSet
300 0 m 17
 351 -102 128 -195 -19 -201 c 9
EndSplineSet
Refer: 67 -1 N 1 0 0 1 0 0 2
LCarets2: 1 0 
Ligature2: "AT ligatures-1" jra AT
EndChar

StartChar: jhrA
Encoding: 259 -1 259
Width: 1033
VWidth: 0
Flags: W
AnchorPoint: "anusvara" 750 800 basechar 0
AnchorPoint: "eT" 849 600 basechar 0
LayerCount: 2
Fore
SplineSet
692.5 90 m 21
 686.5 9 648.577 -80.6537 560.5 -123 c 28
 389.574 -205.179 278.5 -192 81 -204 c 13
EndSplineSet
Refer: 68 -1 S 1 0 0 1 0 0 2
LCarets2: 1 0 
Ligature2: "AT ligatures-1" jhra AT
EndChar

StartChar: JrA
Encoding: 260 -1 260
Width: 1008
VWidth: 0
Flags: W
AnchorPoint: "anusvara" 750 800 basechar 0
AnchorPoint: "eT" 851 600 basechar 0
LayerCount: 2
Fore
SplineSet
677 0 m 21
 671 -81 640.298 -109.083 581 -133.5 c 4
 479 -175.5 332 -196.5 209 -199.5 c 13
EndSplineSet
Refer: 69 -1 S 1 0 0 1 0 0 2
LCarets2: 1 0 
Ligature2: "AT ligatures-1" Jra AT
EndChar

StartChar: nrA
Encoding: 270 -1 270
Width: 772
VWidth: 0
Flags: W
AnchorPoint: "anusvara" 419.627 800 basechar 0
AnchorPoint: "eT" 608.627 600 basechar 0
LayerCount: 2
Fore
SplineSet
263 0 m 21
 314 -102 128 -195 -19 -201 c 13
EndSplineSet
Refer: 79 -1 N 1 0 0 1 0 0 2
LCarets2: 1 0 
Ligature2: "AT ligatures-1" nra AT
EndChar

StartChar: phrA
Encoding: 272 -1 272
Width: 1079
VWidth: 0
Flags: W
AnchorPoint: "anusvara" 700 800 basechar 0
AnchorPoint: "eT" 959 600 basechar 0
LayerCount: 2
Fore
SplineSet
505.5 79.5 m 21
 562.5 -6 469.5 -193.5 289.5 -208.5 c 13
EndSplineSet
Refer: 81 -1 S 1 0 0 1 0 0 2
LCarets2: 1 0 
Ligature2: "AT ligatures-1" phra AT
EndChar

StartChar: brA
Encoding: 273 -1 273
Width: 797
VWidth: 0
Flags: W
AnchorPoint: "anusvara" 450 800 basechar 0
AnchorPoint: "eT" 627 600 basechar 0
LayerCount: 2
Fore
SplineSet
249 0 m 21
 212.5 -87 144 -156 -21 -201 c 13
EndSplineSet
Refer: 82 -1 S 1 0 0 1 0 0 2
LCarets2: 1 0 
Ligature2: "AT ligatures-1" bra AT
EndChar

StartChar: bhrA
Encoding: 274 -1 274
Width: 881
VWidth: 0
Flags: W
AnchorPoint: "anusvara" 600 800 basechar 0
AnchorPoint: "eT" 717 600 basechar 0
LayerCount: 2
Fore
SplineSet
257.5 0 m 17
 212.5 -81 127.503 -189.999 -24.5 -201 c 9
EndSplineSet
Refer: 83 -1 N 1 0 0 1 0 0 2
LCarets2: 1 0 
Ligature2: "AT ligatures-1" bhra AT
EndChar

StartChar: mrA
Encoding: 275 -1 275
Width: 753
VWidth: 0
Flags: W
AnchorPoint: "anusvara" 434.631 800 basechar 0
AnchorPoint: "eT" 623.631 600 basechar 0
LayerCount: 2
Fore
SplineSet
354 0 m 17
 396 -166.529 174 -196.529 -21 -201 c 9
EndSplineSet
Refer: 84 -1 N 1 0 0 1 0 0 2
LCarets2: 1 0 
Ligature2: "AT ligatures-1" mra AT
EndChar

StartChar: lrA
Encoding: 278 -1 278
Width: 824
VWidth: 0
Flags: W
AnchorPoint: "anusvara" 472.027 800 basechar 0
AnchorPoint: "eT" 661.027 600 basechar 0
LayerCount: 2
Fore
SplineSet
249 0 m 21
 212.5 -87 144 -156 -21 -201 c 13
EndSplineSet
Refer: 87 -1 S 1 0 0 1 0 0 2
LCarets2: 1 0 
Ligature2: "AT ligatures-1" lra AT
EndChar

StartChar: vrA
Encoding: 279 -1 279
Width: 797
VWidth: 0
Flags: W
AnchorPoint: "eT" 627 600 basechar 0
AnchorPoint: "anusvara" 450 800 basechar 0
LayerCount: 2
Fore
SplineSet
249 0 m 21
 212.5 -87 144 -156 -21 -201 c 13
EndSplineSet
Refer: 88 -1 S 1 0 0 1 0 0 2
LCarets2: 1 0 
Ligature2: "AT ligatures-1" vra AT
EndChar

StartChar: hrA
Encoding: 283 -1 283
Width: 838
VWidth: 0
Flags: W
AnchorPoint: "anusvara" 445 800 basechar 0
AnchorPoint: "eT" 624.258 600 basechar 0
LayerCount: 2
Fore
SplineSet
249 0 m 21
 212.5 -87 144 -156 -21 -201 c 13
EndSplineSet
Refer: 92 -1 S 1 0 0 1 0 0 2
LCarets2: 1 0 
Ligature2: "AT ligatures-1" hra AT
EndChar

StartChar: Gri
Encoding: 291 -1 291
Width: 1124
Flags: W
AnchorPoint: "anusvara" 980 800 basechar 0
LayerCount: 2
Fore
SplineSet
470.5 600 m 0
 497.5 681 539.628 759 626.5 759 c 0
 911.5 759 1119 0 897 0 c 0
 768 0 903 456 1044 600 c 0
0 600 m 1
 1124 600 l 1
468 600 m 0
 366 570 293 470 309 390 c 0
 317.385 348.075 367.029 300.499 439 324 c 0
 537 356 573 314 573 198 c 0
 573 67.2139 505.115 0 352.885 0 c 0
 161.115 0 130 210 120 420 c 0
EndSplineSet
Refer: 171 -1 N 1 0 0 1 636 0 2
Refer: 58 2306 N 1 0 0 1 762 -381 2
LCarets2: 1 0 
Ligature2: "IT ligatures-1" Gra IT
EndChar

StartChar: jri
Encoding: 294 -1 294
Width: 1007
Flags: W
AnchorPoint: "anusvara" 863 800 basechar 0
LayerCount: 2
Fore
SplineSet
340.5 -36 m 17
 280.5 -112.8 175.5 -178.8 43.5 -198 c 9
261.655 576.438 m 0
 373.827 502 261.827 350 159.827 386 c 0
 44.9219 426.555 95.8271 600 190.08 600 c 0
 325.654 600 451.662 357.01 461.655 220.437 c 0
 467.654 138.437 443.654 0 355.655 0 c 0
 315.654 0 278.282 40.3291 287.655 108.437 c 0
 317.654 326.438 451.654 536.438 543.654 600 c 0
527.5 600 m 0
 550.848 681 587.276 759 662.396 759 c 0
 810.263 759 991.854 0 799.887 0 c 0
 688.338 0 805.074 456 927 600 c 0
0 600 m 1
 1007 600 l 1
EndSplineSet
LCarets2: 1 0 
Ligature2: "IT ligatures-1" jra IT
EndChar

StartChar: jhri
Encoding: 295 -1 295
Width: 1177
Flags: W
AnchorPoint: "anusvara" 1033 800 basechar 0
LayerCount: 2
Fore
SplineSet
442.116 303 m 0
 472.927 333.865 502.578 355.832 559.927 354 c 0
 626.737 351.865 790.229 133.585 671.737 102.865 c 0
 590.737 81.8652 599.737 444.865 649.927 600 c 0
340.927 600 m 0
 280.927 513.865 112.927 540.865 130.927 408.865 c 0
 151.476 258.175 375.024 451.367 442.116 303 c 0
 472.927 234.865 403.062 119.813 289.927 108.865 c 0
 196.927 99.8652 70.6602 133.306 139.927 174.865 c 0
 289.927 264.865 239.737 0 361.927 0 c 0
 422.327 0 464.737 21.8652 491.737 81.8652 c 0
692.5 90 m 17
 686.5 9 648.577 -80.6533 560.5 -123 c 24
 389.574 -205.179 278.5 -192 81 -204 c 9
650.5 600 m 0
 676.594 681 717.309 759 801.267 759 c 0
 966.529 759 1169.48 0 954.932 0 c 0
 830.26 0 960.73 456 1097 600 c 0
0 600 m 1
 1177 600 l 1
EndSplineSet
LCarets2: 1 0 
Ligature2: "IT ligatures-1" jhra IT
EndChar

StartChar: Jri
Encoding: 296 -1 296
Width: 1152
Flags: W
AnchorPoint: "anusvara" 1008 800 basechar 0
LayerCount: 2
Fore
SplineSet
460 293.28 m 0
 534 291.281 671.252 229.28 687.252 119.28 c 0
 694.831 67.1729 665.252 0 624 0 c 0
 532.22 0 648.22 452 651 600 c 0
226 409.28 m 0
 270 463.281 414.956 471.341 447.748 391 c 0
 486.112 297.008 428.927 168.317 327.748 160 c 0
 246 153.281 161.253 212.562 120 277.28 c 0
677 0 m 17
 671 -81 640.298 -109.083 581 -133.5 c 0
 479 -175.5 332 -196.5 209 -199.5 c 9
647.5 600 m 0
 672.309 681 711.017 759 790.838 759 c 0
 947.958 759 1140.91 0 936.932 0 c 0
 818.402 0 942.445 456 1072 600 c 0
0 600 m 1
 1152 600 l 1
EndSplineSet
LCarets2: 1 0 
Ligature2: "IT ligatures-1" Jra IT
EndChar

StartChar: Tri
Encoding: 297 -1 297
Width: 983
Flags: W
AnchorPoint: "anusvara" 839 800 basechar 0
LayerCount: 2
Fore
SplineSet
510.662 600 m 0
 470.663 548.996 456.906 514.081 456.615 453 c 0
 456.071 338.865 551.945 270.576 508.589 164.996 c 0
 465.686 60.5186 394.59 0 270.59 0 c 0
 134.76 0 36.5898 180.996 222.59 312.996 c 0
482.015 -300 m 0
 408.015 -228.176 391.761 -205 317.762 -114 c 9
 121.762 -259 l 25
509.5 600 m 0
 532.497 681 568.379 759 642.37 759 c 0
 788.017 759 966.88 0 777.796 0 c 0
 667.922 0 782.906 456 903 600 c 0
0 600 m 1
 983 600 l 1
EndSplineSet
LCarets2: 1 0 
Ligature2: "IT ligatures-1" Tra IT
EndChar

StartChar: Dri
Encoding: 299 -1 299
Width: 1037
Flags: W
AnchorPoint: "anusvara" 893 800 basechar 0
LayerCount: 2
Fore
SplineSet
468 600 m 0
 366 570 293 470 309 390 c 0
 317.385 348.075 367.029 300.499 439 324 c 0
 537 356 573 314 573 198 c 0
 573 67.2139 505.115 0 352.885 0 c 0
 161.115 0 130 210 120 420 c 0
518.015 -300 m 0
 444.015 -228.176 427.761 -205 353.762 -114 c 9
 157.762 -259 l 25
473.5 600 m 0
 501.757 681 545.845 759 636.76 759 c 0
 815.718 759 1035.49 0 803.159 0 c 0
 668.156 0 809.438 456 957 600 c 0
0 600 m 1
 1037 600 l 1
EndSplineSet
LCarets2: 1 0 
Ligature2: "IT ligatures-1" Dra IT
EndChar

StartChar: Dhri
Encoding: 300 -1 300
Width: 1134
Flags: W
AnchorPoint: "anusvara" 990 800 basechar 0
LayerCount: 2
Fore
SplineSet
459 600 m 0
 485.821 585.602 516 540.602 465 501.602 c 0
 287.16 365.609 120 381.602 120 204.602 c 0
 120 95.1797 184.657 59.7812 267 51.6016 c 0
 392.935 39.0918 429.835 155.512 573 159.602 c 0
 678.001 162.602 714.001 0 603 0 c 0
 519.001 0 474 63.6016 438 108.602 c 0
566.015 -300 m 0
 492.015 -228.176 475.761 -205 401.762 -114 c 9
 205.762 -259 l 25
479.5 600 m 0
 513.075 681 565.461 759 673.487 759 c 0
 886.127 759 1147.26 0 871.204 0 c 0
 710.792 0 878.666 456 1054 600 c 0
0 600 m 1
 1134 600 l 1
EndSplineSet
LCarets2: 1 0 
Ligature2: "IT ligatures-1" Dhra IT
EndChar

StartChar: Nri
Encoding: 301 -1 301
Width: 1051
Flags: W
AnchorPoint: "anusvara" 907 800 basechar 0
LayerCount: 2
Fore
SplineSet
95.5 -99 m 25
 494.5 150 l 25
535.931 600 m 0
 517.931 440.825 492.931 0 567.931 0 c 0
 605.931 0 617.931 34.8252 627.931 72.8252 c 0
132.712 600 m 0
 159.657 476 31.6572 190 253.539 190 c 0
 308.755 190 387.154 278.08 391.539 338 c 0
 397.539 420 293.31 428.167 293.539 408 c 0
 295.539 232 383.539 482 380.713 600 c 0
533.5 600 m 0
 559.068 681 598.962 759 681.228 759 c 0
 843.159 759 1042.02 0 831.796 0 c 0
 709.637 0 837.478 456 971 600 c 0
0 600 m 1
 1051 600 l 1
EndSplineSet
LCarets2: 1 0 
Ligature2: "IT ligatures-1" Nra IT
EndChar

StartChar: thri
Encoding: 303 -1 303
Width: 1096
VWidth: 0
Flags: W
AnchorPoint: "anusvara" 952 800 basechar 0
LayerCount: 2
Fore
SplineSet
580.925 600 m 0
 562.925 440.825 537.925 0 612.925 0 c 0
 650.925 0 662.925 34.8252 672.925 72.8252 c 0
263 384 m 0
 131 399 122 600 245 600 c 0
 341 600 355.644 524.815 335 465 c 0
 298.021 357.856 221 306 128 261 c 1
 197 216 257.19 145.825 356 150 c 0
 448.081 153.891 503 201 554 279 c 0
138.463 -60 m 0
 368.462 -24 490.462 86 550.463 238 c 0
585 600 m 0
 610.188 681 649.489 759 730.532 759 c 0
 890.059 759 1085.97 0 878.863 0 c 0
 758.52 0 884.461 456 1016 600 c 0
0 600 m 1
 1096 600 l 1
EndSplineSet
LCarets2: 1 0 
Ligature2: "IT ligatures-1" thra IT
EndChar

StartChar: dri
Encoding: 304 -1 304
Width: 1098
VWidth: 0
Flags: W
AnchorPoint: "anusvara" 954 800 basechar 0
LayerCount: 2
Fore
SplineSet
284.429 600 m 0
 172.429 533.927 83.7725 417.704 134.772 345.704 c 0
 184.789 275.091 345.96 277.05 347.772 318.704 c 0
 350.772 387.704 170.772 318.704 185.772 189.704 c 0
 203.169 40.083 300.938 0 476.772 0 c 0
 674.771 0 652 417.704 539.771 417.704 c 0
 505.855 417.704 475.834 283.906 493 198 c 0
 526.384 30.9277 722 78 664 -204 c 0
285 600 m 0
 348 670.5 456.838 759 558 759 c 0
 885 759 1105.34 0 846.818 0 c 0
 696.598 0 853.805 456 1018 600 c 0
0 600 m 1
 1098 600 l 1
EndSplineSet
LCarets2: 1 0 
Ligature2: "IT ligatures-1" dra IT
EndChar

StartChar: dhri
Encoding: 305 -1 305
Width: 1070
VWidth: 0
Flags: W
AnchorPoint: "anusvara" 926 800 basechar 0
LayerCount: 2
Fore
SplineSet
554.462 600 m 0
 536.462 440.825 511.462 0 586.462 0 c 0
 624.462 0 636.462 34.8252 646.462 72.8252 c 0
80 488.129 m 0
 111.413 456.33 228.346 422.415 300 470.129 c 0
 345.412 500.369 318.771 600 248 600 c 0
 176 600 149.972 478.039 185.871 408 c 0
 219.093 343.184 295.871 344.128 367.871 366.129 c 1
 271.871 340.128 209.872 292 219.871 244 c 0
 242.514 135.307 301.872 140 375.871 140 c 0
 457.872 140 499.872 218 533.871 294.129 c 0
165.231 -60 m 1
 524.463 208 l 1
557 600 m 0
 582.306 681 621.789 759 703.208 759 c 0
 863.474 759 1060.29 0 852.229 0 c 0
 731.324 0 857.851 456 990 600 c 0
-0 600 m 1
 1070 600 l 1
EndSplineSet
LCarets2: 1 0 
Ligature2: "IT ligatures-1" dhra IT
EndChar

StartChar: nri
Encoding: 306 -1 306
Width: 929
Flags: W
AnchorPoint: "anusvara" 785 800 basechar 0
LayerCount: 2
Fore
SplineSet
233.787 576.438 m 0
 239.189 522 185.189 488 149.959 504 c 0
 109.037 522.585 107.189 600 162.212 600 c 0
 297.786 600 335.189 388 369.189 234 c 0
 386.915 153.714 365.188 0 277.189 0 c 0
 237.188 0 199.816 40.3291 209.189 108.437 c 0
 239.188 326.438 373.188 536.438 465.188 600 c 0
349.5 -10.7998 m 17
 292.5 -136.8 160.5 -187.8 43.5 -198 c 9
455.5 600 m 0
 478.497 681 514.379 759 588.37 759 c 0
 734.017 759 912.88 0 723.796 0 c 0
 613.922 0 728.906 456 849 600 c 0
0 600 m 1
 929 600 l 1
EndSplineSet
LCarets2: 1 0 
Ligature2: "IT ligatures-1" nra IT
EndChar

StartChar: pri
Encoding: 307 -1 307
Width: 919
Flags: W
AnchorPoint: "anusvara" 775 800 basechar 0
LayerCount: 2
Fore
SplineSet
444.091 600 m 0
 445.396 366 399.438 0 447.438 0 c 0
 479.438 0 483.438 30.7129 495.438 62.7129 c 0
126.091 600 m 0
 132.075 497.318 100.346 431.004 141.437 336.713 c 0
 171.679 267.316 217.914 210.827 293.438 216 c 0
 370.669 221.29 409.438 300.713 433.438 356.713 c 0
65.7188 0 m 0
 211.719 30 345.719 134 422.463 246 c 0
445.445 600 m 0
 468.444 681 504.331 759 578.334 759 c 0
 724 759 902.889 0 713.778 0 c 0
 603.889 0 718.889 456 839 600 c 0
0 600 m 1
 919 600 l 1
EndSplineSet
LCarets2: 1 0 
Ligature2: "IT ligatures-1" pra IT
EndChar

StartChar: phri
Encoding: 308 -1 308
Width: 1223
Flags: W
AnchorPoint: "anusvara" 1079 800 basechar 0
LayerCount: 2
Fore
SplineSet
129.724 600 m 0
 101.724 508.936 129.988 256.35 269.977 252.936 c 0
 433.977 248.936 429.977 600 411.977 600 c 0
 375.977 600 442.977 0 399.977 0 c 0
 372.977 0 375.977 183 474.724 183 c 0
 799.729 183 733.724 0 711.724 0 c 0
 659.724 0 660.173 495 759.173 600 c 0
505.5 79.5 m 17
 562.5 -6 469.5 -193.5 289.5 -208.5 c 9
749.5 600 m 0
 772.497 681 808.379 759 882.37 759 c 0
 1028.02 759 1206.88 0 1017.8 0 c 0
 907.922 0 1022.91 456 1143 600 c 0
0 600 m 1
 1223 600 l 1
EndSplineSet
LCarets2: 1 0 
Ligature2: "IT ligatures-1" phra IT
EndChar

StartChar: mri
Encoding: 311 -1 311
Width: 1096
Flags: W
AnchorPoint: "anusvara" 952 800 basechar 0
LayerCount: 2
Fore
SplineSet
142.585 600 m 0
 195.657 510.141 256.585 0 172.585 0 c 0
 38.9277 0 169.585 186.141 456.657 186.141 c 0
 672.657 186.141 660.657 0 574.585 0 c 0
 438.657 0 535.585 525.141 588.657 600 c 0
260.5 97.4619 m 17
 368.5 -91.5381 131.5 -204 -21 -201 c 9
581.5 600 m 0
 606.893 681 646.514 759 728.214 759 c 0
 889.036 759 1086.54 0 877.75 0 c 0
 756.429 0 883.393 456 1016 600 c 0
0 600 m 1
 1096 600 l 1
EndSplineSet
LCarets2: 1 0 
Ligature2: "IT ligatures-1" mra IT
EndChar

StartChar: yri
Encoding: 312 -1 312
Width: 1096
VWidth: 0
Flags: W
AnchorPoint: "anusvara" 952 800 basechar 0
LayerCount: 2
Fore
SplineSet
672.925 72.8252 m 0
 662.925 34.8252 650.925 0 612.925 0 c 0
 537.925 0 562.925 440.825 580.925 600 c 0
190.511 600 m 0
 295.511 570 290.143 512.507 277.511 444 c 0
 260.798 353.367 221 306 128 261 c 1
 197 216 257.19 145.825 356 150 c 0
 448.081 153.891 503 201 554 279 c 0
138.463 -60 m 17
 368.462 -24 490.462 86 550.463 238 c 9
580 600 m 0
 605.48 681 645.237 759 727.221 759 c 0
 888.598 759 1086.78 0 877.272 0 c 0
 755.532 0 882.936 456 1016 600 c 0
0 600 m 1
 1096 600 l 1
EndSplineSet
LCarets2: 1 0 
Ligature2: "IT ligatures-1" yra IT
EndChar

StartChar: lri
Encoding: 314 -1 314
Width: 637
VWidth: 0
Flags: W
AnchorPoint: "anusvara" 369.617 800 basechar 0
LayerCount: 2
Fore
SplineSet
398.623 600 m 0
 322 574 221.908 477.945 282.939 422 c 0
 330.94 378 382.525 449.292 446.939 412 c 0
 522.94 368 470.94 266 354.939 244 c 1
 456.94 260 506.114 202.969 516.415 143.812 c 0
 534.808 38.1855 375.618 0 282.12 0 c 0
 195.249 0 152 80 120 224 c 0
0 600 m 1
 637 600 l 1
249 0 m 21
 212.5 -87 144 -156 -21 -201 c 13
EndSplineSet
LCarets2: 1 0 
Ligature2: "IT ligatures-1" lra IT
EndChar

StartChar: Sri
Encoding: 317 -1 317
Width: 919
Flags: W
AnchorPoint: "anusvara" 775 800 basechar 0
LayerCount: 2
Fore
SplineSet
159.091 558 m 1
 407.438 346.713 l 1
444.091 600 m 0
 445.396 366 399.438 0 447.438 0 c 0
 479.438 0 483.438 30.7129 495.438 62.7129 c 0
126.091 600 m 0
 132.075 497.318 100.346 431.004 141.437 336.713 c 0
 171.679 267.316 217.914 210.827 293.438 216 c 0
 370.669 221.29 409.438 300.713 433.438 356.713 c 0
65.7188 0 m 17
 211.719 30 345.719 134 422.463 246 c 9
440.5 600 m 0
 463.789 681 500.127 759 575.059 759 c 0
 722.556 759 903.691 0 712.204 0 c 0
 600.936 0 717.38 456 839 600 c 0
0 600 m 1
 919 600 l 1
EndSplineSet
LCarets2: 1 0 
Ligature2: "IT ligatures-1" Sra IT
EndChar

StartChar: hri
Encoding: 319 -1 319
Width: 988
Flags: W
AnchorPoint: "anusvara" 844 800 basechar 0
LayerCount: 2
Fore
SplineSet
212.212 600 m 0
 163.487 550 127.118 498.255 146.808 430 c 0
 161.887 377.728 204.251 355.999 276.251 378 c 1
 180.251 351.999 100.426 258.189 124.251 156 c 0
 149.608 47.2393 226.251 0 364.38 0 c 0
 484.901 0 513.249 68.5312 522.38 154.129 c 0
 541.229 330.839 400.38 390.129 428.38 600 c 0
249 0 m 17
 212.5 -87 144 -156 -21 -201 c 9
428.5 600 m 0
 456.522 681 500.246 759 590.409 759 c 0
 767.887 759 985.841 0 755.432 0 c 0
 621.546 0 761.659 456 908 600 c 0
0 600 m 1
 988 600 l 1
EndSplineSet
LCarets2: 1 0 
Ligature2: "IT ligatures-1" hra IT
EndChar

StartChar: Lri
Encoding: 320 -1 320
Width: 1152
Flags: W
AnchorPoint: "anusvara" 1008 800 basechar 0
LayerCount: 2
Fore
SplineSet
363.383 323.999 m 0
 330.384 377.999 323.385 398.999 268.737 398.999 c 0
 58.5811 398.999 106.581 0 197.176 0 c 0
 516.845 0 288.384 399 612.383 399 c 0
 721.581 399 730.581 0 520.737 0 c 0
 361.738 0 409.43 170.997 406.581 282 c 0
 403.425 405 421.581 507 445.581 600 c 0
562.015 -300 m 0
 488.015 -228.176 471.761 -205 397.762 -114 c 9
 201.762 -259 l 25
449.5 600 m 0
 476.5 681 518.628 759 605.5 759 c 0
 944.5 759 1147 0 925 0 c 0
 743.5 0 931 456 1072 600 c 0
0 600 m 1
 1152 600 l 1
EndSplineSet
LCarets2: 1 0 
Ligature2: "IT ligatures-1" Lra IT
EndChar

StartChar: kSri
Encoding: 321 -1 321
Width: 1123
VWidth: 0
Flags: W
AnchorPoint: "anusvara" 979 800 basechar 0
LayerCount: 2
Fore
SplineSet
582.381 189.863 m 17
 554.976 53.1416 380.5 -64.2061 275.5 -97.2061 c 9
391.926 491.363 m 0
 595.926 170.363 645.852 600 621.852 600 c 0
 579.852 600 585.852 0 648.852 0 c 0
 673.197 0 687.852 0 699.852 36 c 0
286.926 431.363 m 0
 145.926 533.363 187.926 689.363 280.926 695.363 c 0
 412.788 703.871 442.926 560.363 391.926 491.363 c 0
 314.24 386.26 186.852 481.862 126.852 289.862 c 0
 99.1406 201.188 158.551 143.038 249.852 125.862 c 0
 338.925 109.106 388.282 192.322 429.852 272.862 c 0
 446.417 304.959 344.515 347.957 345.852 311.862 c 0
 348.852 230.862 348.381 203.725 462.381 119.725 c 0
620.5 600 m 0
 645.191 681 683.718 759 763.162 759 c 0
 919.542 759 1111.59 0 908.568 0 c 0
 790.598 0 914.056 456 1043 600 c 0
0 600 m 1
 1123 600 l 1
EndSplineSet
LCarets2: 1 0 
Ligature2: "IT ligatures-1" kSra IT
EndChar

StartChar: kru
Encoding: 323 -1 323
Width: 1179
VWidth: 0
Flags: W
AnchorPoint: "anusvara" 840 800 basechar 0
LayerCount: 2
Fore
SplineSet
1016.07 600 m 0
 963 525.141 866.072 0 1002 0 c 0
 1088.07 0 1100.07 186.141 884.072 186.141 c 0
 597 186.141 524.343 0 658 0 c 0
 714 0 732 56 744 176 c 0
 758.223 318.231 727 740 499 740 c 0
 216 740 120 514.338 120 310.338 c 0
 120 151 168 0 288 0 c 0
 423 0 468 106 475.038 190 c 0
 480.8 258.763 423 335 299 343 c 1
 357.043 340.662 410.558 352.406 449.038 416 c 0
 492 487 441 577 359 600 c 0
0 600 m 1
 1179 600 l 1
249 0 m 21
 212.5 -87 144 -156 -21 -201 c 13
EndSplineSet
LCarets2: 1 0 
Ligature2: "uT ligatures-1" kra uT
Ligature2: "uT ligatures-1" kra UT
EndChar

StartChar: khru
Encoding: 324 -1 324
Width: 1064
VWidth: 0
Flags: W
AnchorPoint: "anusvara" 880 800 basechar 0
LayerCount: 2
Fore
SplineSet
359 600 m 0
 441 577 492 487 449.038 416 c 0
 410.558 352.406 357.043 340.662 299 343 c 1
 423 335 480.8 258.763 475.038 190 c 0
 468 106 423 0 288 0 c 0
 168 0 120 151 120 310.338 c 0
 120 514.338 216 740 499 740 c 0
 827 740 858.223 318.231 844 176 c 0
 832 56 814 0 758 0 c 0
 656 0 661 496 944 600 c 0
0 600 m 1
 1064 600 l 1
311 0 m 21
 274.5 -87 144 -156 -21 -201 c 13
EndSplineSet
Refer: 58 2306 N 1 0 0 1 687 -381 2
LCarets2: 1 0 
Ligature2: "uT ligatures-1" khra uT
Ligature2: "uT ligatures-1" khra UT
EndChar

StartChar: gru
Encoding: 325 -1 325
Width: 657
Flags: W
AnchorPoint: "anusvara" 350 800 basechar 0
LayerCount: 2
Fore
SplineSet
475.486 600 m 0
 469.486 351.704 448.486 0 491.681 0 c 0
197.681 600 m 0
 247.486 414.704 261.305 383.116 249.305 299.116 c 0
 242.409 250.843 192.341 215.853 145.5 229.412 c 0
 106.836 240.604 108.681 301.929 135.305 332.116 c 0
 164.966 365.75 225.305 380.116 249.305 347.116 c 0
384 0 m 0
 498 -9 565.413 -62.5967 564 -105 c 0
 561 -195 443.902 -234.702 351 -219 c 0
 242.258 -200.621 220.5 -184.588 154.5 -106.588 c 0
0 600 m 1
 657 600 l 1
166.5 61.4121 m 17
 292.119 82.4121 379.5 163.413 453.381 238 c 9
EndSplineSet
Substitution2: "pre-ra forms of uT-1" gru.prera
LCarets2: 1 0 
Ligature2: "uT ligatures-1" gra uT
Ligature2: "uT ligatures-1" gra UT
EndChar

StartChar: ghru
Encoding: 326 -1 326
Width: 654
VWidth: 0
Flags: W
AnchorPoint: "anusvara" 350 800 basechar 0
LayerCount: 2
Fore
SplineSet
472 600 m 0
 468.701 343.547 450.701 0 502 0 c 0
208.298 600 m 0
 148 571.547 120 535.547 120 483.547 c 0
 120.001 407.892 228 407.547 304.298 423 c 1
 228 407.547 136.517 347.769 142 257.547 c 0
 146.399 185.161 240.636 180.153 318 197.547 c 0
 382.701 212.094 422.701 263.547 466 321 c 0
381 0 m 0
 495 -9 562.413 -62.5967 561 -105 c 0
 558 -195 440.902 -234.702 348 -219 c 0
 239.258 -200.621 235.5 -178.588 169.5 -100.588 c 0
0 600 m 1
 654 600 l 1
184.5 28.4121 m 21
 315.237 61.0996 393 90 453.381 238 c 9
EndSplineSet
Substitution2: "pre-ra forms of uT-1" ghru.prera
LCarets2: 1 0 
Ligature2: "uT ligatures-1" ghra uT
Ligature2: "uT ligatures-1" ghra UT
EndChar

StartChar: Gru
Encoding: 327 -1 327
Width: 780
Flags: W
AnchorPoint: "anusvara" 400 800 basechar 0
LayerCount: 2
Fore
SplineSet
570.015 -177 m 4
 496.015 -123.711 477.499 -124.517 403.5 -57 c 13
 209.762 -146.581 l 29
91.5 -168 m 21
 157.5 -246 197.644 -326.718 304.5 -354 c 28
 389.151 -375.613 511.5 -366 514.5 -276 c 4
 515.913 -233.597 472.011 -192 394.011 -192 c 4
 351.21 -192 338.011 -219.176 326.011 -237.176 c 13
EndSplineSet
Refer: 15 2329 N 1 0 0 1 0 0 2
Substitution2: "pre-ra forms of uT-1" Gru.prera
LCarets2: 1 0 
Ligature2: "uT ligatures-1" Gra uT
Ligature2: "uT ligatures-1" Gra UT
EndChar

StartChar: chru
Encoding: 329 -1 329
Width: 672
Flags: W
AnchorPoint: "anusvara" 400 800 basechar 0
LayerCount: 2
Fore
SplineSet
154.989 -259.375 m 17
 220.989 -337.375 281.874 -363.919 376.989 -360.688 c 24
 450.891 -358.177 525.489 -336.688 528.489 -246.688 c 0
 529.902 -204.284 481.5 -141.688 403.5 -141.688 c 0
 360.699 -141.688 347.5 -168.863 335.5 -186.863 c 9
249 0 m 17
 212.5 -87 144 -156 -21 -201 c 9
EndSplineSet
Refer: 17 2331 N 1 0 0 1 0 0 2
Substitution2: "pre-ra forms of uT-1" chru.prera
LCarets2: 1 0 
Ligature2: "uT ligatures-1" chra uT
Ligature2: "uT ligatures-1" chra UT
EndChar

StartChar: jru
Encoding: 330 -1 330
Width: 893
VWidth: 0
Flags: W
AnchorPoint: "anusvara" 600 800 basechar 0
LayerCount: 2
Fore
SplineSet
748 600 m 0
 700 470 600.072 66 736 66 c 0
 822.072 66 768 258 480 258 c 0
318 600 m 0
 453.574 600 493 548.312 493 471.749 c 0
 493 389.53 324.999 317.312 237 317.312 c 1
 402 332.312 486 278.29 486 164.312 c 0
 486 74.3125 447 0 327 0 c 0
 233.614 0 153 125.312 120 191.312 c 0
0 600 m 1
 893 600 l 1
340.5 -36 m 21
 280.5 -112.8 175.5 -178.8 43.5 -198 c 13
EndSplineSet
LCarets2: 1 0 
Ligature2: "uT ligatures-1" jra uT
Ligature2: "uT ligatures-1" jra UT
EndChar

StartChar: jhru
Encoding: 331 -1 331
Width: 1263
Flags: W
AnchorPoint: "anusvara" 550 800 basechar 0
LayerCount: 2
Fore
SplineSet
692.5 90 m 21
 686.5 9 648.577 -80.6537 560.5 -123 c 28
 389.574 -205.179 278.5 -192 81 -204 c 13
EndSplineSet
Refer: 19 2333 N 1 0 0 1 0 0 2
Refer: 168 -1 N 1 0 0 1 683 0 2
LCarets2: 1 0 
Ligature2: "uT ligatures-1" jhra uT
Ligature2: "uT ligatures-1" jhra UT
EndChar

StartChar: Jru
Encoding: 332 -1 332
Width: 1288
Flags: W
AnchorPoint: "anusvara" 550 800 basechar 0
LayerCount: 2
Fore
SplineSet
677 0 m 21
 671 -81 640.298 -109.083 581 -133.5 c 4
 479 -175.5 332 -196.5 209 -199.5 c 13
EndSplineSet
Refer: 20 2334 N 1 0 0 1 0 0 2
Refer: 168 -1 N 1 0 0 1 708 0 2
LCarets2: 1 0 
Ligature2: "uT ligatures-1" Jra uT
Ligature2: "uT ligatures-1" Jra UT
EndChar

StartChar: Tru
Encoding: 333 -1 333
Width: 639
Flags: W
AnchorPoint: "anusvara" 480 800 basechar 0
LayerCount: 2
Fore
SplineSet
510.015 -177 m 0
 436.015 -123.711 417.499 -124.517 343.5 -57 c 9
 149.762 -146.581 l 25
31.5 -168 m 17
 97.5 -246 137.644 -326.718 244.5 -354 c 24
 329.151 -375.613 451.5 -366 454.5 -276 c 0
 455.913 -233.597 412.011 -192 334.011 -192 c 0
 291.21 -192 278.011 -219.176 266.011 -237.176 c 9
EndSplineSet
Refer: 21 2335 N 1 0 0 1 0 0 2
Substitution2: "pre-ra forms of uT-1" Tru.prera
LCarets2: 1 0 
Ligature2: "uT ligatures-1" Tra uT
Ligature2: "uT ligatures-1" Tra UT
EndChar

StartChar: Dru
Encoding: 335 -1 335
Width: 693
Flags: W
AnchorPoint: "anusvara" 400 800 basechar 0
LayerCount: 2
Fore
SplineSet
570.015 -177 m 4
 496.015 -123.711 477.499 -124.517 403.5 -57 c 13
 209.762 -146.581 l 29
91.5 -168 m 21
 157.5 -246 197.644 -326.718 304.5 -354 c 28
 389.151 -375.613 511.5 -366 514.5 -276 c 4
 515.913 -233.597 472.011 -192 394.011 -192 c 4
 351.21 -192 338.011 -219.176 326.011 -237.176 c 13
EndSplineSet
Refer: 23 2337 N 1 0 0 1 0 0 2
Substitution2: "pre-ra forms of uT-1" Dru.prera
LCarets2: 1 0 
Ligature2: "uT ligatures-1" Dra uT
Ligature2: "uT ligatures-1" Dra UT
EndChar

StartChar: Dhru
Encoding: 336 -1 336
Width: 790
Flags: W
AnchorPoint: "anusvara" 450 800 basechar 0
LayerCount: 2
Fore
SplineSet
594.015 -177 m 0
 520.015 -123.711 501.499 -124.517 427.5 -57 c 9
 233.762 -146.581 l 25
115.5 -168 m 17
 181.5 -246 221.644 -326.718 328.5 -354 c 24
 413.151 -375.613 535.5 -366 538.5 -276 c 0
 539.913 -233.597 496.011 -192 418.011 -192 c 0
 375.21 -192 362.011 -219.176 350.011 -237.176 c 9
EndSplineSet
Refer: 24 2338 N 1 0 0 1 0 0 2
Substitution2: "pre-ra forms of uT-1" Dhru.prera
LCarets2: 1 0 
Ligature2: "uT ligatures-1" Dhra uT
Ligature2: "uT ligatures-1" Dhra UT
EndChar

StartChar: Nru
Encoding: 337 -1 337
Width: 707
VWidth: 0
Flags: W
AnchorPoint: "anusvara" 500 800 basechar 0
LayerCount: 2
Fore
SplineSet
271.5 25.8936 m 29
 494.5 150 l 25
535.931 600 m 0
 517.931 440.825 492.931 0 567.931 0 c 0
132.712 600 m 0
 159.657 476 31.6572 190 253.539 190 c 0
 308.755 190 387.154 278.08 391.539 338 c 0
 397.539 420 293.31 428.167 293.539 408 c 0
 295.539 232 383.539 482 380.713 600 c 0
434 0 m 0
 548 -9 615.413 -62.5967 614 -105 c 0
 611 -195 493.902 -234.702 401 -219 c 0
 292.258 -200.621 232.5 -163.106 166.5 -85.1064 c 0
0 600 m 1
 707 600 l 1
EndSplineSet
Substitution2: "pre-ra forms of uT-1" Nru.prera
LCarets2: 1 0 
Ligature2: "uT ligatures-1" Nra uT
Ligature2: "uT ligatures-1" Nra UT
EndChar

StartChar: tru
Encoding: 338 -1 338
Width: 710
VWidth: 0
Flags: W
AnchorPoint: "anusvara" 480 800 basechar 0
AnchorPoint: "eT" 465 600 basechar 0
LayerCount: 2
Fore
SplineSet
120 372 m 0
 176 420 249.933 463.479 338 446 c 0
 389.055 435.867 382 390 382 320 c 0
129.881 98 m 0
 246 150 324 218 408 342 c 0
 470.594 434.4 483.251 537.271 464.692 600 c 1
 537.251 531.271 426.251 0 554.692 0 c 0
0 600 m 1
 710 600 l 1
451 0 m 0
 565 -9 632.413 -62.5967 631 -105 c 0
 628 -195 510.902 -234.702 418 -219 c 0
 309.258 -200.621 271 -111 205 -33 c 0
EndSplineSet
Substitution2: "pre-ra forms of uT-1" tru.prera
LCarets2: 1 0 
Ligature2: "uT ligatures-1" tra uT
Ligature2: "uT ligatures-1" tra UT
EndChar

StartChar: thru
Encoding: 339 -1 339
Width: 752
Flags: W
AnchorPoint: "anusvara" 415 800 basechar 0
LayerCount: 2
Fore
SplineSet
499.511 0 m 4
 613.511 -9 680.924 -62.5967 679.511 -105 c 4
 676.511 -195 559.413 -234.702 466.511 -219 c 4
 357.769 -200.621 349 -187.588 283 -109.588 c 4
580.925 600 m 0
 562.925 440.825 537.925 0 612.925 0 c 0
263 384 m 0
 131 399 122 600 245 600 c 0
 341 600 355.644 524.815 335 465 c 0
 298.021 357.856 221 306 128 261 c 1
 197 216 257.19 145.825 356 150 c 0
 448.081 153.891 503 201 554 279 c 0
0 600 m 1
 752 600 l 1
202 0 m 0
 431.999 36 490.462 86 550.463 238 c 0
EndSplineSet
Substitution2: "pre-ra forms of uT-1" thru.prera
LCarets2: 1 0 
Ligature2: "uT ligatures-1" thra uT
Ligature2: "uT ligatures-1" thra UT
EndChar

StartChar: dru
Encoding: 340 -1 340
Width: 754
VWidth: 0
Flags: W
AnchorPoint: "anusvara" 400 800 basechar 0
AnchorPoint: "eT" 581.966 601.927 basechar 0
LayerCount: 2
Fore
SplineSet
284.429 600 m 0
 172.429 533.927 83.7725 417.704 134.772 345.704 c 0
 184.789 275.091 345.96 277.05 347.772 318.704 c 0
 350.772 387.704 170.772 318.704 185.772 189.704 c 0
 203.169 40.083 300.938 0 476.772 0 c 0
 674.772 0 652 417.704 539.772 417.704 c 0
 505.855 417.704 475.834 283.906 493 198 c 0
 526.384 30.9277 686 60 641 -162 c 0
0 600 m 1
 754 600 l 1
521 -129 m 0
 635 -138 702.413 -191.597 701 -234 c 0
 698 -324 580.902 -363.702 488 -348 c 0
 379.258 -329.621 357.5 -313.588 291.5 -235.588 c 0
EndSplineSet
Substitution2: "pre-ra forms of uT-1" dru.prera
LCarets2: 1 0 
Ligature2: "uT ligatures-1" dra uT
Ligature2: "uT ligatures-1" dra UT
EndChar

StartChar: dhru
Encoding: 341 -1 341
Width: 726
VWidth: 0
Flags: W
AnchorPoint: "anusvara" 410 800 basechar 0
AnchorPoint: "eT" 555 600 basechar 0
LayerCount: 2
Fore
SplineSet
554.462 600 m 0
 536.462 440.825 511.462 0 586.462 0 c 0
80 488.129 m 0
 111.413 456.33 228.346 422.415 300 470.129 c 0
 345.412 500.369 318.771 600 248 600 c 0
 176 600 149.972 478.039 185.871 408 c 0
 219.093 343.184 295.871 344.128 367.871 366.129 c 1
 271.871 340.128 209.872 292 219.871 244 c 0
 242.514 135.307 301.872 140 375.871 140 c 0
 457.872 140 499.872 218 533.871 294.129 c 0
127 -67.5879 m 1
 524.463 208 l 1
-0 600 m 1
 726 600 l 1
459.511 0 m 0
 573.511 -9 640.924 -62.5967 639.511 -105 c 0
 636.511 -195 520.133 -229.593 426.511 -219 c 0
 361 -211.587 325 -208.588 259 -130.588 c 0
EndSplineSet
Substitution2: "pre-ra forms of uT-1" dhru.prera
LCarets2: 1 0 
Ligature2: "uT ligatures-1" dhra uT
Ligature2: "uT ligatures-1" dhra UT
EndChar

StartChar: nru
Encoding: 342 -1 342
Width: 893
VWidth: 0
Flags: W
AnchorPoint: "anusvara" 600 800 basechar 0
LayerCount: 2
Fore
SplineSet
748 600 m 0
 700 470 600.072 66 736 66 c 0
 822.072 66 768 258 480 258 c 0
416.64 555 m 0
 299.64 435 223.747 600 318 600 c 0
 453.574 600 493 548.312 493 471.749 c 0
 493 389.53 324.999 317.312 237 317.312 c 1
 402 332.312 486 278.29 486 164.312 c 0
 486 74.3125 447 0 327 0 c 0
 233.614 0 153 125.312 120 191.312 c 0
0 600 m 1
 893 600 l 1
349.5 -10.7998 m 21
 292.5 -136.8 160.5 -187.8 43.5 -198 c 13
EndSplineSet
LCarets2: 1 0 
Ligature2: "uT ligatures-1" nra uT
Ligature2: "uT ligatures-1" nra UT
EndChar

StartChar: pru
Encoding: 343 -1 343
Width: 575
Flags: W
AnchorPoint: "anusvara" 300 800 basechar 0
LayerCount: 2
Fore
SplineSet
343.511 0 m 0
 457.511 -9 524.924 -62.5967 523.511 -105 c 0
 520.511 -195 403.881 -231.624 310.511 -219 c 0
 233.5 -208.587 191.5 -208.587 119.5 -145.588 c 0
444.091 600 m 0
 445.396 366 399.438 0 447.437 0 c 0
126.091 600 m 0
 132.075 497.318 100.346 431.004 141.437 336.713 c 0
 171.679 267.316 217.914 210.827 293.437 216 c 0
 370.669 221.29 409.438 300.713 433.437 356.713 c 0
0 600 m 1
 575 600 l 1
65.7188 0 m 0
 211.719 30 345.719 134 422.463 246 c 0
EndSplineSet
Substitution2: "pre-ra forms of uT-1" pru.prera
LCarets2: 1 0 
Ligature2: "uT ligatures-1" pra uT
Ligature2: "uT ligatures-1" pra UT
EndChar

StartChar: phru
Encoding: 344 -1 344
Width: 879
Flags: W
AnchorPoint: "anusvara" 500 800 basechar 0
LayerCount: 2
Fore
SplineSet
129.724 600 m 0
 101.724 508.936 129.988 256.35 269.977 252.936 c 0
 433.977 248.936 429.977 600 411.977 600 c 0
 375.977 600 442.977 0 399.977 0 c 0
0 600 m 1
 879 600 l 1
334.5 -40.6758 m 17
 346.5 -22.6758 357.176 0 399.977 0 c 0
 477.977 0 526.902 -43.2725 525.489 -85.6758 c 0
 522.489 -175.676 439.5 -202.676 312.489 -200 c 0
 202.229 -197.677 199.506 -115.841 198 -13.6758 c 0
 196.011 121.324 417.67 183 474.724 183 c 0
 799.729 183 733.724 0 711.724 0 c 0
 659.724 0 660.173 495 759.173 600 c 0
193.5 -49.5 m 17
 157 -136.5 72 -172.5 -99 -199.5 c 9
EndSplineSet
LCarets2: 1 0 
Ligature2: "uT ligatures-1" phra uT
Ligature2: "uT ligatures-1" phra UT
EndChar

StartChar: bru
Encoding: 345 -1 345
Width: 1186
Flags: W
AnchorPoint: "anusvara" 400 800 basechar 0
LayerCount: 2
Fore
SplineSet
249 0 m 21
 212.5 -87 144 -156 -21 -201 c 13
EndSplineSet
Refer: 33 2348 N 1 0 0 1 0 0 2
Refer: 168 -1 N 1 0 0 1 606 0 2
LCarets2: 1 0 
Ligature2: "uT ligatures-1" bra uT
Ligature2: "uT ligatures-1" bra UT
EndChar

StartChar: bhru
Encoding: 346 -1 346
Width: 750
VWidth: 0
Flags: W
AnchorPoint: "anusvara" 420 800 basechar 0
LayerCount: 2
Fore
SplineSet
390.263 528 m 0
 336.263 488 242.629 416.018 150.263 450 c 0
 93.0166 471.062 122.126 600 194.562 600 c 0
 289.837 600 300.604 332.584 244.562 152 c 0
 226.562 94 163.222 97.0596 142.562 130 c 0
 121.771 163.148 165.208 203.354 226.562 222 c 0
 430.562 284 714.562 600 588.562 600 c 0
 534.562 600 553.837 0 604.837 0 c 0
477 0 m 0
 591 -9 658.413 -62.5967 657 -105 c 0
 654 -195 537.631 -229.516 444 -219 c 0
 378 -211.587 363 -175.588 297 -97.5879 c 0
0 600 m 1
 750 600 l 1
543 162 m 17
 495 103.413 413 47.9121 297 25.4121 c 9
EndSplineSet
Substitution2: "pre-ra forms of uT-1" bhru.prera
LCarets2: 1 0 
Ligature2: "uT ligatures-1" bhra uT
Ligature2: "uT ligatures-1" bhra UT
EndChar

StartChar: mru
Encoding: 347 -1 347
Width: 750
VWidth: 0
Flags: W
AnchorPoint: "anusvara" 420 800 basechar 0
LayerCount: 2
Fore
SplineSet
205.511 600 m 0
 244.511 532.412 300.604 332.584 244.562 152 c 0
 226.562 94 163.222 97.0596 142.562 130 c 0
 121.771 163.148 165.208 203.354 226.562 222 c 0
 430.562 284 714.562 600 588.562 600 c 0
 534.562 600 553.837 0 604.837 0 c 0
477 0 m 0
 591 -9 658.413 -62.5967 657 -105 c 0
 654 -195 537.763 -228.267 444 -219 c 0
 369 -211.587 324 -202.587 297 -139.588 c 0
0 600 m 1
 750 600 l 1
260.5 97.4619 m 17
 321 -28.5875 131.5 -124.588 -21 -121.588 c 9
EndSplineSet
Substitution2: "pre-ra forms of uT-1" mru.prera
LCarets2: 1 0 
Ligature2: "uT ligatures-1" mra uT
Ligature2: "uT ligatures-1" mra UT
EndChar

StartChar: yru
Encoding: 348 -1 348
Width: 752
Flags: W
AnchorPoint: "anusvara" 415 800 basechar 0
LayerCount: 2
Fore
SplineSet
499.511 0 m 0
 613.511 -9 680.924 -62.5967 679.511 -105 c 0
 676.511 -195 559.799 -232.214 466.511 -219 c 0
 393 -208.587 387 -193.588 321 -115.588 c 0
580.925 600 m 0
 562.925 440.825 537.925 0 612.925 0 c 0
190.511 600 m 0
 295.511 570 290.143 512.507 277.511 444 c 0
 260.798 353.367 221 306 128 261 c 1
 197 216 257.19 145.825 356 150 c 0
 448.081 153.891 503 201 554 279 c 0
0 600 m 1
 752 600 l 1
138.463 -60 m 17
 368.462 -24 490.462 86 550.463 238 c 9
EndSplineSet
Substitution2: "pre-ra forms of uT-1" yru.prera
LCarets2: 1 0 
Ligature2: "uT ligatures-1" yra uT
Ligature2: "uT ligatures-1" yra UT
EndChar

StartChar: rru
Encoding: 349 -1 349
Width: 757
VWidth: 0
Flags: W
AnchorPoint: "anusvara" 444.441 800 basechar 0
LayerCount: 2
Fore
SplineSet
612.174 600 m 0
 564.174 470 464.246 66 600.174 66 c 0
 686.246 66 632.174 258 344.174 258 c 0
270.955 320 m 0
 176.955 292 120.456 274 120.456 203.312 c 0
 120.456 138 176.727 58 334.727 0 c 0
252.457 600 m 0
 291.457 548.312 324.174 442 324.174 342 c 0
 324.174 251.104 292.955 158 190.955 250 c 0
0 600 m 1
 757 600 l 1
EndSplineSet
Refer: 171 -1 S 1 0 0 1 644 0 2
LCarets2: 1 0 
Ligature2: "uT ligatures-1" rra uT
Ligature2: "uT ligatures-1" rra UT
EndChar

StartChar: lru
Encoding: 350 -1 350
Width: 1215
Flags: W
AnchorPoint: "anusvara" 400 800 basechar 0
LayerCount: 2
Fore
SplineSet
249 0 m 21
 212.5 -87 144 -156 -21 -201 c 13
EndSplineSet
Refer: 38 2354 N 1 0 0 1 0 0 2
Refer: 168 -1 N 1 0 0 1 635 0 2
LCarets2: 1 0 
Ligature2: "uT ligatures-1" lra uT
Ligature2: "uT ligatures-1" lra UT
EndChar

StartChar: vru
Encoding: 351 -1 351
Width: 1176
Flags: W
AnchorPoint: "anusvara" 400 800 basechar 0
LayerCount: 2
Fore
SplineSet
249 0 m 21
 212.5 -87 144 -156 -21 -201 c 13
EndSplineSet
Refer: 39 2357 N 1 0 0 1 0 0 2
Refer: 168 -1 N 1 0 0 1 596 0 2
LCarets2: 1 0 
Ligature2: "uT ligatures-1" vra uT
Ligature2: "uT ligatures-1" vra UT
EndChar

StartChar: zru
Encoding: 352 -1 352
Width: 716
VWidth: 0
Flags: W
AnchorPoint: "anusvara" 369.16 800 basechar 0
AnchorPoint: "eT" 544.16 600 basechar 0
LayerCount: 2
Fore
SplineSet
120 226 m 0
 228 234 321.709 307.964 381.459 420 c 0
 416.398 485.514 413.458 600 319.459 600 c 0
 167.76 600 154 364 498 292 c 0
175.459 0 m 0
 288.188 28 442.917 124 508.188 220 c 0
544.376 600 m 0
 526.376 440.825 501.376 0 576.376 0 c 0
0 600 m 1
 716 600 l 1
469 0 m 0
 583 -9 650.413 -62.5967 649 -105 c 0
 646 -195 528.902 -234.702 436 -219 c 0
 327.258 -200.621 301 -181.588 235 -103.588 c 0
EndSplineSet
Substitution2: "pre-ra forms of uT-1" zru.prera
LCarets2: 1 0 
Ligature2: "uT ligatures-1" zra uT
Ligature2: "uT ligatures-1" zra UT
EndChar

StartChar: Sru
Encoding: 353 -1 353
Width: 575
VWidth: 0
Flags: W
AnchorPoint: "anusvara" 350 800 basechar 0
LayerCount: 2
Fore
SplineSet
159.091 558 m 1
 407.438 346.713 l 1
444.091 600 m 0
 445.396 366 399.438 0 447.438 0 c 0
126.091 600 m 0
 132.075 497.318 100.346 431.004 141.437 336.713 c 0
 171.679 267.316 217.914 210.827 293.438 216 c 0
 370.669 221.29 409.438 300.713 433.438 356.713 c 0
302 0 m 4
 416 -9 483.413 -62.5967 482 -105 c 4
 479 -195 363.201 -220.861 269 -219 c 4
 197.5 -217.587 170.5 -157.587 128.5 -112.588 c 4
0 600 m 1
 575 600 l 1
95.5 55.4121 m 17
 241.5 85.4121 345.719 134 422.463 246 c 9
EndSplineSet
Substitution2: "pre-ra forms of uT-1" Sru.prera
LCarets2: 1 0 
Ligature2: "uT ligatures-1" Sra uT
Ligature2: "uT ligatures-1" Sra UT
EndChar

StartChar: sru
Encoding: 354 -1 354
Width: 828
VWidth: 0
Flags: W
AnchorPoint: "eT" 656 600 basechar 0
AnchorPoint: "anusvara" 444.441 800 basechar 0
LayerCount: 2
Fore
SplineSet
602.75 232 m 0
 578.75 96 490 96.4541 366 52.4541 c 0
628.75 266 m 0
 450.75 206 378.75 262 344.75 290 c 0
270.955 320 m 0
 176.955 292 120.456 274 120.456 203.312 c 0
 120.456 138 180 62 266 0 c 0
252.457 600 m 0
 291.457 548.312 324.174 442 324.174 342 c 0
 324.174 251.104 292.955 158 190.955 250 c 0
656.75 600 m 0
 638.75 440.825 613.75 0 688.75 0 c 0
0 600 m 1
 828 600 l 1
573 0 m 0
 687 -9 754.413 -62.5967 753 -105 c 0
 750 -195 634.201 -220.861 540 -219 c 0
 468.5 -217.588 384 -160.546 342 -115.546 c 0
EndSplineSet
Substitution2: "pre-ra forms of uT-1" sru.prera
LCarets2: 1 0 
Ligature2: "uT ligatures-1" sra uT
Ligature2: "uT ligatures-1" sra UT
EndChar

StartChar: hru
Encoding: 355 -1 355
Width: 924
VWidth: 0
Flags: W
AnchorPoint: "anusvara" 780 800 basechar 0
LayerCount: 2
Fore
SplineSet
146 900 m 0
 371 900 512 600 449.038 416 c 0
 424.973 345.674 357.043 340.662 299 343 c 1
 423 335 480.8 258.763 475.038 190 c 0
 468 106 423 0 288 0 c 0
 168 0 120 151 120 310.338 c 0
 120 514.338 216 740 499 740 c 0
 727 740 758.223 318.231 744 176 c 0
 732 56 714 0 658 0 c 0
 556 0 561 496 844 600 c 0
0 600 m 1
 924 600 l 1
249 0 m 21
 212.5 -87 144 -156 -21 -201 c 13
EndSplineSet
LCarets2: 1 0 
Ligature2: "uT ligatures-1" hra uT
Ligature2: "uT ligatures-1" hra UT
EndChar

StartChar: Lru
Encoding: 356 -1 356
Width: 808
Flags: W
AnchorPoint: "anusvara" 420 800 basechar 0
LayerCount: 2
Fore
SplineSet
570.015 -177 m 0
 496.015 -123.711 477.499 -124.517 403.5 -57 c 9
 209.762 -146.581 l 25
91.5 -168 m 17
 157.5 -246 197.644 -326.718 304.5 -354 c 24
 389.151 -375.613 511.5 -366 514.5 -276 c 0
 515.913 -233.597 472.011 -192 394.011 -192 c 0
 351.21 -192 338.011 -219.176 326.011 -237.176 c 9
EndSplineSet
Refer: 44 2355 N 1 0 0 1 0 0 2
Substitution2: "pre-ra forms of uT-1" Lru.prera
LCarets2: 1 0 
Ligature2: "uT ligatures-1" Lra uT
Ligature2: "uT ligatures-1" Lra UT
EndChar

StartChar: kSru
Encoding: 357 -1 357
Width: 779
VWidth: 0
Flags: W
AnchorPoint: "anusvara" 500 800 basechar 0
AnchorPoint: "eT" 620 600 basechar 0
LayerCount: 2
Fore
SplineSet
582.381 189.863 m 17
 554.976 53.1417 299.5 -4.57422 194.5 -37.5742 c 13
391.926 491.363 m 0
 595.926 170.363 645.852 600 621.852 600 c 0
 579.852 600 585.852 0 648.852 0 c 0
286.926 431.363 m 0
 145.926 533.363 187.926 689.363 280.926 695.363 c 0
 412.788 703.871 442.926 560.363 391.926 491.363 c 0
 314.24 386.26 186.852 481.862 126.852 289.862 c 0
 99.1406 201.188 158.551 143.038 249.852 125.862 c 0
 338.925 109.106 388.282 192.322 429.852 272.862 c 0
 446.417 304.959 344.515 347.957 345.852 311.862 c 0
 348.852 230.862 348.381 203.725 462.381 119.725 c 0
0 600 m 1
 779 600 l 1
536.5 0 m 0
 650.5 -9 717.913 -62.5967 716.5 -105 c 0
 713.5 -195 597.701 -220.861 503.5 -219 c 0
 432 -217.588 328.5 -184.106 286.5 -139.106 c 0
EndSplineSet
Substitution2: "pre-ra forms of uT-1" kSru.prera
LCarets2: 1 0 
Ligature2: "uT ligatures-1" kSra uT
Ligature2: "uT ligatures-1" kSra UT
EndChar

StartChar: ardhakra
Encoding: 359 -1 359
Width: 669
VWidth: 0
Flags: W
LayerCount: 2
Fore
SplineSet
331 600 m 0
 231.999 564 145.513 492.476 121.419 375 c 0
 105.029 295.09 235.757 291.075 251.212 210.979 c 0
 265.15 138.741 252.553 33.4893 187.315 33.4893 c 0
 147.212 33.4893 109.26 89.5254 130.315 126.489 c 0
 175.315 205.489 574.5 219.489 606.5 111.489 c 0
 626.223 44.9238 613.477 0 546.5 0 c 0
 444.5 0 483.5 378 759.5 444 c 0
0 600 m 1
 669 600 l 1
249 0 m 21
 212.5 -87 144 -156 -21 -201 c 13
EndSplineSet
LCarets2: 1 0 
Ligature2: "Vattu forms-1" ardhaka raphala
Ligature2: "Half forms-1" kra virAma
EndChar

StartChar: ardhakhra
Encoding: 360 -1 360
Width: 611
VWidth: 0
Flags: W
LayerCount: 2
Fore
SplineSet
120 600 m 0
 181.806 648.704 201.611 661.408 265.806 660.704 c 0
 351.019 659.77 332.879 594.665 313.806 552.704 c 0
 283.806 486.704 121.806 417.704 172.806 345.704 c 0
 222.823 275.091 383.994 277.05 385.806 318.704 c 0
 388.806 387.704 208.806 318.704 223.806 189.704 c 0
 241.203 40.083 329 0 434 0 c 0
 632 0 605 90 701 339 c 0
0 600 m 1
 611 600 l 1
311 0 m 21
 274.5 -87 144 -156 -21 -201 c 13
EndSplineSet
LCarets2: 1 0 
Ligature2: "Vattu forms-1" ardhakha raphala
Ligature2: "Half forms-1" khra virAma
EndChar

StartChar: ardhagra
Encoding: 361 -1 361
Width: 317
VWidth: 0
Flags: W
LayerCount: 2
Fore
SplineSet
197.681 600 m 0
 247.486 414.704 260.495 373.704 248.495 289.704 c 0
 241.6 241.43 191.531 206.44 144.69 220 c 0
 106.026 231.192 107.871 292.516 134.495 322.704 c 0
 164.156 356.337 224.495 370.704 248.495 337.704 c 0
0 600 m 1
 317 600 l 1
129.381 0 m 17
 255 21 390 114 453.381 238 c 9
EndSplineSet
LCarets2: 1 0 
Ligature2: "Vattu forms-1" ardhaga raphala
Ligature2: "Half forms-1" gra virAma
EndChar

StartChar: ardhaghra
Encoding: 362 -1 362
Width: 420
VWidth: 0
Flags: W
LayerCount: 2
Fore
SplineSet
208.298 600 m 0
 148 571.547 120 535.547 120 483.547 c 0
 120.001 407.892 228 407.547 304.298 423 c 1
 228 407.547 136.517 347.769 142 257.547 c 0
 146.399 185.161 240.636 180.153 318 197.547 c 0
 382.701 212.094 466.701 284.547 510 342 c 0
0 600 m 1
 420 600 l 1
0 600 m 1
 420 600 l 1
111 0 m 21
 241.737 32.6875 393 90 453.381 238 c 13
EndSplineSet
LCarets2: 1 0 
Ligature2: "Vattu forms-1" ardhagha raphala
Ligature2: "Half forms-1" ghra virAma
EndChar

StartChar: ardhaGra
Encoding: 363 -1 363
Width: 780
VWidth: 0
Flags: W
AnchorPoint: "eT" 468 600 basechar 0
AnchorPoint: "anusvara" 400 800 basechar 0
LayerCount: 2
Fore
SplineSet
314.508 -225 m 21
 440.507 -245.322 537.015 -291.296 611.015 -333 c 4
573 -183 m 4
 498.387 -129.711 452.612 -112.517 378 -45 c 13
 209.762 -152.581 l 29
EndSplineSet
Refer: 15 2329 N 1 0 0 1 0 0 2
LCarets2: 1 0 
Ligature2: "Vattu forms-1" ardhaGa raphala
Ligature2: "Half forms-1" Gra virAma
EndChar

StartChar: ardhacra
Encoding: 364 -1 364
Width: 524
VWidth: 0
Flags: W
LayerCount: 2
Fore
SplineSet
614 465 m 0
 512 417 342.081 403.324 284.038 405.662 c 1
 408.038 397.662 495.032 318 476.038 251.662 c 0
 426.771 79.5908 116.037 139.662 120.038 53.6621 c 0
 120.879 35.5713 146.037 0 178.038 0 c 0
 286.037 0 317.321 110 193.321 210 c 0
0 600 m 1
 524 600 l 1
314.508 -225 m 21
 440.507 -245.322 537.015 -291.296 611.015 -333 c 4
573 -183 m 4
 498.387 -129.711 452.612 -112.517 378 -45 c 13
 209.762 -152.581 l 29
EndSplineSet
LCarets2: 1 0 
Ligature2: "Vattu forms-1" ardhaca raphala
Ligature2: "Half forms-1" cra virAma
EndChar

StartChar: ardhachra
Encoding: 365 -1 365
Width: 672
VWidth: 0
Flags: W
AnchorPoint: "anusvara" 400 800 basechar 0
AnchorPoint: "eT" 471 600 basechar 0
LayerCount: 2
Fore
SplineSet
277.5 -150 m 17
 425.6 -178.226 539.035 -242.077 626.015 -300 c 0
249 0 m 17
 212.5 -87 144 -156 -21 -201 c 9
EndSplineSet
Refer: 17 2331 N 1 0 0 1 0 0 2
LCarets2: 1 0 
Ligature2: "Vattu forms-1" ardhacha raphala
Ligature2: "Half forms-1" chra virAma
EndChar

StartChar: ardhajra
Encoding: 366 -1 366
Width: 487
VWidth: 0
Flags: W
LayerCount: 2
Fore
SplineSet
261.655 576.437 m 0
 373.827 502 261.827 350 159.827 386 c 0
 44.9216 426.555 95.8272 600 190.08 600 c 0
 325.654 600 451.662 357.01 461.655 220.437 c 0
 467.654 138.437 443.654 0 355.655 0 c 0
 315.654 0 278.282 40.3291 287.655 108.437 c 0
 317.654 326.437 485.5 392.438 577.5 456 c 0
0 600 m 1
 487 600 l 1
340.5 -36 m 21
 280.5 -112.8 175.5 -178.8 43.5 -198 c 13
EndSplineSet
LCarets2: 1 0 
Ligature2: "Vattu forms-1" ardhaja raphala
Ligature2: "Half forms-1" jra virAma
EndChar

StartChar: ardhajhra
Encoding: 367 -1 367
Width: 515
VWidth: 0
Flags: W
LayerCount: 2
Fore
SplineSet
442.116 303 m 0
 472.927 333.865 548.151 382.832 605.5 381 c 0
340.927 600 m 0
 280.927 513.865 112.927 540.865 130.927 408.865 c 0
 151.476 258.175 375.024 451.367 442.116 303 c 0
 472.927 234.865 403.062 119.813 289.927 108.865 c 0
 196.927 99.8652 70.6602 133.306 139.927 174.865 c 0
 289.927 264.865 239.737 0 361.927 0 c 0
 422.327 0 464.737 21.8652 491.737 81.8652 c 0
0 600 m 1
 515 600 l 1
484.25 -0 m 17
 478.25 -81 430.938 -121.578 403.25 -137.4 c 0
 298.25 -197.399 278.5 -192 81 -204 c 9
EndSplineSet
LCarets2: 1 0 
Ligature2: "Vattu forms-1" ardhajha raphala
Ligature2: "Half forms-1" jhra virAma
EndChar

StartChar: ardhaJra
Encoding: 368 -1 368
Width: 554
VWidth: 0
Flags: W
LayerCount: 2
Fore
SplineSet
460 293.28 m 0
 534 291.281 599 321 644 348 c 0
226 409.28 m 0
 270 463.281 414.956 471.341 447.748 391 c 0
 486.112 297.008 428.927 168.317 327.748 160 c 0
 246 153.281 161.253 212.562 120 277.28 c 0
0 600 m 1
 554 600 l 1
518.5 59.5498 m 17
 512.5 -21.4502 487.271 -98.0115 437.5 -138.45 c 4
 389.5 -177.45 332 -196.5 209 -199.5 c 9
EndSplineSet
LCarets2: 1 0 
Ligature2: "Vattu forms-1" ardhaJa raphala
Ligature2: "Half forms-1" Jra virAma
EndChar

StartChar: ardhaTra
Encoding: 369 -1 369
Width: 639
VWidth: 0
Flags: W
AnchorPoint: "anusvara" 480 800 basechar 0
AnchorPoint: "eT" 510 600 basechar 0
LayerCount: 2
Fore
SplineSet
229.008 -225 m 17
 355.007 -245.322 451.515 -291.296 525.515 -333 c 0
487.5 -183 m 0
 412.887 -129.711 367.112 -112.517 292.5 -45 c 9
 124.262 -152.581 l 25
EndSplineSet
Refer: 21 2335 N 1 0 0 1 0 0 2
LCarets2: 1 0 
Ligature2: "Vattu forms-1" ardhaTa raphala
Ligature2: "Half forms-1" Tra virAma
EndChar

StartChar: ardhaDra
Encoding: 371 -1 371
Width: 693
VWidth: 0
Flags: W
AnchorPoint: "anusvara" 400 800 basechar 0
AnchorPoint: "eT" 468 600 basechar 0
LayerCount: 2
Fore
SplineSet
314.508 -225 m 17
 440.507 -245.322 537.015 -291.296 611.015 -333 c 0
573 -183 m 0
 498.387 -129.711 452.612 -112.517 378 -45 c 9
 209.762 -152.581 l 25
EndSplineSet
Refer: 23 2337 N 1 0 0 1 0 0 2
LCarets2: 1 0 
Ligature2: "Vattu forms-1" ardhaDa raphala
Ligature2: "Half forms-1" Dra virAma
EndChar

StartChar: ardhaDhra
Encoding: 372 -1 372
Width: 790
VWidth: 0
Flags: W
AnchorPoint: "anusvara" 450 800 basechar 0
AnchorPoint: "eT" 459 600 basechar 0
LayerCount: 2
Fore
SplineSet
314.508 -225 m 17
 440.507 -245.322 537.015 -291.296 611.015 -333 c 0
573 -183 m 0
 498.387 -129.711 452.612 -112.517 378 -45 c 9
 209.762 -152.581 l 25
EndSplineSet
Refer: 24 2338 N 1 0 0 1 0 0 2
LCarets2: 1 0 
Ligature2: "Vattu forms-1" ardhaDha raphala
Ligature2: "Half forms-1" Dhra virAma
EndChar

StartChar: ardhaNra
Encoding: 373 -1 373
Width: 451
VWidth: 0
Flags: W
LayerCount: 2
Fore
SplineSet
132.712 600 m 0
 159.657 476 31.6572 190 253.539 190 c 0
 308.755 190 387.154 278.08 391.539 338 c 0
 397.539 420 293.31 428.167 293.539 408 c 0
 295.539 232 383.539 482 380.713 600 c 0
0 600 m 1
 451 600 l 1
95.5 -99 m 29
 494.5 150 l 29
EndSplineSet
LCarets2: 1 0 
Ligature2: "Vattu forms-1" ardhaNa raphala
Ligature2: "Half forms-1" Nra virAma
EndChar

StartChar: ardhatra
Encoding: 374 -1 374
Width: 460
VWidth: 0
Flags: W
LayerCount: 2
Fore
SplineSet
120 372 m 0
 176 420 249.933 463.479 338 446 c 0
 389.055 435.867 382 390 382 320 c 0
129.881 98 m 0
 246 150 324 218 408 342 c 0
 470.594 434.4 487 432 550 447 c 0
0 600 m 1
 460 600 l 1
EndSplineSet
LCarets2: 1 0 
Ligature2: "Vattu forms-1" ardhata raphala
Ligature2: "Half forms-1" tra virAma
EndChar

StartChar: ardhathra
Encoding: 375 -1 375
Width: 490
Flags: W
LayerCount: 2
Fore
SplineSet
263 384 m 0
 131 399 122 600 245 600 c 0
 341 600 355.644 524.815 335 465 c 0
 298.021 357.856 221 306 128 261 c 1
 197 216 257.19 145.825 356 150 c 0
 448.081 153.891 529 201 580 279 c 0
0 600 m 1
 490 600 l 1
138.463 -60 m 4
 368.462 -24 490.462 86 550.463 238 c 4
EndSplineSet
LCarets2: 1 0 
Ligature2: "Vattu forms-1" ardhatha raphala
Ligature2: "Half forms-1" thra virAma
EndChar

StartChar: ardhadra
Encoding: 376 -1 376
Width: 327
VWidth: 0
Flags: W
LayerCount: 2
Fore
SplineSet
284.429 600 m 0
 172.429 533.927 83.7725 417.704 134.772 345.704 c 0
 184.789 275.091 345.96 277.05 347.772 318.704 c 0
 350.772 387.704 170.772 318.704 185.772 189.704 c 0
 203.169 40.083 315.463 0 417.463 0 c 0
0 600 m 1
 327 600 l 1
EndSplineSet
LCarets2: 1 0 
Ligature2: "Vattu forms-1" ardhada raphala
Ligature2: "Half forms-1" dra virAma
EndChar

StartChar: ardhadhra
Encoding: 377 -1 377
Width: 481
VWidth: 0
Flags: W
LayerCount: 2
Fore
SplineSet
80 488.129 m 0
 111.413 456.33 228.346 422.415 300 470.129 c 0
 345.412 500.369 318.771 600 248 600 c 0
 176 600 149.972 478.039 185.871 408 c 0
 219.093 343.184 295.871 344.128 367.871 366.129 c 1
 271.871 340.128 209.872 292 219.871 244 c 0
 242.514 135.307 301.872 140 375.871 140 c 0
 457.872 140 519 212 571 294.129 c 0
0 600 m 1
 481 600 l 1
165.231 -60 m 1
 524.463 208 l 1
EndSplineSet
LCarets2: 1 0 
Ligature2: "Vattu forms-1" ardhadha raphala
Ligature2: "Half forms-1" dhra virAma
EndChar

StartChar: ardhanra
Encoding: 378 -1 378
Width: 451
VWidth: 0
Flags: W
LayerCount: 2
Fore
SplineSet
233.787 576.437 m 0
 239.189 522 185.189 488 149.959 504 c 0
 109.037 522.585 107.189 600 162.212 600 c 0
 297.786 600 335.189 388 369.189 234 c 0
 386.915 153.714 365.188 0 277.189 0 c 0
 237.188 0 199.816 40.3291 209.189 108.437 c 0
 239.188 326.437 433.5 408 541.5 444 c 0
0 600 m 1
 451 600 l 1
349.5 -10.7998 m 21
 292.5 -136.8 160.5 -187.8 43.5 -198 c 13
EndSplineSet
LCarets2: 1 0 
Ligature2: "Vattu forms-1" ardhana raphala
Ligature2: "Half forms-1" nra virAma
EndChar

StartChar: ardhapra
Encoding: 379 -1 379
Width: 391
VWidth: 0
Flags: W
LayerCount: 2
Fore
SplineSet
126.091 600 m 0
 132.075 497.318 100.346 431.004 141.437 336.713 c 0
 171.679 267.316 217.914 210.827 293.437 216 c 0
 370.669 221.29 425.5 322 481.5 404 c 0
0 600 m 1
 391 600 l 1
65.7188 0 m 4
 211.719 30 345.719 134 422.463 246 c 4
EndSplineSet
LCarets2: 1 0 
Ligature2: "Vattu forms-1" ardhapa raphala
Ligature2: "Half forms-1" pra virAma
EndChar

StartChar: ardhaphra
Encoding: 380 -1 380
Width: 562
VWidth: 0
Flags: W
LayerCount: 2
Fore
SplineSet
129.724 600 m 0
 101.724 508.936 129.988 256.35 269.977 252.936 c 0
 433.977 248.936 429.977 600 411.977 600 c 0
 375.977 600 442.977 0 399.977 0 c 0
 372.977 0 370.5 237 652.5 324 c 0
0 600 m 1
 562 600 l 1
505.5 79.5 m 21
 562.5 -6 469.5 -193.5 289.5 -208.5 c 13
EndSplineSet
LCarets2: 1 0 
Ligature2: "Vattu forms-1" ardhapha raphala
Ligature2: "Half forms-1" phra virAma
EndChar

StartChar: ardhabra
Encoding: 381 -1 381
Width: 474
VWidth: 0
Flags: W
LayerCount: 2
Fore
SplineSet
564 93 m 0
 489 24 441 0 375.847 0 c 0
 313.847 0 172.84 15.9473 157.117 139.983 c 0
 139.117 281.983 181.118 333.982 321.117 389.983 c 1
 199.117 331.983 139.117 377.983 122.588 447 c 0
 106.521 514.087 167.118 565.983 253.117 600 c 0
0 600 m 1
 474 600 l 1
249 0 m 21
 212.5 -87 144 -156 -21 -201 c 13
EndSplineSet
LCarets2: 1 0 
Ligature2: "Vattu forms-1" ardhaba raphala
Ligature2: "Half forms-1" bra virAma
EndChar

StartChar: ardhabhra
Encoding: 382 -1 382
Width: 498
VWidth: 0
Flags: W
LayerCount: 2
Fore
SplineSet
390.263 528 m 0
 336.263 488 242.629 416.018 150.263 450 c 0
 93.0166 471.062 122.126 600 194.562 600 c 0
 289.837 600 300.604 332.584 244.562 152 c 0
 226.562 94 163.222 97.0596 142.562 130 c 0
 121.771 163.148 165.208 203.354 226.562 222 c 0
 430.562 284 560.438 312 588 399 c 0
0 600 m 1
 498 600 l 1
543 162 m 21
 497 37.5 314 -73.5 198 -96 c 13
EndSplineSet
LCarets2: 1 0 
Ligature2: "Vattu forms-1" ardhabha raphala
Ligature2: "Half forms-1" bhra virAma
EndChar

StartChar: ardhamra
Encoding: 383 -1 383
Width: 397
VWidth: 0
Flags: W
LayerCount: 2
Fore
SplineSet
142.585 600 m 0
 195.657 510.141 256.585 74.8594 172.585 74.8594 c 0
 38.9277 74.8594 199.928 309 487 309 c 0
0 600 m 1
 397 600 l 1
260.5 97.4619 m 21
 368.5 -91.5381 131.5 -204 -21 -201 c 13
EndSplineSet
LCarets2: 1 0 
Ligature2: "Vattu forms-1" ardhama raphala
Ligature2: "Half forms-1" mra virAma
EndChar

StartChar: ardhayra
Encoding: 384 -1 384
Width: 490
Flags: W
LayerCount: 2
Fore
SplineSet
188 600 m 0
 284 600 344.644 489.815 324 430 c 0
 287.021 322.856 221 306 128 261 c 1
 197 216 257.19 145.825 356 150 c 0
 448.081 153.891 529 201 580 279 c 0
0 600 m 1
 490 600 l 1
138.463 -60 m 21
 368.462 -24 490.462 86 550.463 238 c 13
EndSplineSet
LCarets2: 1 0 
Ligature2: "Vattu forms-1" ardhaya raphala
Ligature2: "Half forms-1" yra virAma
EndChar

StartChar: ardharra
Encoding: 385 -1 385
Width: 393
VWidth: 0
Flags: W
LayerCount: 2
Fore
SplineSet
120 375 m 0
 303.5 234 432.5 327 483.5 405 c 0
0 600 m 1
 393 600 l 1
EndSplineSet
Refer: 171 -1 N 1 0 0 1 596.993 222 2
LCarets2: 1 0 
Ligature2: "Vattu forms-1" ardhara raphala
Ligature2: "Half forms-1" rra virAma
EndChar

StartChar: ardhalra
Encoding: 386 -1 386
Width: 441
VWidth: 0
Flags: W
LayerCount: 2
Fore
SplineSet
163.3 600 m 0
 124.798 557.812 102.212 486.27 137.802 429 c 0
 224.36 289.715 372.102 289.804 446.798 143.812 c 0
 476.888 85.002 450.798 0 357.3 0 c 0
 270.428 0 247.04 80.2686 272.798 137.812 c 0
 336.588 280.321 429.5 474 531.5 600 c 0
0 600 m 1
 441 600 l 1
249 0 m 21
 212.5 -87 144 -156 -21 -201 c 13
EndSplineSet
LCarets2: 1 0 
Ligature2: "Vattu forms-1" ardhala raphala
Ligature2: "Half forms-1" lra virAma
EndChar

StartChar: ardhavra
Encoding: 387 -1 387
Width: 439
VWidth: 0
Flags: W
LayerCount: 2
Fore
SplineSet
174.936 600 m 0
 135.936 457.5 107.533 237 125.533 156 c 0
 149.75 47.0234 232.327 0 365.533 0 c 0
 463 0 478 24 529 96 c 0
0 600 m 1
 439 600 l 1
249 0 m 21
 212.5 -87 144 -156 -21 -201 c 13
EndSplineSet
LCarets2: 1 0 
Ligature2: "Vattu forms-1" ardhava raphala
Ligature2: "Half forms-1" vra virAma
EndChar

StartChar: ardhazra
Encoding: 388 -1 388
Width: 408
VWidth: 0
Flags: W
LayerCount: 2
Fore
SplineSet
120 226 m 0
 228 234 321.709 307.964 381.459 420 c 0
 416.398 485.514 413.458 600 319.459 600 c 0
 167.76 600 154 364 498 292 c 0
0 600 m 1
 408 600 l 1
175.459 0 m 4
 288.188 28 442.917 124 508.188 220 c 4
EndSplineSet
LCarets2: 1 0 
Ligature2: "Vattu forms-1" ardhaza raphala
Ligature2: "Half forms-1" zra virAma
EndChar

StartChar: ardhaSra
Encoding: 389 -1 389
Width: 391
VWidth: 0
Flags: W
LayerCount: 2
Fore
SplineSet
159.091 558 m 1
 411.5 336 l 1
126.091 600 m 0
 132.075 497.318 100.346 431.004 141.437 336.713 c 0
 171.679 267.316 217.914 210.827 293.437 216 c 0
 370.669 221.29 425.5 322 481.5 404 c 0
0 600 m 1
 391 600 l 1
65.7188 0 m 21
 211.719 30 345.719 134 422.463 246 c 13
EndSplineSet
LCarets2: 1 0 
Ligature2: "Vattu forms-1" ardhaSa raphala
Ligature2: "Half forms-1" Sra virAma
EndChar

StartChar: ardhasra
Encoding: 390 -1 390
Width: 624
VWidth: 0
Flags: W
LayerCount: 2
Fore
SplineSet
602.75 232 m 0
 578.75 96 444 -38 320 -82 c 0
714 433 m 0
 636 208 474 214 344.75 290 c 0
270.955 320 m 0
 176.955 292 120.456 274 120.456 203.312 c 0
 120.456 138 180 62 266 0 c 0
252.457 600 m 0
 291.457 548.312 324.174 442 324.174 342 c 0
 324.174 251.104 292.955 158 190.955 250 c 0
0 600 m 1
 624 600 l 1
EndSplineSet
LCarets2: 1 0 
Ligature2: "Vattu forms-1" ardhasa raphala
Ligature2: "Half forms-1" sra virAma
EndChar

StartChar: ardhahra
Encoding: 391 -1 391
Width: 644
VWidth: 0
Flags: W
AnchorPoint: "anusvara" 350 800 basechar 0
AnchorPoint: "eT" 428.38 600 basechar 0
LayerCount: 2
Fore
SplineSet
374.5 -123 m 17
 469.26 -148.968 543.848 -195.711 599.5 -249 c 0
249 0 m 17
 212.5 -87 144 -156 -21 -201 c 9
EndSplineSet
Refer: 43 2361 N 1 0 0 1 0 0 2
LCarets2: 1 0 
Ligature2: "Vattu forms-1" ardhaha raphala
Ligature2: "Half forms-1" hra virAma
EndChar

StartChar: ardhaLra
Encoding: 392 -1 392
Width: 808
VWidth: 0
Flags: W
AnchorPoint: "anusvara" 420 800 basechar 0
AnchorPoint: "eT" 446 600 basechar 0
LayerCount: 2
Fore
SplineSet
314.508 -225 m 17
 440.507 -245.322 537.015 -291.296 611.015 -333 c 0
573 -183 m 0
 498.387 -129.711 452.612 -112.517 378 -45 c 9
 209.762 -152.581 l 25
EndSplineSet
Refer: 44 2355 N 1 0 0 1 0 0 2
LCarets2: 1 0 
Ligature2: "Vattu forms-1" ardhaLa raphala
Ligature2: "Half forms-1" Lra virAma
EndChar

StartChar: ardhakSra
Encoding: 393 -1 393
Width: 539
VWidth: 0
Flags: W
LayerCount: 2
Fore
SplineSet
391.926 491.363 m 0
 530.5 302.863 650.5 428.862 626.5 428.862 c 0
286.926 431.363 m 0
 145.926 533.363 187.926 689.363 280.926 695.363 c 0
 412.788 703.871 442.926 560.363 391.926 491.363 c 0
 314.24 386.26 186.852 480.501 126.852 288.501 c 0
 99.1406 199.827 158.551 128.677 249.852 111.501 c 0
 338.925 94.7451 388.282 177.961 429.852 258.501 c 0
 446.417 290.597 346.491 333.614 345.852 297.501 c 0
 344.788 237.501 347.788 186.501 446.788 132.501 c 0
0 600 m 1
 539 600 l 1
582.381 189.863 m 17
 554.976 53.1417 380.5 -64.2061 275.5 -97.2061 c 9
EndSplineSet
LCarets2: 1 0 
Ligature2: "Vattu forms-1" ardhakSa raphala
Ligature2: "Half forms-1" kSra virAma
EndChar

StartChar: space
Encoding: 395 32 395
Width: 400
VWidth: 0
Flags: W
LayerCount: 2
Fore
SplineSet
0 600 m 1
 400 600 l 1
EndSplineSet
EndChar

StartChar: kara
Encoding: 398 -1 398
Width: 480
VWidth: 0
Flags: W
AnchorPoint: "anusvara" 250 800 basechar 0
AnchorPoint: "eT" 331 600 basechar 0
LayerCount: 2
Fore
SplineSet
331 600 m 0
 231.999 564 162.5 537 144.5 456 c 0
 126.804 376.369 216.045 419.096 231.5 339 c 0
 245.438 266.762 215.738 213 150.5 213 c 0
 110.397 213 269.221 245.956 315.5 201 c 0
 420.5 99 249.5 -12 219.5 -12 c 0
 189.953 -12 326.924 52.6445 387.5 24 c 0
 496.695 -27.6348 487.355 -175.143 606.5 -195 c 0
 716.58 -213.347 780.5 -156 855.5 -54 c 0
0 600 m 1
 480 600 l 1
EndSplineSet
EndChar

StartChar: kAra
Encoding: 399 -1 399
Width: 480
VWidth: 0
Flags: W
AnchorPoint: "anusvara" 250 800 basechar 0
AnchorPoint: "eT" 331 600 basechar 0
LayerCount: 2
Fore
SplineSet
331 600 m 0
 231.999 564 162.5 537 144.5 456 c 0
 126.804 376.369 225.39 473.864 240.845 393.769 c 0
 254.782 321.53 207.083 261.769 141.845 261.769 c 0
 101.742 261.769 264.844 315.768 306.845 249.769 c 0
 359.109 167.638 267.844 108.768 201.845 102.769 c 0
 160.703 99.0283 393.956 174.769 381.845 39.7686 c 0
 375.575 -30.1152 294.568 -89.2314 279.845 -89.2314 c 0
 250.298 -89.2314 384.096 -32.59 447.845 -53.2314 c 0
 526.789 -78.793 523.521 -194.844 606.5 -195 c 0
 718.099 -195.21 780.5 -156 855.5 -54 c 0
0 600 m 1
 480 600 l 1
EndSplineSet
EndChar

StartChar: karu
Encoding: 404 -1 404
Width: 935
VWidth: 0
Flags: W
AnchorPoint: "anusvara" 500 800 basechar 0
LayerCount: 2
Fore
SplineSet
331 600 m 0
 231.999 564 162.5 537 144.5 456 c 0
 126.805 376.369 216.045 419.096 231.5 339 c 0
 245.438 266.762 215.738 213 150.5 213 c 0
 110.397 213 269.222 245.956 315.5 201 c 0
 420.5 99 249.5 -12 219.5 -12 c 0
 189.953 -12 326.924 52.6445 387.5 24 c 0
 496.695 -27.6348 487.355 -175.143 606.5 -195 c 0
 716.58 -213.347 780.5 -156 855.5 -54 c 0
739.75 600 m 0
 691.75 470 591.822 66 727.75 66 c 0
 813.822 66 769.75 326.804 445.75 14.8037 c 0
0 600 m 1
 935 600 l 1
EndSplineSet
EndChar

StartChar: kAru
Encoding: 405 -1 405
Width: 935
VWidth: 0
Flags: W
AnchorPoint: "anusvara" 500 800 basechar 0
LayerCount: 2
Fore
SplineSet
331 600 m 0
 231.999 564 162.5 537 144.5 456 c 0
 126.805 376.369 225.39 473.864 240.845 393.769 c 0
 254.782 321.53 207.083 261.769 141.845 261.769 c 0
 101.742 261.769 264.844 315.768 306.845 249.769 c 0
 359.109 167.638 267.844 108.768 201.845 102.769 c 0
 160.703 99.0283 393.956 174.769 381.845 39.7686 c 0
 375.575 -30.1152 294.568 -89.2314 279.845 -89.2314 c 0
 250.298 -89.2314 384.096 -32.5898 447.845 -53.2314 c 0
 526.789 -78.793 523.521 -194.844 606.5 -195 c 0
 718.099 -195.21 780.5 -156 855.5 -54 c 0
739.75 600 m 0
 691.75 470 591.822 66 727.75 66 c 0
 813.822 66 775.75 382.5 490.75 -37.5 c 0
0 600 m 1
 935 600 l 1
EndSplineSet
EndChar

StartChar: ra.postsa
Encoding: 406 -1 406
Width: 280
VWidth: 0
Flags: W
AnchorPoint: "anusvara" 100 800 basechar 0
AnchorPoint: "eT" 131 600 basechar 0
LayerCount: 2
Fore
SplineSet
-186.25 215.804 m 0
 -220.815 195.471 -9.25 416.804 122.75 299.804 c 0
 279.316 161.029 49.5 -12 19.5 -12 c 0
 -10.0469 -12 126.924 52.6445 187.5 24 c 0
 296.695 -27.6348 287.355 -175.143 406.5 -195 c 0
 516.58 -213.347 580.5 -156 655.5 -54 c 0
0 600 m 1
 280 600 l 1
EndSplineSet
EndChar

StartChar: ra.postaa
Encoding: 408 -1 408
Width: 100
VWidth: 0
Flags: W
AnchorPoint: "anusvara" 100 800 basechar 0
AnchorPoint: "eT" 100 600 basechar 0
LayerCount: 2
Fore
SplineSet
-160.256 0 m 4
 -55.2559 71.8037 24.9766 40.1289 43.7441 -24.1963 c 4
 63 -90.1963 226.744 -180.196 286.744 -195 c 4
 395.094 -221.732 454.744 -183.196 511.744 -138.196 c 4
0 600 m 1
 100 600 l 1
EndSplineSet
EndChar

StartChar: ra.round
Encoding: 409 -1 409
Width: 512
VWidth: 0
Flags: W
AnchorPoint: "anusvara" 207.316 800 basechar 0
AnchorPoint: "eT" 107.316 600 basechar 0
LayerCount: 2
Fore
SplineSet
120.816 600 m 0
 255.816 600 318.816 576 318.816 447 c 0
 318.816 335.959 129.816 372 120.816 279 c 0
 105.146 117.063 318.816 0 432.816 0 c 0
0 600 m 1
 512 600 l 1
EndSplineSet
EndChar

StartChar: thi.alt
Encoding: 415 -1 415
Width: 1096
VWidth: 0
Flags: W
AnchorPoint: "anusvara" 952 800 basechar 0
LayerCount: 2
Fore
SplineSet
580.925 600 m 0
 562.925 440.825 537.925 0 612.925 0 c 0
 650.925 0 662.925 34.8252 672.925 72.8252 c 0
263 384 m 0
 131 399 122 600 245 600 c 0
 341 600 355.644 524.815 335 465 c 0
 298.021 357.856 221 306 128 261 c 1
 197 216 257.19 145.825 356 150 c 0
 448.081 153.891 503 201 554 279 c 0
585 600 m 0
 610.188 681 649.489 759 730.532 759 c 0
 890.059 759 1085.97 0 878.863 0 c 0
 758.52 0 884.461 456 1016 600 c 0
0 600 m 1
 1096 600 l 1
EndSplineSet
EndChar

StartChar: dhi.alt
Encoding: 416 -1 416
Width: 1070
VWidth: 0
Flags: W
AnchorPoint: "anusvara" 926 800 basechar 0
LayerCount: 2
Fore
SplineSet
554.462 600 m 0
 536.462 440.825 511.462 0 586.462 0 c 0
 624.462 0 636.462 34.8252 646.462 72.8252 c 0
80 488.129 m 0
 111.413 456.33 228.346 422.415 300 470.129 c 0
 345.412 500.369 318.771 600 248 600 c 0
 176 600 149.972 478.039 185.871 408 c 0
 219.093 343.184 295.871 344.128 367.871 366.129 c 1
 271.871 340.128 209.872 292 219.871 244 c 0
 242.514 135.307 301.872 140 375.871 140 c 0
 457.872 140 499.872 218 533.871 294.129 c 0
557 600 m 0
 582.306 681 621.789 759 703.208 759 c 0
 863.474 759 1060.29 0 852.229 0 c 0
 731.324 0 857.851 456 990 600 c 0
-0 600 m 1
 1070 600 l 1
EndSplineSet
EndChar

StartChar: pi.alt
Encoding: 417 -1 417
Width: 919
Flags: W
AnchorPoint: "anusvara" 775 800 basechar 0
LayerCount: 2
Fore
SplineSet
444.091 600 m 0
 445.396 366 399.438 0 447.438 0 c 0
 479.438 0 483.438 30.7129 495.438 62.7129 c 0
126.091 600 m 0
 132.075 497.318 100.346 431.004 141.437 336.713 c 0
 171.679 267.316 217.914 210.827 293.438 216 c 0
 370.669 221.29 409.438 300.713 433.438 356.713 c 0
445.445 600 m 0
 468.444 681 504.331 759 578.334 759 c 0
 724 759 902.889 0 713.778 0 c 0
 603.889 0 718.889 456 839 600 c 0
0 600 m 1
 919 600 l 1
EndSplineSet
EndChar

StartChar: yi.alt
Encoding: 418 -1 418
Width: 1096
VWidth: 0
Flags: W
AnchorPoint: "anusvara" 952 800 basechar 0
LayerCount: 2
Fore
SplineSet
672.925 72.8252 m 0
 662.925 34.8252 650.925 0 612.925 0 c 0
 537.925 0 562.925 440.825 580.925 600 c 0
190.511 600 m 0
 295.511 570 290.143 512.507 277.511 444 c 0
 260.798 353.367 221 306 128 261 c 1
 197 216 257.19 145.825 356 150 c 0
 448.081 153.891 503 201 554 279 c 0
580 600 m 0
 605.48 681 645.237 759 727.221 759 c 0
 888.598 759 1086.78 0 877.272 0 c 0
 755.532 0 882.936 456 1016 600 c 0
0 600 m 1
 1096 600 l 1
EndSplineSet
EndChar

StartChar: ri.alt
Encoding: 419 -1 419
Width: 951
VWidth: 0
Flags: W
AnchorPoint: "anusvara" 807 800 basechar 0
LayerCount: 2
Fore
SplineSet
435.462 600 m 0
 417.462 440.825 392.462 0 467.462 0 c 0
 505.462 0 517.462 34.8252 527.462 72.8252 c 0
120 294 m 0
 288 285 357.537 342 408.537 420 c 0
0 600 m 1
 951 600 l 1
438 600 m 0
 463.306 681 502.789 759 584.208 759 c 0
 744.474 759 941.292 0 733.228 0 c 0
 612.324 0 738.851 456 871 600 c 0
EndSplineSet
EndChar

StartChar: dhu.alt
Encoding: 420 -1 420
Width: 726
VWidth: 0
Flags: W
AnchorPoint: "anusvara" 410 800 basechar 0
AnchorPoint: "eT" 555 600 basechar 0
LayerCount: 2
Fore
SplineSet
554.462 600 m 0
 536.462 440.825 511.462 0 586.462 0 c 0
80 488.129 m 0
 111.413 456.33 228.346 422.415 300 470.129 c 0
 345.412 500.369 318.771 600 248 600 c 0
 176 600 149.972 478.039 185.871 408 c 0
 219.093 343.184 295.871 344.128 367.871 366.129 c 1
 271.871 340.128 209.872 292 219.871 244 c 0
 242.514 135.307 301.872 140 375.871 140 c 0
 457.872 140 499.872 218 533.871 294.129 c 0
-0 600 m 1
 726 600 l 1
459.511 0 m 0
 573.511 -9 640.924 -62.5967 639.511 -105 c 0
 636.511 -195 520.133 -229.593 426.511 -219 c 0
 361 -211.587 325 -208.588 259 -130.588 c 0
EndSplineSet
EndChar

StartChar: repha_ai
Encoding: 428 -1 428
Width: 0
VWidth: 0
Flags: W
AnchorPoint: "eT" -100 600 mark 0
LayerCount: 2
Fore
SplineSet
-100 600 m 17
 -166.469 722.92 -45.0498 900 70.5312 900 c 0
 167.95 900 178.531 848.92 174.419 803.02 c 0
EndSplineSet
Refer: 54 2376 N 1 0 0 1 0 0 2
LCarets2: 1 0 
Ligature2: "above-base matra conjunction-1" repha aiT
EndChar

StartChar: gu.prera
Encoding: 432 -1 432
Width: 657
Flags: W
AnchorPoint: "anusvara" 350 800 basechar 0
LayerCount: 2
Fore
SplineSet
475.486 600 m 0
 469.486 351.704 448.486 0 491.681 0 c 0
197.681 600 m 0
 247.486 414.704 265.486 327.704 253.486 243.704 c 0
 246.59 195.43 196.522 160.44 149.681 174 c 0
 111.017 185.192 112.862 246.516 139.486 276.704 c 0
 169.147 310.337 229.486 324.704 253.486 291.704 c 0
384 0 m 0
 498 -9 565.413 -62.5967 564 -105 c 0
 561 -195 443.902 -234.702 351 -219 c 0
0 600 m 1
 657 600 l 1
EndSplineSet
EndChar

StartChar: ghu.prera
Encoding: 433 -1 433
Width: 654
VWidth: 0
Flags: W
AnchorPoint: "anusvara" 350 800 basechar 0
LayerCount: 2
Fore
SplineSet
472 600 m 0
 468.701 343.547 450.701 0 502 0 c 0
208.298 600 m 0
 148 571.547 120 535.547 120 483.547 c 0
 120.001 407.892 228 407.547 304.298 423 c 1
 228 407.547 136.517 347.769 142 257.547 c 0
 146.399 185.161 240.636 180.153 318 197.547 c 0
 382.701 212.094 422.701 263.547 466 321 c 0
381 0 m 0
 495 -9 562.413 -62.5967 561 -105 c 0
 558 -195 440.902 -234.702 348 -219 c 0
0 600 m 1
 654 600 l 1
EndSplineSet
EndChar

StartChar: Gu.prera
Encoding: 434 -1 434
Width: 780
Flags: W
AnchorPoint: "anusvara" 400 800 basechar 0
LayerCount: 2
Fore
SplineSet
343.5 -300 m 21
 436.401 -315.701 525 -276 528 -186 c 0
 529.413 -143.597 481.011 -81 403.011 -81 c 0
 360.21 -81 347.011 -108.176 335.011 -126.176 c 9
468 600 m 0
 366 570 293 470 309 390 c 0
 317.385 348.075 367.029 300.499 439 324 c 0
 537 356 573 314 573 198 c 0
 573 67.2139 505.115 0 352.885 0 c 0
 161.115 0 130 210 120 420 c 0
0 600 m 1
 780 600 l 1
681 432.5 m 25
 639 402.5 l 25
EndSplineSet
EndChar

StartChar: chu.prera
Encoding: 435 -1 435
Width: 672
Flags: W
AnchorPoint: "anusvara" 400 800 basechar 0
LayerCount: 2
Fore
SplineSet
315 -279 m 17
 407.902 -294.702 525 -276 528 -186 c 0
 529.413 -143.597 481.011 -81 403.011 -81 c 0
 360.21 -81 347.011 -108.176 335.011 -126.176 c 9
253.117 600 m 0
 167.118 565.983 106.521 514.087 122.588 447 c 0
 139.117 377.983 199.117 331.983 321.117 389.983 c 1
 181.118 333.982 139.117 281.983 157.117 139.983 c 0
 172.84 15.9473 277.117 0 339.117 0 c 0
 441.118 0 520.071 89.0166 545.117 207.983 c 0
 585.118 397.982 459.118 467.982 444.588 401 c 0
 429.496 331.424 531.256 344.294 543.117 453.983 c 0
 551.118 527.966 507.118 585.982 471.117 600 c 0
0 600 m 1
 672 600 l 1
EndSplineSet
EndChar

StartChar: Tu.prera
Encoding: 436 -1 436
Width: 639
Flags: W
AnchorPoint: "anusvara" 480 800 basechar 0
LayerCount: 2
Fore
SplineSet
352.5 -291 m 17
 445.402 -306.702 543 -276 546 -186 c 0
 547.413 -143.597 499.011 -81 421.011 -81 c 0
 378.21 -81 365.011 -108.176 353.011 -126.176 c 9
510.662 600 m 0
 470.663 548.996 456.906 514.081 456.615 453 c 0
 456.071 338.865 551.945 270.576 508.589 164.996 c 0
 465.686 60.5186 394.59 0 270.59 0 c 0
 134.76 0 36.5898 180.996 222.59 312.996 c 0
0 600 m 1
 639 600 l 1
EndSplineSet
EndChar

StartChar: Thu.prera
Encoding: 437 -1 437
Width: 639
Flags: W
AnchorPoint: "anusvara" 480 800 basechar 0
LayerCount: 2
Fore
SplineSet
352.5 -291 m 21
 445.402 -306.702 543 -276 546 -186 c 4
 547.413 -143.597 499.011 -81 421.011 -81 c 4
 378.21 -81 365.011 -108.176 353.011 -126.176 c 13
345 201.5 m 25
 303 171.5 l 25
510.662 600 m 0
 470.663 548.996 456.906 514.081 456.615 453 c 0
 456.071 338.865 551.945 270.576 508.589 164.996 c 0
 465.686 60.5186 394.59 0 270.59 0 c 0
 134.76 0 36.5898 180.996 222.59 312.996 c 0
0 600 m 1
 639 600 l 1
EndSplineSet
EndChar

StartChar: Du.prera
Encoding: 438 -1 438
Width: 693
Flags: W
AnchorPoint: "anusvara" 400 800 basechar 0
LayerCount: 2
Fore
SplineSet
334.5 -279 m 17
 427.402 -294.702 534 -276 537 -186 c 0
 538.413 -143.597 490.011 -81 412.011 -81 c 0
 369.21 -81 356.011 -108.176 344.011 -126.176 c 9
468 600 m 0
 366 570 293 470 309 390 c 0
 317.385 348.075 367.029 300.499 439 324 c 0
 537 356 573 314 573 198 c 0
 573 67.2139 505.115 0 352.885 0 c 0
 161.115 0 130 210 120 420 c 0
0 600 m 1
 693 600 l 1
EndSplineSet
EndChar

StartChar: Dhu.prera
Encoding: 439 -1 439
Width: 790
Flags: W
AnchorPoint: "anusvara" 450 800 basechar 0
LayerCount: 2
Fore
SplineSet
478.5 -324 m 21
 583.5 -309 640 -276 643 -186 c 0
 644.413 -143.597 596.011 -81 518.011 -81 c 0
 475.21 -81 462.011 -108.176 450.011 -126.176 c 9
459 600 m 0
 485.821 585.602 516 540.602 465 501.602 c 0
 287.16 365.609 120 381.602 120 204.602 c 0
 120 95.1797 184.657 59.7812 267 51.6016 c 0
 392.935 39.0918 429.835 155.512 573 159.602 c 0
 678.001 162.602 714.001 0 603 0 c 0
 519.001 0 474 63.6016 438 108.602 c 0
0 600 m 1
 790 600 l 1
EndSplineSet
EndChar

StartChar: Nu.prera
Encoding: 440 -1 440
Width: 707
VWidth: 0
Flags: W
AnchorPoint: "anusvara" 500 800 basechar 0
LayerCount: 2
Fore
SplineSet
535.931 600 m 0
 517.931 440.825 492.931 0 567.931 0 c 0
132.712 600 m 0
 159.657 476 31.6572 190 253.539 190 c 0
 308.755 190 387.154 278.08 391.539 338 c 0
 397.539 420 293.31 428.167 293.539 408 c 0
 295.539 232 383.539 482 380.713 600 c 0
434 0 m 0
 548 -9 615.413 -62.5967 614 -105 c 0
 611 -195 493.902 -234.702 401 -219 c 0
0 600 m 1
 707 600 l 1
EndSplineSet
EndChar

StartChar: thu.prera
Encoding: 441 -1 441
Width: 752
Flags: W
AnchorPoint: "anusvara" 415 800 basechar 0
LayerCount: 2
Fore
SplineSet
499.511 0 m 0
 613.511 -9 680.924 -62.5967 679.511 -105 c 0
 676.511 -195 568.402 -213.702 475.5 -198 c 13
580.925 600 m 0
 562.925 440.825 537.925 0 612.925 0 c 0
263 384 m 0
 131 399 122 600 245 600 c 0
 341 600 355.644 524.815 335 465 c 0
 298.021 357.856 221 306 128 261 c 1
 197 216 257.19 145.825 356 150 c 0
 448.081 153.891 503 201 554 279 c 0
0 600 m 1
 752 600 l 1
EndSplineSet
EndChar

StartChar: pu.prera
Encoding: 442 -1 442
Width: 575
Flags: W
AnchorPoint: "anusvara" 300 800 basechar 0
LayerCount: 2
Fore
SplineSet
343.511 0 m 0
 457.511 -9 524.924 -62.5967 523.511 -105 c 0
 520.511 -195 403.402 -213.702 310.5 -198 c 13
444.091 600 m 0
 445.396 366 399.438 0 447.438 0 c 0
126.091 600 m 0
 132.075 497.318 100.346 431.004 141.437 336.713 c 0
 171.679 267.316 217.914 210.827 293.438 216 c 0
 370.669 221.29 409.438 300.713 433.438 356.713 c 0
0 600 m 1
 575 600 l 1
EndSplineSet
EndChar

StartChar: bhu.prera
Encoding: 443 -1 443
Width: 750
VWidth: 0
Flags: W
AnchorPoint: "anusvara" 420 800 basechar 0
LayerCount: 2
Fore
SplineSet
390.263 528 m 0
 336.263 488 242.629 416.018 150.263 450 c 0
 93.0166 471.062 122.126 600 194.562 600 c 0
 289.837 600 300.604 332.584 244.562 152 c 0
 226.562 94 163.222 97.0596 142.562 130 c 0
 121.771 163.148 165.208 203.354 226.562 222 c 0
 430.562 284 714.562 600 588.562 600 c 0
 534.562 600 553.837 0 604.837 0 c 0
477 0 m 0
 591 -9 658.413 -62.5967 657 -105 c 0
 654 -195 536.902 -234.702 444 -219 c 0
0 600 m 1
 750 600 l 1
EndSplineSet
EndChar

StartChar: mu.prera
Encoding: 444 -1 444
Width: 750
VWidth: 0
Flags: W
AnchorPoint: "anusvara" 420 800 basechar 0
LayerCount: 2
Fore
SplineSet
205.511 600 m 0
 244.511 532.412 300.604 332.584 244.562 152 c 0
 226.562 94 163.222 97.0596 142.562 130 c 0
 121.771 163.148 165.208 203.354 226.562 222 c 0
 430.562 284 714.562 600 588.562 600 c 0
 534.562 600 553.837 0 604.837 0 c 0
477 0 m 0
 591 -9 658.413 -62.5967 657 -105 c 0
 654 -195 536.902 -234.702 444 -219 c 0
0 600 m 1
 750 600 l 1
EndSplineSet
EndChar

StartChar: yu.prera
Encoding: 445 -1 445
Width: 752
Flags: W
AnchorPoint: "anusvara" 415 800 basechar 0
LayerCount: 2
Fore
SplineSet
499.511 0 m 0
 613.511 -9 680.924 -62.5967 679.511 -105 c 0
 676.511 -195 553.402 -219.702 460.5 -204 c 13
580.925 600 m 0
 562.925 440.825 537.925 0 612.925 0 c 0
190.511 600 m 0
 295.511 570 290.143 512.507 277.511 444 c 0
 260.798 353.367 221 306 128 261 c 1
 197 216 257.19 145.825 356 150 c 0
 448.081 153.891 503 201 554 279 c 0
0 600 m 1
 752 600 l 1
EndSplineSet
EndChar

StartChar: zu.prera
Encoding: 446 -1 446
Width: 797
VWidth: 0
Flags: W
AnchorPoint: "anusvara" 400 800 basechar 0
LayerCount: 2
Fore
SplineSet
625.216 600 m 0
 607.216 440.825 582.216 0 657.216 0 c 0
194.423 600 m 0
 304.423 564 304.423 380 199.216 328 c 0
 154.964 306.128 91.2158 380 133.216 436 c 0
 192.368 514.869 389.086 504.467 384.216 406 c 0
 374.423 208 193.426 251.496 175.216 112 c 0
 165.521 37.7334 235.216 0 331.216 0 c 0
 423.601 0 457.216 88 498.216 168 c 0
524 0 m 0
 638 -9 705.413 -62.5967 704 -105 c 0
 701 -195 585.215 -218.037 491 -219 c 0
0 600 m 1
 797 600 l 1
EndSplineSet
EndChar

StartChar: Su.prera
Encoding: 447 -1 447
Width: 575
VWidth: 0
Flags: W
AnchorPoint: "anusvara" 350 800 basechar 0
LayerCount: 2
Fore
SplineSet
159.091 558 m 1
 407.438 346.713 l 1
444.091 600 m 0
 445.396 366 399.438 0 447.438 0 c 0
126.091 600 m 0
 132.075 497.318 100.346 431.004 141.437 336.713 c 0
 171.679 267.316 217.914 210.827 293.438 216 c 0
 370.669 221.29 409.438 300.713 433.438 356.713 c 0
302 0 m 0
 416 -9 483.413 -62.5967 482 -105 c 0
 479 -195 361.902 -234.702 269 -219 c 0
0 600 m 1
 575 600 l 1
EndSplineSet
EndChar

StartChar: Lu.prera
Encoding: 448 -1 448
Width: 808
Flags: W
AnchorPoint: "anusvara" 420 800 basechar 0
LayerCount: 2
Fore
SplineSet
361 -300 m 24
 453.902 -315.702 571 -276 574 -186 c 0
 575.413 -143.597 527.011 -81 449.011 -81 c 0
 406.21 -81 393.011 -108.176 381.011 -126.176 c 9
363.383 323.999 m 0
 330.384 377.999 323.385 398.999 268.737 398.999 c 0
 58.5811 398.999 106.581 0 197.176 0 c 0
 516.845 0 288.384 399 612.383 399 c 0
 721.581 399 730.581 0 520.737 0 c 0
 361.738 0 409.43 170.997 406.581 282 c 0
 403.425 405 421.581 507 445.581 600 c 0
0 600 m 1
 808 600 l 1
EndSplineSet
EndChar

StartChar: kSu.prera
Encoding: 449 -1 449
Width: 779
VWidth: 0
Flags: W
AnchorPoint: "anusvara" 500 800 basechar 0
LayerCount: 2
Fore
SplineSet
391.926 491.363 m 0
 595.926 170.363 645.852 600 621.852 600 c 0
 579.852 600 585.852 0 648.852 0 c 0
286.926 431.363 m 0
 145.926 533.363 187.926 689.363 280.926 695.363 c 0
 412.788 703.871 442.926 560.363 391.926 491.363 c 0
 314.24 386.26 186.852 456 126.852 264 c 0
 99.1406 175.326 158.551 77.1758 249.852 60 c 0
 338.925 43.2441 388.282 126.46 429.852 207 c 0
 446.417 239.096 344.515 282.094 345.852 246 c 0
 348.852 165 390.852 84 504.852 0 c 0
598.926 0 m 0
 697.926 0 726.339 -62.5967 724.926 -105 c 0
 721.926 -195 607.402 -213.702 514.5 -198 c 13
0 600 m 1
 779 600 l 1
EndSplineSet
EndChar

StartChar: gru.prera
Encoding: 450 -1 450
Width: 657
Flags: W
AnchorPoint: "anusvara" 350 800 basechar 0
LayerCount: 2
Fore
SplineSet
475.486 600 m 0
 469.486 351.704 448.486 0 491.681 0 c 0
197.681 600 m 0
 247.486 414.704 261.305 383.116 249.305 299.116 c 0
 242.409 250.843 192.341 215.853 145.5 229.412 c 0
 106.836 240.604 108.681 301.929 135.305 332.116 c 0
 164.966 365.75 225.305 380.116 249.305 347.116 c 0
384 0 m 0
 498 -9 565.413 -62.5967 564 -105 c 0
 561 -195 443.902 -234.702 351 -219 c 0
0 600 m 1
 657 600 l 1
166.5 61.4121 m 17
 292.119 82.4121 379.5 163.413 453.381 238 c 9
EndSplineSet
EndChar

StartChar: ghru.prera
Encoding: 451 -1 451
Width: 654
VWidth: 0
Flags: W
AnchorPoint: "anusvara" 350 800 basechar 0
LayerCount: 2
Fore
SplineSet
472 600 m 0
 468.701 343.547 450.701 0 502 0 c 0
208.298 600 m 0
 148 571.547 120 535.547 120 483.547 c 0
 120.001 407.892 228 407.547 304.298 423 c 1
 228 407.547 136.517 347.769 142 257.547 c 0
 146.399 185.161 240.636 180.153 318 197.547 c 0
 382.701 212.094 422.701 263.547 466 321 c 0
381 0 m 0
 495 -9 562.413 -62.5967 561 -105 c 0
 558 -195 440.902 -234.702 348 -219 c 0
0 600 m 1
 654 600 l 1
184.5 28.4121 m 17
 315.237 61.0996 393 90 453.381 238 c 9
EndSplineSet
EndChar

StartChar: Gru.prera
Encoding: 452 -1 452
Width: 780
Flags: W
AnchorPoint: "anusvara" 400 800 basechar 0
LayerCount: 2
Fore
SplineSet
570.015 -177 m 0
 496.015 -123.711 477.499 -124.517 403.5 -57 c 9
 209.762 -146.581 l 25
304.5 -354 m 24
 389.151 -375.613 511.5 -366 514.5 -276 c 0
 515.913 -233.597 472.011 -192 394.011 -192 c 0
 351.21 -192 338.011 -219.176 326.011 -237.176 c 9
468 600 m 0
 366 570 293 470 309 390 c 0
 317.385 348.075 367.029 300.499 439 324 c 0
 537 356 573 314 573 198 c 0
 573 67.2139 505.115 0 352.885 0 c 0
 161.115 0 130 210 120 420 c 0
0 600 m 1
 780 600 l 1
681 432.5 m 25
 639 402.5 l 25
EndSplineSet
EndChar

StartChar: chru.prera
Encoding: 453 -1 453
Width: 672
Flags: W
AnchorPoint: "anusvara" 400 800 basechar 0
LayerCount: 2
Fore
SplineSet
376.989 -360.688 m 17
 450.891 -358.177 525.489 -336.688 528.489 -246.688 c 0
 529.902 -204.284 481.5 -141.688 403.5 -141.688 c 0
 360.699 -141.688 347.5 -168.863 335.5 -186.863 c 9
249 0 m 17
 212.5 -87 144 -156 -21 -201 c 9
253.117 600 m 0
 167.118 565.983 106.521 514.087 122.588 447 c 0
 139.117 377.983 199.117 331.983 321.117 389.983 c 1
 181.118 333.982 139.117 281.983 157.117 139.983 c 0
 172.84 15.9473 277.117 0 339.117 0 c 0
 441.118 0 520.071 89.0166 545.117 207.983 c 0
 585.118 397.982 459.118 467.982 444.588 401 c 0
 429.496 331.424 531.256 344.294 543.117 453.983 c 0
 551.118 527.966 507.118 585.982 471.117 600 c 0
0 600 m 1
 672 600 l 1
EndSplineSet
EndChar

StartChar: Tru.prera
Encoding: 454 -1 454
Width: 639
Flags: W
AnchorPoint: "anusvara" 480 800 basechar 0
LayerCount: 2
Fore
SplineSet
550.5 -148.105 m 0
 472.5 -124.106 417.499 -124.517 343.5 -57 c 9
 149.762 -146.581 l 25
277.5 -354 m 17
 362.151 -375.613 484.5 -366 487.5 -276 c 0
 488.913 -233.597 442.5 -192 364.5 -192 c 0
 321.699 -192 278.011 -219.176 266.011 -237.176 c 9
510.662 600 m 0
 470.663 548.996 456.906 514.081 456.615 453 c 0
 456.071 338.865 551.945 270.576 508.589 164.996 c 0
 465.686 60.5186 394.59 0 270.59 0 c 0
 134.76 0 36.5898 180.996 222.59 312.996 c 0
0 600 m 1
 639 600 l 1
EndSplineSet
EndChar

StartChar: Thru.prera
Encoding: 455 -1 455
Width: 639
Flags: W
AnchorPoint: "anusvara" 480 800 basechar 0
LayerCount: 2
Fore
SplineSet
277.5 -354 m 17
 362.151 -375.613 484.5 -366 487.5 -276 c 0
 488.913 -233.597 442.5 -192 364.5 -192 c 0
 321.699 -192 278.011 -219.176 266.011 -237.176 c 9
345 201.5 m 25
 303 171.5 l 25
550.5 -148.105 m 4
 472.5 -124.106 417.499 -124.517 343.5 -57 c 13
 149.762 -146.581 l 29
510.662 600 m 0
 470.663 548.996 456.906 514.081 456.615 453 c 0
 456.071 338.865 551.945 270.576 508.589 164.996 c 0
 465.686 60.5186 394.59 0 270.59 0 c 0
 134.76 0 36.5898 180.996 222.59 312.996 c 0
0 600 m 1
 639 600 l 1
EndSplineSet
EndChar

StartChar: Dru.prera
Encoding: 456 -1 456
Width: 693
Flags: W
AnchorPoint: "anusvara" 400 800 basechar 0
LayerCount: 2
Fore
SplineSet
606.015 -177 m 0
 532.5 -138 477.499 -124.517 403.5 -57 c 9
 209.762 -146.581 l 25
340.5 -354 m 17
 425.151 -375.613 547.5 -366 550.5 -276 c 0
 551.913 -233.597 508.011 -192 430.011 -192 c 0
 387.21 -192 338.011 -219.176 326.011 -237.176 c 9
468 600 m 0
 366 570 293 470 309 390 c 0
 317.385 348.075 367.029 300.499 439 324 c 0
 537 356 573 314 573 198 c 0
 573 67.2139 505.115 0 352.885 0 c 0
 161.115 0 130 210 120 420 c 0
0 600 m 1
 693 600 l 1
EndSplineSet
EndChar

StartChar: Dhru.prera
Encoding: 457 -1 457
Width: 790
Flags: W
AnchorPoint: "anusvara" 450 800 basechar 0
LayerCount: 2
Fore
SplineSet
594.015 -177 m 0
 520.015 -123.711 501.499 -124.517 427.5 -57 c 9
 233.762 -146.581 l 25
319.5 -327 m 21
 404.151 -348.613 535.5 -366 538.5 -276 c 0
 539.913 -233.597 496.011 -192 418.011 -192 c 0
 375.21 -192 362.011 -219.176 350.011 -237.176 c 9
459 600 m 0
 485.821 585.602 516 540.602 465 501.602 c 0
 287.16 365.609 120 381.602 120 204.602 c 0
 120 95.1797 184.657 59.7812 267 51.6016 c 0
 392.935 39.0918 429.835 155.512 573 159.602 c 0
 678.001 162.602 714.001 0 603 0 c 0
 519.001 0 474 63.6016 438 108.602 c 0
0 600 m 1
 790 600 l 1
EndSplineSet
EndChar

StartChar: Nru.prera
Encoding: 458 -1 458
Width: 707
VWidth: 0
Flags: W
AnchorPoint: "anusvara" 500 800 basechar 0
LayerCount: 2
Fore
SplineSet
271.5 25.8936 m 25
 494.5 150 l 25
535.931 600 m 0
 517.931 440.825 492.931 0 567.931 0 c 0
132.712 600 m 0
 159.657 476 31.6572 190 253.539 190 c 0
 308.755 190 387.154 278.08 391.539 338 c 0
 397.539 420 293.31 428.167 293.539 408 c 0
 295.539 232 383.539 482 380.713 600 c 0
434 0 m 0
 548 -9 615.413 -62.5967 614 -105 c 0
 611 -195 493.902 -234.702 401 -219 c 0
0 600 m 1
 707 600 l 1
EndSplineSet
EndChar

StartChar: tru.prera
Encoding: 459 -1 459
Width: 710
VWidth: 0
Flags: W
AnchorPoint: "anusvara" 480 800 basechar 0
AnchorPoint: "eT" 465 600 basechar 0
LayerCount: 2
Fore
SplineSet
120 372 m 0
 176 420 249.933 463.479 338 446 c 0
 389.055 435.867 382 390 382 320 c 0
129.881 98 m 0
 246 150 324 218 408 342 c 0
 470.594 434.4 483.251 537.271 464.692 600 c 1
 537.251 531.271 426.251 0 554.692 0 c 0
0 600 m 1
 710 600 l 1
451 0 m 0
 565 -9 632.413 -62.5967 631 -105 c 0
 628 -195 508.402 -216.702 415.5 -201 c 13
EndSplineSet
EndChar

StartChar: thru.prera
Encoding: 460 -1 460
Width: 752
Flags: W
AnchorPoint: "anusvara" 415 800 basechar 0
LayerCount: 2
Fore
SplineSet
499.511 0 m 0
 613.511 -9 680.924 -62.5967 679.511 -105 c 0
 676.511 -195 562.402 -210.702 469.5 -195 c 13
580.925 600 m 0
 562.925 440.825 537.925 0 612.925 0 c 0
263 384 m 0
 131 399 122 600 245 600 c 0
 341 600 355.644 524.815 335 465 c 0
 298.021 357.856 221 306 128 261 c 1
 197 216 257.19 145.825 356 150 c 0
 448.081 153.891 503 201 554 279 c 0
0 600 m 1
 752 600 l 1
202 0 m 0
 431.999 36 490.462 86 550.463 238 c 0
EndSplineSet
EndChar

StartChar: dru.prera
Encoding: 461 -1 461
Width: 754
VWidth: 0
Flags: W
AnchorPoint: "anusvara" 400 800 basechar 0
LayerCount: 2
Fore
SplineSet
284.429 600 m 0
 172.429 533.927 83.7725 417.704 134.772 345.704 c 0
 184.789 275.091 345.96 277.05 347.772 318.704 c 0
 350.772 387.704 170.772 318.704 185.772 189.704 c 0
 203.169 40.083 300.938 0 476.772 0 c 0
 674.771 0 652 417.704 539.771 417.704 c 0
 505.855 417.704 475.834 283.906 493 198 c 0
 526.384 30.9277 686 60 641 -162 c 0
0 600 m 1
 754 600 l 1
521 -129 m 0
 635 -138 702.413 -191.597 701 -234 c 0
 698 -324 598.5 -348 517.5 -345 c 9
EndSplineSet
EndChar

StartChar: dhru.prera
Encoding: 462 -1 462
Width: 726
VWidth: 0
Flags: W
AnchorPoint: "anusvara" 410 800 basechar 0
AnchorPoint: "eT" 555 600 basechar 0
LayerCount: 2
Fore
SplineSet
554.462 600 m 0
 536.462 440.825 511.462 0 586.462 0 c 0
80 488.129 m 0
 111.413 456.33 228.346 422.415 300 470.129 c 0
 345.412 500.369 318.771 600 248 600 c 0
 176 600 149.972 478.039 185.871 408 c 0
 219.093 343.184 295.871 344.128 367.871 366.129 c 1
 271.871 340.128 209.872 292 219.871 244 c 0
 242.514 135.307 301.872 140 375.871 140 c 0
 457.872 140 499.872 218 533.871 294.129 c 0
127 -67.5879 m 1
 524.463 208 l 1
0 600 m 1
 726 600 l 1
459.511 0 m 0
 573.511 -9 640.924 -62.5967 639.511 -105 c 0
 636.511 -195 514.5 -204 426.511 -219 c 9
EndSplineSet
EndChar

StartChar: pru.prera
Encoding: 463 -1 463
Width: 575
Flags: W
AnchorPoint: "anusvara" 300 800 basechar 0
LayerCount: 2
Fore
SplineSet
343.511 0 m 0
 457.511 -9 524.924 -62.5967 523.511 -105 c 0
 520.511 -195 400.5 -192 310.511 -219 c 13
444.091 600 m 0
 445.396 366 399.438 0 447.438 0 c 0
126.091 600 m 0
 132.075 497.318 100.346 431.004 141.437 336.713 c 0
 171.679 267.316 217.914 210.827 293.438 216 c 0
 370.669 221.29 409.438 300.713 433.438 356.713 c 0
0 600 m 1
 575 600 l 1
65.7188 0 m 0
 211.719 30 345.719 134 422.463 246 c 0
EndSplineSet
EndChar

StartChar: bhru.prera
Encoding: 464 -1 464
Width: 750
VWidth: 0
Flags: W
AnchorPoint: "anusvara" 420 800 basechar 0
LayerCount: 2
Fore
SplineSet
390.263 528 m 0
 336.263 488 242.629 416.018 150.263 450 c 0
 93.0166 471.062 122.126 600 194.562 600 c 0
 289.837 600 300.604 332.584 244.562 152 c 0
 226.562 94 163.222 97.0596 142.562 130 c 0
 121.771 163.148 165.208 203.354 226.562 222 c 0
 430.562 284 714.562 600 588.562 600 c 0
 534.562 600 553.837 0 604.837 0 c 0
477 0 m 0
 591 -9 658.413 -62.5967 657 -105 c 0
 654 -195 526.5 -201 444 -219 c 13
0 600 m 1
 750 600 l 1
543 162 m 17
 495 103.413 413 47.9121 297 25.4121 c 9
EndSplineSet
EndChar

StartChar: mru.prera
Encoding: 465 -1 465
Width: 750
VWidth: 0
Flags: W
AnchorPoint: "anusvara" 420 800 basechar 0
LayerCount: 2
Fore
SplineSet
205.511 600 m 0
 244.511 532.412 300.604 332.584 244.562 152 c 0
 226.562 94 163.222 97.0596 142.562 130 c 0
 121.771 163.148 165.208 203.354 226.562 222 c 0
 430.562 284 714.562 600 588.562 600 c 0
 534.562 600 553.837 0 604.837 0 c 0
477 0 m 0
 591 -9 658.413 -62.5967 657 -105 c 0
 654 -195 541.5 -204 444 -219 c 13
0 600 m 1
 750 600 l 1
260.5 97.4619 m 17
 321 -28.5879 131.5 -124.588 -21 -121.588 c 9
EndSplineSet
EndChar

StartChar: yru.prera
Encoding: 466 -1 466
Width: 752
Flags: W
AnchorPoint: "anusvara" 415 800 basechar 0
LayerCount: 2
Fore
SplineSet
499.511 0 m 0
 613.511 -9 680.924 -62.5967 679.511 -105 c 0
 676.511 -195 550.5 -201 466.511 -219 c 13
580.925 600 m 0
 562.925 440.825 537.925 0 612.925 0 c 0
190.511 600 m 0
 295.511 570 290.143 512.507 277.511 444 c 0
 260.798 353.367 221 306 128 261 c 1
 197 216 257.19 145.825 356 150 c 0
 448.081 153.891 503 201 554 279 c 0
0 600 m 1
 752 600 l 1
138.463 -60 m 17
 368.462 -24 490.462 86 550.463 238 c 9
EndSplineSet
EndChar

StartChar: zru.prera
Encoding: 467 -1 467
Width: 716
VWidth: 0
Flags: W
AnchorPoint: "anusvara" 369.16 800 basechar 0
AnchorPoint: "eT" 544.16 600 basechar 0
LayerCount: 2
Fore
SplineSet
120 226 m 0
 228 234 321.709 307.964 381.459 420 c 0
 416.398 485.514 413.458 600 319.459 600 c 0
 167.76 600 154 364 498 292 c 0
175.459 0 m 0
 288.188 28 442.917 124 508.188 220 c 0
544.376 600 m 0
 526.376 440.825 501.376 0 576.376 0 c 0
0 600 m 1
 716 600 l 1
469 0 m 0
 583 -9 650.413 -62.5967 649 -105 c 0
 646 -195 526.5 -198 436 -219 c 13
EndSplineSet
EndChar

StartChar: Sru.prera
Encoding: 468 -1 468
Width: 575
VWidth: 0
Flags: W
AnchorPoint: "anusvara" 350 800 basechar 0
LayerCount: 2
Fore
SplineSet
159.091 558 m 1
 407.438 346.713 l 1
444.091 600 m 0
 445.396 366 399.438 0 447.438 0 c 0
126.091 600 m 0
 132.075 497.318 100.346 431.004 141.437 336.713 c 0
 171.679 267.316 217.914 210.827 293.438 216 c 0
 370.669 221.29 409.438 300.713 433.438 356.713 c 0
302 0 m 0
 416 -9 483.413 -62.5967 482 -105 c 0
 479 -195 355.5 -204 269 -219 c 13
0 600 m 1
 575 600 l 1
95.5 55.4121 m 17
 241.5 85.4121 345.719 134 422.463 246 c 9
EndSplineSet
EndChar

StartChar: sru.prera
Encoding: 469 -1 469
Width: 828
VWidth: 0
Flags: W
AnchorPoint: "eT" 656 600 basechar 0
AnchorPoint: "anusvara" 444.441 800 basechar 0
LayerCount: 2
Fore
SplineSet
602.75 232 m 0
 578.75 96 490 96.4541 366 52.4541 c 0
628.75 266 m 0
 450.75 206 378.75 262 344.75 290 c 0
270.955 320 m 0
 176.955 292 120.456 274 120.456 203.312 c 0
 120.456 138 180 62 266 0 c 0
252.457 600 m 0
 291.457 548.312 324.174 442 324.174 342 c 0
 324.174 251.104 292.955 158 190.955 250 c 0
656.75 600 m 0
 638.75 440.825 613.75 0 688.75 0 c 0
0 600 m 1
 828 600 l 1
573 0 m 0
 687 -9 754.413 -62.5967 753 -105 c 0
 750 -195 652.5 -198 540 -219 c 13
EndSplineSet
EndChar

StartChar: Lru.prera
Encoding: 470 -1 470
Width: 808
Flags: W
AnchorPoint: "anusvara" 420 800 basechar 0
LayerCount: 2
Fore
SplineSet
607.5 -156 m 4
 532.5 -132 477.499 -124.517 403.5 -57 c 9
 209.762 -146.581 l 25
325.5 -354 m 17
 410.151 -375.613 532.5 -366 535.5 -276 c 0
 536.913 -233.597 493.011 -192 415.011 -192 c 0
 372.21 -192 338.011 -219.176 326.011 -237.176 c 9
363.383 323.999 m 0
 330.384 377.999 323.385 398.999 268.737 398.999 c 0
 58.5811 398.999 106.581 0 197.176 0 c 0
 516.845 0 288.384 399 612.383 399 c 0
 721.581 399 730.581 0 520.737 0 c 0
 361.738 0 409.43 170.997 406.581 282 c 0
 403.425 405 421.581 507 445.581 600 c 0
0 600 m 1
 808 600 l 1
EndSplineSet
EndChar

StartChar: kSru.prera
Encoding: 471 -1 471
Width: 779
VWidth: 0
Flags: W
AnchorPoint: "anusvara" 500 800 basechar 0
AnchorPoint: "eT" 620 600 basechar 0
LayerCount: 2
Fore
SplineSet
582.381 189.863 m 17
 554.976 53.1416 299.5 -4.57422 194.5 -37.5742 c 9
391.926 491.363 m 0
 595.926 170.363 645.852 600 621.852 600 c 0
 579.852 600 585.852 0 648.852 0 c 0
286.926 431.363 m 0
 145.926 533.363 187.926 689.363 280.926 695.363 c 0
 412.788 703.871 442.926 560.363 391.926 491.363 c 0
 314.24 386.26 186.852 481.862 126.852 289.862 c 0
 99.1406 201.188 158.551 143.038 249.852 125.862 c 0
 338.925 109.106 388.282 192.322 429.852 272.862 c 0
 446.417 304.959 344.515 347.957 345.852 311.862 c 0
 348.852 230.862 348.381 203.725 462.381 119.725 c 0
0 600 m 1
 779 600 l 1
536.5 0 m 0
 650.5 -9 717.913 -62.5967 716.5 -105 c 0
 713.5 -195 590.701 -208.861 496.5 -207 c 9
EndSplineSet
EndChar

StartChar: ra.postu1
Encoding: 472 -1 472
Width: 100
VWidth: 0
Flags: W
AnchorPoint: "anusvara" 100 800 basechar 0
AnchorPoint: "eT" 100 600 basechar 0
LayerCount: 2
Fore
SplineSet
-182.756 -201 m 0
 -134.756 -189 -19.5044 -194.886 -35.7559 -259.892 c 0
 -47.7558 -307.892 40 -320.088 100 -334.892 c 0
 208.35 -361.624 312.244 -189 327.244 -75 c 0
0 600 m 1
 100 600 l 1
EndSplineSet
EndChar

StartChar: ra.postu2
Encoding: 473 -1 473
Width: 100
VWidth: 0
Flags: W
AnchorPoint: "anusvara" 100 800 basechar 0
AnchorPoint: "eT" 100 600 basechar 0
LayerCount: 2
Fore
SplineSet
-182.756 -282 m 0
 -134.756 -270 -19.5049 -275.886 -35.7559 -340.892 c 0
 -47.7559 -388.892 40 -401.088 100 -415.892 c 0
 208.35 -442.624 312.244 -189 327.244 -75 c 0
0 600 m 1
 100 600 l 1
EndSplineSet
EndChar

StartChar: ra.postu3
Encoding: 474 -1 474
Width: 100
VWidth: 0
Flags: W
AnchorPoint: "anusvara" 100 800 basechar 0
AnchorPoint: "eT" 100 600 basechar 0
LayerCount: 2
Fore
SplineSet
-182.756 -336 m 4
 -134.756 -324 -19.5049 -329.886 -35.7559 -394.892 c 4
 -47.7559 -442.892 40 -455.088 100 -469.892 c 4
 208.35 -496.624 312.244 -189 327.244 -75 c 0
0 600 m 1
 100 600 l 1
EndSplineSet
EndChar

StartChar: ra.postu4
Encoding: 475 -1 475
Width: 100
VWidth: 0
Flags: W
AnchorPoint: "anusvara" 100 800 basechar 0
AnchorPoint: "eT" 100 600 basechar 0
LayerCount: 2
Fore
SplineSet
-295.756 -282 m 0
 -247.756 -270 -132.505 -275.886 -148.756 -340.892 c 0
 -160.756 -388.892 0 -419.637 100 -415.892 c 4
 211.52 -411.715 312.244 -189 327.244 -75 c 0
0 600 m 1
 100 600 l 1
EndSplineSet
EndChar

StartChar: ra.postu5
Encoding: 476 -1 476
Width: 100
VWidth: 0
Flags: W
AnchorPoint: "anusvara" 100 800 basechar 0
AnchorPoint: "eT" 100 600 basechar 0
LayerCount: 2
Fore
SplineSet
-295.756 -336 m 0
 -247.756 -324 -132.505 -329.886 -148.756 -394.892 c 0
 -160.756 -442.892 -32.2559 -474.683 100 -469.892 c 4
 211.525 -465.851 312.244 -189 327.244 -75 c 0
0 600 m 1
 100 600 l 1
EndSplineSet
EndChar

StartChar: saMdhayA
Encoding: 487 2406 487
Width: 544
VWidth: 0
Flags: W
LayerCount: 2
Fore
SplineSet
262.232 409.297 m 0
 175.285 407.493 112.755 323.604 120.677 237 c 0
 128.906 147.021 201.897 79.4229 292.232 81.2969 c 4
 373.713 82.9873 431.655 162.138 424.232 243.297 c 0
 415.993 333.381 352.673 411.173 262.232 409.297 c 0
0 600 m 1
 544 600 l 1
EndSplineSet
EndChar

StartChar: ek
Encoding: 488 2407 488
Width: 467
VWidth: 0
Flags: W
LayerCount: 2
Fore
SplineSet
337.222 398 m 0
 273.221 338 195.395 302.513 118.666 345 c 0
 57.5176 378.86 80.209 460.617 109.678 524 c 0
 134.089 576.506 210.29 600 237.222 600 c 0
 298.585 600 344.91 555.953 347.222 442 c 1
 347.222 0 l 1
0 600 m 1
 467 600 l 1
EndSplineSet
EndChar

StartChar: don
Encoding: 489 2408 489
Width: 771
VWidth: 0
Flags: W
LayerCount: 2
Fore
SplineSet
175.5 456 m 0
 181.5 507 284.543 570.139 343.5 570 c 4
 448.68 569.755 554.715 515.521 543.5 424.059 c 0
 519.786 230.66 226.555 179 120 159 c 1
 267 184 489 164 691 74 c 0
0 600 m 1
 771 600 l 1
EndSplineSet
EndChar

StartChar: tIn
Encoding: 490 2409 490
Width: 659
VWidth: 0
Flags: W
LayerCount: 2
Fore
SplineSet
134 518 m 0
 165.042 562.706 253.763 585.78 329.5 585.006 c 4
 412.545 584.154 476.736 582.227 501.042 506.706 c 0
 557.042 332.706 353.217 329.998 217.218 315.998 c 1
 413.217 339.998 576.272 292.215 532 154 c 0
 502.205 60.9844 424.763 -0.201172 329.042 0 c 0
 264.051 0.136719 173.042 36.7061 120 70 c 0
0 600 m 1
 659 600 l 1
EndSplineSet
EndChar

StartChar: chAr
Encoding: 491 2410 491
Width: 640
VWidth: 0
Flags: W
LayerCount: 2
Fore
SplineSet
80 450 m 0
 231.555 512 365.846 430.624 430 296 c 0
 484.621 181.38 468 0 294.444 0 c 0
 183.813 0 171.62 169.728 216 270 c 0
 291.242 440.004 386 490 560 600 c 0
0 600 m 1
 640 600 l 1
EndSplineSet
EndChar

StartChar: pAc
Encoding: 492 2411 492
Width: 658
VWidth: 0
Flags: W
LayerCount: 2
Fore
SplineSet
80 556.269 m 4
 101 423 141.748 310.556 227 321 c 0
 326.022 333.129 503 600 437 600 c 0
 416.904 600 357.084 548.703 317 394.269 c 0
 279.291 248.982 256.479 0 380 0 c 0
 476 0 521 67.2686 578 148.269 c 0
0 600 m 1
 658 600 l 1
EndSplineSet
EndChar

StartChar: sahA
Encoding: 493 2412 493
Width: 659
VWidth: 0
Flags: W
LayerCount: 2
Fore
SplineSet
525.318 518 m 0
 494.276 562.706 426.238 585.78 350.5 585.006 c 0
 267.455 584.154 182.582 582.227 158.276 506.706 c 0
 102.276 332.706 293.5 318.006 434.5 342.006 c 1
 236.5 333.006 83.0459 292.215 127.318 154 c 0
 157.113 60.9844 234.556 -0.201172 330.276 0 c 0
 395.268 0.136719 486.276 36.7061 539.318 70 c 0
0 600 m 1
 659 600 l 1
EndSplineSet
EndChar

StartChar: sAt
Encoding: 494 2413 494
Width: 790
VWidth: 0
Flags: W
LayerCount: 2
Fore
SplineSet
232.84 600 m 0
 10.8398 393.934 143.928 0 393.84 0 c 0
 786.84 0 700.84 600 506.84 600 c 0
 384.84 600 326.84 267.934 656.84 335.934 c 0
0 600 m 1
 790 600 l 1
EndSplineSet
EndChar

StartChar: ATh
Encoding: 495 2414 495
Width: 636
VWidth: 0
Flags: W
LayerCount: 2
Fore
SplineSet
379.493 600 m 0
 226 393.741 120 271.741 120 147.741 c 0
 120 60.4893 200.748 0 288 0 c 0
 392 0 472 31.7412 516 65.7412 c 0
0 600 m 1
 636 600 l 1
EndSplineSet
EndChar

StartChar: naU
Encoding: 496 2415 496
Width: 790
VWidth: 0
Flags: W
LayerCount: 2
Fore
SplineSet
557.742 600 m 0
 779.742 393.934 646.654 0 396.742 0 c 0
 3.74219 0 89.7422 600 283.742 600 c 0
 405.742 600 463.742 267.934 133.742 335.934 c 0
0 600 m 1
 790 600 l 1
EndSplineSet
EndChar

StartChar: period
Encoding: 507 46 507
Width: 282
VWidth: 0
Flags: W
LayerCount: 2
Fore
SplineSet
0 600 m 1
 282 600 l 1
EndSplineSet
Refer: 58 2306 N 1 0 0 1 243 -800 2
EndChar

StartChar: comma
Encoding: 508 44 508
Width: 282
VWidth: 0
Flags: W
LayerCount: 2
Fore
SplineSet
120 -16.5 m 1
 162 13.5 l 1
 209.267 -52.8 149.5 -137.5 48.5 -189.5 c 0
0 600 m 1
 282 600 l 1
EndSplineSet
EndChar

StartChar: exclam
Encoding: 509 33 509
Width: 282
VWidth: 0
Flags: W
LayerCount: 2
Fore
SplineSet
141 520 m 5
 141 140 l 1
0 600 m 1
 282 600 l 1
EndSplineSet
Refer: 58 2306 N 1 0 0 1 243 -800 2
EndChar

StartChar: question
Encoding: 510 63 510
Width: 543
VWidth: 0
Flags: W
LayerCount: 2
Fore
SplineSet
174.894 341.85 m 0
 58.8936 385.85 141.894 520 282.894 520 c 0
 356.281 520 423.894 493.542 423.894 427.85 c 0
 423.894 302.844 282.894 337.85 282.894 140 c 0
0 600 m 1
 543 600 l 1
EndSplineSet
Refer: 58 2306 N 1 0 0 1 384.894 -800 2
EndChar

StartChar: daNDa
Encoding: 511 2404 511
Width: 374
VWidth: 0
Flags: W
LayerCount: 2
Fore
SplineSet
160.962 659 m 4
 301.962 434 57.9619 106 214.962 0 c 0
0 600 m 1
 374 600 l 1
EndSplineSet
EndChar

StartChar: abbr
Encoding: 513 2416 513
Width: 411
VWidth: 0
Flags: W
LayerCount: 2
Fore
SplineSet
212.33 270 m 0
 148.768 261.525 116.33 230 120.33 184 c 0
 124.849 132.042 152.802 85.127 232.33 98 c 0
 286.098 106.703 296.33 156 290.33 198 c 0
 282.007 256.265 242.33 274 212.33 270 c 0
0 600 m 1
 411 600 l 1
EndSplineSet
EndChar

StartChar: parenleft
Encoding: 514 40 514
Width: 312
VWidth: 0
Flags: W
LayerCount: 2
Fore
SplineSet
232 740 m 0
 157 665 90 481.679 90 300 c 0
 90 118.321 157 -65 232 -140 c 0
0 600 m 1
 312 600 l 1
EndSplineSet
EndChar

StartChar: parenright
Encoding: 515 41 515
Width: 312
VWidth: 0
Flags: W
LayerCount: 2
Fore
SplineSet
80 740 m 0
 155 665 222 481.679 222 300 c 0
 222 118.321 155 -65 80 -140 c 0
0 600 m 1
 312 600 l 1
EndSplineSet
EndChar

StartChar: bracketleft
Encoding: 516 91 516
Width: 372
VWidth: 0
Flags: W
LayerCount: 2
Fore
SplineSet
292 740 m 1
 120 740 l 1
 120 -140 l 1
 292 -140 l 1
0 600 m 1
 372 600 l 1
EndSplineSet
EndChar

StartChar: bracketright
Encoding: 517 93 517
Width: 372
VWidth: 0
Flags: W
LayerCount: 2
Fore
SplineSet
80 740 m 1
 252 740 l 1
 252 -140 l 1
 80 -140 l 1
0 600 m 1
 372 600 l 1
EndSplineSet
EndChar

StartChar: quotesingle
Encoding: 518 39 518
Width: 240
VWidth: 0
Flags: W
LayerCount: 2
Fore
SplineSet
120 660 m 1
 120 400 l 1
0 600 m 1
 240 600 l 1
EndSplineSet
EndChar

StartChar: quotedbl
Encoding: 519 34 519
Width: 400
VWidth: 0
Flags: W
LayerCount: 2
Fore
SplineSet
280 660 m 5
 280 400 l 1
120 660 m 5
 120 400 l 1
0 600 m 1
 400 600 l 1
EndSplineSet
EndChar

StartChar: numbersign
Encoding: 520 35 520
Width: 560
Flags: W
LayerCount: 2
Fore
SplineSet
120 160 m 1
 440 160 l 1
120 320 m 1
 440 320 l 1
360 480 m 1
 360 0 l 1
200 480 m 1
 200 0 l 1
0 600 m 1
 560 600 l 1
EndSplineSet
EndChar

